<svg width="391" height="97" viewBox="0 0 391 97" fill="none" xmlns="http://www.w3.org/2000/svg">
<rect x="0.0517578" y="0.160156" width="390.387" height="96.2478" rx="48.1239" fill="#FCBD16"/>
<circle cx="48.2182" cy="48.2846" r="14.5619" fill="white"/>
<path d="M124.351 32.8832V62.2832H119.521V37.5032H107.551V62.2832H102.721V32.8832H124.351ZM141.835 40.7372C144.719 40.7372 147.183 41.8152 149.227 43.9712C151.271 46.0992 152.293 48.7032 152.293 51.7832C152.293 54.8912 151.271 57.5092 149.227 59.6372C147.183 61.7652 144.719 62.8292 141.835 62.8292C138.643 62.8292 136.193 61.6532 134.485 59.3012V70.6832H129.949V41.2832H134.485V44.3072C136.193 41.9272 138.643 40.7372 141.835 40.7372ZM136.375 56.6132C137.635 57.8732 139.217 58.5032 141.121 58.5032C143.025 58.5032 144.607 57.8732 145.867 56.6132C147.127 55.3252 147.757 53.7152 147.757 51.7832C147.757 49.8512 147.127 48.2552 145.867 46.9952C144.607 45.7072 143.025 45.0632 141.121 45.0632C139.217 45.0632 137.635 45.7072 136.375 46.9952C135.115 48.2552 134.485 49.8512 134.485 51.7832C134.485 53.7152 135.115 55.3252 136.375 56.6132ZM171.608 41.2832H175.094V62.2832H170.642V48.9272L159.89 62.2832H156.404V41.2832H160.856V54.5972L171.608 41.2832ZM194.511 41.2832H199.047V62.2832H194.511V53.9252H184.893V62.2832H180.357V41.2832H184.893V49.6412H194.511V41.2832ZM220.564 41.2832V62.2832H216.112V55.2272H213.592L208.258 62.2832H202.924L208.594 54.8072C207.138 54.3312 205.962 53.4912 205.066 52.2872C204.198 51.0832 203.764 49.7392 203.764 48.2552C203.764 46.3232 204.45 44.6852 205.822 43.3412C207.222 41.9692 209.014 41.2832 211.198 41.2832H220.564ZM211.45 51.3212H216.112V45.3992H211.45C210.526 45.3992 209.756 45.6652 209.14 46.1972C208.524 46.7292 208.216 47.4572 208.216 48.3812C208.216 49.2772 208.524 49.9912 209.14 50.5232C209.756 51.0552 210.526 51.3212 211.45 51.3212ZM241.887 41.2832V45.6512H235.041V62.2832H230.505V45.6512H223.617V41.2832H241.887ZM260.161 41.2832H263.647V62.2832H259.195V48.9272L248.443 62.2832H244.957V41.2832H249.409V54.5972L260.161 41.2832ZM272.48 53.7152C272.816 55.3112 273.586 56.5432 274.79 57.4112C275.994 58.2512 277.464 58.6712 279.2 58.6712C281.608 58.6712 283.414 57.8032 284.618 56.0672L288.356 58.2512C286.284 61.3032 283.218 62.8292 279.158 62.8292C275.742 62.8292 272.984 61.7932 270.884 59.7212C268.784 57.6212 267.734 54.9752 267.734 51.7832C267.734 48.6472 268.77 46.0292 270.842 43.9292C272.914 41.8012 275.574 40.7372 278.822 40.7372C281.902 40.7372 284.422 41.8152 286.382 43.9712C288.37 46.1272 289.364 48.7452 289.364 51.8252C289.364 52.3012 289.308 52.9312 289.196 53.7152H272.48ZM272.438 50.0192H284.786C284.478 48.3112 283.764 47.0232 282.644 46.1552C281.552 45.2872 280.264 44.8532 278.78 44.8532C277.1 44.8532 275.7 45.3152 274.58 46.2392C273.46 47.1632 272.746 48.4232 272.438 50.0192Z" fill="#242424"/>
<circle cx="342.272" cy="48.2846" r="14.5619" fill="white"/>
</svg>
