<svg width="389" height="177" viewBox="0 0 389 177" fill="none" xmlns="http://www.w3.org/2000/svg">
<g filter="url(#filter0_d_840_21706)">
<rect x="4.85742" y="0.734375" width="380" height="168" rx="18" fill="white"/>
<circle cx="353.357" cy="32.2324" r="18.5" fill="#444444"/>
<circle cx="308.357" cy="32.2344" r="18" fill="white" stroke="#EAEAEA"/>
<path d="M303.348 33.2534H313.358V31.4165H303.348V33.2534ZM307.43 37.3354H309.276V27.3345H307.43V37.3354Z" fill="#444444"/>
<path d="M347.499 38.0905H348.648L355.727 31.0015L354.578 29.8508L347.499 36.9399V38.0905ZM359.236 29.8097L355.747 26.3577L356.896 25.207C357.211 24.8919 357.598 24.7344 358.056 24.7344C358.514 24.7344 358.9 24.8919 359.215 25.207L360.364 26.3577C360.679 26.6727 360.843 27.053 360.857 27.4985C360.87 27.9434 360.72 28.3234 360.405 28.6385L359.236 29.8097ZM358.046 31.022L349.346 39.7344H345.857V36.2412L354.557 27.5289L358.046 31.022ZM355.152 30.4262L354.578 29.8508L355.727 31.0015L355.152 30.4262Z" fill="white"/>
<path d="M31.7529 39.6094V26.2222H20.5645V39.6094H22.9487V28.2354H29.3687V39.6094H31.7529ZM34.9165 42.9678H37.2266V37.9951H37.375C37.5544 38.36 37.7956 38.6755 38.0986 38.9414C38.4017 39.2074 38.7542 39.4146 39.1562 39.563C39.5583 39.7052 39.9912 39.7764 40.4551 39.7764C41.3086 39.7764 42.0446 39.5661 42.6631 39.1455C43.2878 38.7249 43.7671 38.125 44.1011 37.3457C44.4412 36.5664 44.6113 35.6387 44.6113 34.5625V34.5439C44.6113 33.474 44.4412 32.5524 44.1011 31.7793C43.7609 31 43.2785 30.397 42.6538 29.9702C42.0353 29.5435 41.3024 29.3301 40.4551 29.3301C39.9788 29.3301 39.5428 29.4012 39.147 29.5435C38.7511 29.6857 38.4017 29.8867 38.0986 30.1465C37.8018 30.4062 37.5605 30.7248 37.375 31.1021H37.2266V29.4971H34.9165V42.9678ZM39.7314 37.8374C39.2181 37.8374 38.7697 37.7044 38.3862 37.4385C38.009 37.1725 37.7152 36.7952 37.5049 36.3066C37.3008 35.818 37.1987 35.2367 37.1987 34.5625V34.5439C37.1987 33.8636 37.3008 33.2822 37.5049 32.7998C37.709 32.3112 38.0028 31.937 38.3862 31.6772C38.7697 31.4113 39.2181 31.2783 39.7314 31.2783C40.2572 31.2783 40.7087 31.4082 41.0859 31.668C41.4632 31.9277 41.7508 32.3019 41.9487 32.7905C42.1528 33.2791 42.2549 33.8636 42.2549 34.5439V34.5625C42.2549 35.2367 42.1528 35.8211 41.9487 36.3159C41.7508 36.8045 41.4632 37.1818 41.0859 37.4478C40.7087 37.7075 40.2572 37.8374 39.7314 37.8374ZM51.4302 39.8135C52.4383 39.8135 53.3042 39.6032 54.0278 39.1826C54.7576 38.762 55.3174 38.159 55.707 37.3735C56.1029 36.5881 56.3008 35.651 56.3008 34.5625V34.5439C56.3008 33.4554 56.1029 32.5215 55.707 31.7422C55.3112 30.9567 54.7484 30.3537 54.0186 29.9331C53.2949 29.5125 52.4321 29.3022 51.4302 29.3022C50.4282 29.3022 49.5623 29.5125 48.8325 29.9331C48.1089 30.3537 47.5492 30.9567 47.1533 31.7422C46.7575 32.5215 46.5596 33.4554 46.5596 34.5439V34.5625C46.5596 35.651 46.7544 36.5881 47.144 37.3735C47.5399 38.159 48.0996 38.762 48.8232 39.1826C49.5531 39.6032 50.422 39.8135 51.4302 39.8135ZM51.4302 37.9395C50.8983 37.9395 50.4437 37.8065 50.0664 37.5405C49.6953 37.2746 49.4108 36.8911 49.2129 36.3901C49.015 35.883 48.916 35.2738 48.916 34.5625V34.5439C48.916 33.8327 49.015 33.2266 49.2129 32.7256C49.417 32.2246 49.7046 31.8411 50.0757 31.5752C50.4468 31.3031 50.8983 31.167 51.4302 31.167C51.9621 31.167 52.4136 31.3031 52.7847 31.5752C53.1558 31.8411 53.4403 32.2246 53.6382 32.7256C53.8361 33.2266 53.9351 33.8327 53.9351 34.5439V34.5625C53.9351 35.2738 53.8361 35.883 53.6382 36.3901C53.4403 36.8911 53.1558 37.2746 52.7847 37.5405C52.4136 37.8065 51.9621 37.9395 51.4302 37.9395ZM63.2031 39.8135C64.2113 39.8135 65.0771 39.6032 65.8008 39.1826C66.5306 38.7559 67.0903 38.1497 67.48 37.3643C67.8758 36.5788 68.0737 35.6541 68.0737 34.5903V34.5718C68.0737 33.5822 67.8913 32.7256 67.5264 32.002C67.1615 31.2721 66.645 30.7093 65.9771 30.3135C65.3153 29.9115 64.5329 29.7104 63.6299 29.7104C62.8444 29.7104 62.161 29.8713 61.5796 30.1929C61.0044 30.5145 60.5529 30.9784 60.2251 31.5845H60.0767L60.1045 31.4082C60.2158 30.5609 60.4106 29.8743 60.689 29.3486C60.9673 28.8167 61.3569 28.424 61.8579 28.1704C62.3589 27.9106 62.9928 27.7653 63.7598 27.7344L64.9009 27.6973C65.4513 27.6725 65.9616 27.6138 66.4316 27.521C66.9017 27.4282 67.2295 27.32 67.415 27.1963V25.3315C67.0254 25.4738 66.5924 25.5851 66.1162 25.6655C65.6462 25.7397 65.1978 25.783 64.771 25.7954L63.5928 25.8418C62.3558 25.8913 61.3446 26.1974 60.5591 26.7603C59.7736 27.3231 59.1922 28.1735 58.8149 29.3115C58.4438 30.4434 58.2583 31.8937 58.2583 33.6626V33.6812C58.2583 35.6727 58.6789 37.1942 59.52 38.2456C60.3674 39.2909 61.5951 39.8135 63.2031 39.8135ZM63.166 37.9487C62.6279 37.9487 62.1672 37.8158 61.7837 37.5498C61.4064 37.2839 61.1157 36.9035 60.9116 36.4087C60.7137 35.9139 60.6147 35.3232 60.6147 34.6367V34.6182C60.6147 33.9626 60.7137 33.4059 60.9116 32.9482C61.1157 32.4844 61.4064 32.1318 61.7837 31.8906C62.1672 31.6432 62.6279 31.5195 63.166 31.5195C63.7041 31.5195 64.1618 31.6432 64.5391 31.8906C64.9225 32.1318 65.2132 32.4844 65.4111 32.9482C65.6152 33.4059 65.7173 33.9626 65.7173 34.6182V34.6367C65.7173 35.3232 65.6183 35.9139 65.4204 36.4087C65.2225 36.9035 64.9318 37.2839 64.5483 37.5498C64.1711 37.8158 63.7103 37.9487 63.166 37.9487ZM73.3989 35.2119L73.6865 31.2876H76.6646V39.6094H78.9746V29.4971H71.6826L71.3301 35.0356C71.3053 35.5304 71.2466 35.9788 71.1538 36.3809C71.061 36.7767 70.9219 37.0921 70.7363 37.3271C70.5508 37.556 70.3003 37.6704 69.9849 37.6704C69.855 37.6704 69.7344 37.6642 69.623 37.6519C69.5117 37.6333 69.4313 37.6178 69.3818 37.6055V39.5908C69.4561 39.6156 69.5674 39.6403 69.7158 39.665C69.8643 39.6898 70.0405 39.7021 70.2446 39.7021C70.9435 39.7021 71.5125 39.5321 71.9517 39.1919C72.397 38.8455 72.734 38.3384 72.9629 37.6704C73.1917 37.0024 73.3371 36.1829 73.3989 35.2119ZM86.2388 39.8135C86.9191 39.8135 87.519 39.7269 88.0386 39.5537C88.5581 39.3743 88.9972 39.1424 89.356 38.8579C89.7209 38.5672 90.0085 38.2518 90.2188 37.9116C90.4352 37.5715 90.5837 37.2375 90.6641 36.9097L90.6826 36.8169H88.5024L88.4653 36.8911C88.3973 37.0457 88.2674 37.2096 88.0757 37.3828C87.8901 37.556 87.6489 37.7044 87.3521 37.8281C87.0552 37.9456 86.6995 38.0044 86.2852 38.0044C85.7594 38.0044 85.3018 37.8869 84.9121 37.6519C84.5286 37.4168 84.2318 37.0798 84.0215 36.6406C83.8112 36.1953 83.7061 35.6603 83.7061 35.0356V34.1172C83.7061 33.4678 83.8112 32.9204 84.0215 32.4751C84.238 32.0236 84.5286 31.6834 84.8936 31.4546C85.2646 31.2257 85.6852 31.1113 86.1553 31.1113C86.6315 31.1113 87.049 31.2227 87.4077 31.4453C87.7664 31.668 88.0479 32.002 88.252 32.4473C88.4561 32.8864 88.5581 33.443 88.5581 34.1172V35.0356L89.6621 33.5884H82.5649V35.1284H90.7847V34.3677C90.7847 33.3534 90.596 32.4658 90.2188 31.7051C89.8477 30.9443 89.3127 30.3537 88.6138 29.9331C87.9211 29.5125 87.0923 29.3022 86.1274 29.3022C85.175 29.3022 84.3431 29.5218 83.6318 29.9609C82.9206 30.3939 82.3701 31.0062 81.9805 31.7979C81.597 32.5833 81.4053 33.508 81.4053 34.5718V34.5811C81.4053 35.651 81.6001 36.5788 81.9897 37.3643C82.3794 38.1436 82.9329 38.7466 83.6504 39.1733C84.374 39.6001 85.2368 39.8135 86.2388 39.8135ZM95.4233 39.6094V32.707H95.5811L98.3643 39.1548H100.016L102.808 32.707H102.966V39.6094H105.174V29.4971H102.298L99.292 36.5479H99.1436L96.1562 29.4971H93.2153V39.6094H95.4233ZM108.096 39.6094H112.392C113.573 39.6094 114.513 39.2909 115.212 38.6538C115.911 38.0168 116.26 37.1632 116.26 36.0933V36.0747C116.26 34.9985 115.911 34.1419 115.212 33.5049C114.513 32.8678 113.573 32.5493 112.392 32.5493H110.397V29.4971H108.096V39.6094ZM112.085 34.3306C112.648 34.3306 113.097 34.4883 113.431 34.8037C113.765 35.1191 113.932 35.5397 113.932 36.0654V36.084C113.932 36.6035 113.765 37.0241 113.431 37.3457C113.103 37.6673 112.654 37.8281 112.085 37.8281H110.397V34.3306H112.085ZM117.875 39.6094H120.185V29.4971H117.875V39.6094Z" fill="#363636"/>
<rect x="18.3922" y="67.2701" width="90.3571" height="36.2143" rx="18.1071" fill="white"/>
<path d="M41.8062 90.6333C42.5972 90.6333 43.3027 90.4941 43.9229 90.2158C44.543 89.9326 45.0508 89.5371 45.4463 89.0293C45.8418 88.5215 46.0908 87.9282 46.1934 87.2495L46.2007 87.2129H44.5601L44.5454 87.2422C44.4526 87.6377 44.2793 87.9819 44.0254 88.2749C43.7715 88.563 43.4541 88.7852 43.0732 88.9414C42.6973 89.0977 42.2773 89.1758 41.8135 89.1758C41.1787 89.1758 40.6294 89.0098 40.1655 88.6777C39.7065 88.3457 39.3501 87.8745 39.0962 87.2642C38.8472 86.6538 38.7227 85.9336 38.7227 85.1035V85.0889C38.7227 84.249 38.8472 83.5264 39.0962 82.9209C39.3501 82.3105 39.7065 81.8394 40.1655 81.5073C40.6294 81.1753 41.1763 81.0093 41.8062 81.0093C42.27 81.0093 42.6899 81.0972 43.0659 81.2729C43.4419 81.4487 43.7593 81.6953 44.0181 82.0127C44.2769 82.3301 44.4551 82.7061 44.5527 83.1406L44.5601 83.1699H46.1934V83.126C46.1055 82.4277 45.8589 81.8101 45.4536 81.2729C45.0532 80.7358 44.5381 80.3159 43.9082 80.0132C43.2832 79.7056 42.5825 79.5518 41.8062 79.5518C40.8247 79.5518 39.9775 79.7764 39.2646 80.2256C38.5518 80.6748 38.0024 81.312 37.6167 82.1372C37.231 82.9624 37.0381 83.9463 37.0381 85.0889V85.1035C37.0381 86.2412 37.231 87.2227 37.6167 88.0479C38.0024 88.873 38.5518 89.5103 39.2646 89.9595C39.9824 90.4087 40.8296 90.6333 41.8062 90.6333ZM54.0229 82.4229H47.4238V83.6826H49.9287V90.377H51.5181V83.6826H54.0229V82.4229ZM55.8027 93.0283H57.3921V89.1172H57.5166C57.6582 89.4053 57.8511 89.6519 58.0952 89.8569C58.3394 90.062 58.6201 90.2231 58.9375 90.3403C59.2549 90.4526 59.5967 90.5088 59.9629 90.5088C60.6367 90.5088 61.2202 90.3428 61.7134 90.0107C62.2065 89.6738 62.5874 89.2002 62.856 88.5898C63.1245 87.9746 63.2588 87.2471 63.2588 86.4072V86.3926C63.2588 85.5576 63.1221 84.835 62.8486 84.2246C62.5801 83.6094 62.1992 83.1333 61.7061 82.7964C61.2129 82.4546 60.6318 82.2837 59.9629 82.2837C59.5918 82.2837 59.25 82.3398 58.9375 82.4521C58.625 82.5645 58.3467 82.7231 58.1025 82.9282C57.8633 83.1333 57.668 83.3823 57.5166 83.6753H57.3921V82.4229H55.8027V93.0283ZM59.5088 89.1465C59.0693 89.1465 58.6885 89.0366 58.3662 88.8169C58.0439 88.5923 57.7974 88.2749 57.6265 87.8647C57.4556 87.4546 57.3701 86.9688 57.3701 86.4072V86.3926C57.3701 85.8213 57.4556 85.333 57.6265 84.9277C57.7974 84.5176 58.0439 84.2026 58.3662 83.9829C58.6885 83.7583 59.0693 83.646 59.5088 83.646C59.9531 83.646 60.334 83.7559 60.6514 83.9756C60.9688 84.1953 61.2104 84.5103 61.3765 84.9204C61.5474 85.3306 61.6328 85.8213 61.6328 86.3926V86.4072C61.6328 86.9736 61.5474 87.4619 61.3765 87.8721C61.2104 88.2822 60.9688 88.5972 60.6514 88.8169C60.334 89.0366 59.9531 89.1465 59.5088 89.1465ZM68.6494 90.5308C69.1621 90.5308 69.6138 90.4648 70.0044 90.333C70.3999 90.2012 70.7368 90.0278 71.0151 89.813C71.2983 89.5981 71.5254 89.3613 71.6963 89.1025C71.8672 88.8389 71.9868 88.5752 72.0552 88.3115L72.0698 88.2456H70.5317L70.5024 88.3042C70.4438 88.4409 70.334 88.5801 70.1729 88.7217C70.0166 88.8633 69.814 88.9829 69.5649 89.0806C69.3208 89.1733 69.0278 89.2197 68.686 89.2197C68.2417 89.2197 67.856 89.1221 67.5288 88.9268C67.2065 88.7314 66.9575 88.4482 66.7817 88.0771C66.606 87.7061 66.5181 87.2593 66.5181 86.7368V86.0996C66.5181 85.5527 66.606 85.0913 66.7817 84.7153C66.9624 84.3394 67.2065 84.0562 67.5142 83.8657C67.8267 83.6704 68.1807 83.5728 68.5762 83.5728C68.9717 83.5728 69.3208 83.6655 69.6235 83.8511C69.9263 84.0366 70.1631 84.3174 70.334 84.6934C70.5098 85.0645 70.5977 85.5332 70.5977 86.0996V86.7368L71.3594 85.6821H65.7197V86.8174H72.1504V86.2607C72.1504 85.46 72.0063 84.7617 71.7183 84.166C71.4302 83.5654 71.0176 83.0991 70.4805 82.7671C69.9482 82.4351 69.311 82.269 68.5688 82.269C67.8315 82.269 67.187 82.4424 66.6353 82.7891C66.0884 83.1357 65.6636 83.6191 65.3608 84.2393C65.063 84.8594 64.9141 85.5845 64.9141 86.4146V86.4219C64.9141 87.2617 65.063 87.9893 65.3608 88.6045C65.6636 89.2197 66.0933 89.6958 66.6499 90.0327C67.2065 90.3647 67.873 90.5308 68.6494 90.5308ZM77.5337 90.5308C78.1929 90.5308 78.7568 90.4209 79.2256 90.2012C79.6992 89.9766 80.0776 89.6689 80.3608 89.2783C80.644 88.8877 80.832 88.4336 80.9248 87.916L80.9395 87.8501L79.416 87.8574L79.4014 87.894C79.2744 88.3237 79.0547 88.6484 78.7422 88.8682C78.4346 89.0879 78.0317 89.1978 77.5337 89.1978C77.0991 89.1978 76.7231 89.0854 76.4058 88.8608C76.0884 88.6313 75.8442 88.3066 75.6733 87.8867C75.5024 87.4668 75.417 86.9639 75.417 86.3779V86.3633C75.417 85.792 75.5 85.2988 75.666 84.8838C75.8369 84.4688 76.0811 84.1514 76.3984 83.9316C76.7158 83.707 77.0942 83.5947 77.5337 83.5947C78.061 83.5947 78.4834 83.7266 78.8008 83.9902C79.1182 84.249 79.3208 84.5737 79.4087 84.9644L79.416 84.979H80.9468L80.9395 84.9424C80.8662 84.4297 80.6855 83.9731 80.3975 83.5728C80.1143 83.1675 79.731 82.8501 79.2476 82.6206C78.769 82.3862 78.1953 82.269 77.5264 82.269C76.7549 82.269 76.0884 82.4351 75.5269 82.7671C74.9702 83.0991 74.5405 83.5703 74.2378 84.1807C73.9399 84.791 73.791 85.5186 73.791 86.3633V86.3779C73.791 87.2373 73.9424 87.9771 74.2451 88.5972C74.5479 89.2173 74.9775 89.6958 75.5342 90.0327C76.0957 90.3647 76.7622 90.5308 77.5337 90.5308ZM86.2202 90.5308C86.8794 90.5308 87.4434 90.4209 87.9121 90.2012C88.3857 89.9766 88.7642 89.6689 89.0474 89.2783C89.3306 88.8877 89.5186 88.4336 89.6113 87.916L89.626 87.8501L88.1025 87.8574L88.0879 87.894C87.9609 88.3237 87.7412 88.6484 87.4287 88.8682C87.1211 89.0879 86.7183 89.1978 86.2202 89.1978C85.7856 89.1978 85.4097 89.0854 85.0923 88.8608C84.7749 88.6313 84.5308 88.3066 84.3599 87.8867C84.189 87.4668 84.1035 86.9639 84.1035 86.3779V86.3633C84.1035 85.792 84.1865 85.2988 84.3525 84.8838C84.5234 84.4688 84.7676 84.1514 85.085 83.9316C85.4023 83.707 85.7808 83.5947 86.2202 83.5947C86.7476 83.5947 87.1699 83.7266 87.4873 83.9902C87.8047 84.249 88.0073 84.5737 88.0952 84.9644L88.1025 84.979H89.6333L89.626 84.9424C89.5527 84.4297 89.3721 83.9731 89.084 83.5728C88.8008 83.1675 88.4175 82.8501 87.9341 82.6206C87.4556 82.3862 86.8818 82.269 86.2129 82.269C85.4414 82.269 84.7749 82.4351 84.2134 82.7671C83.6567 83.0991 83.2271 83.5703 82.9243 84.1807C82.6265 84.791 82.4775 85.5186 82.4775 86.3633V86.3779C82.4775 87.2373 82.6289 87.9771 82.9316 88.5972C83.2344 89.2173 83.6641 89.6958 84.2207 90.0327C84.7822 90.3647 85.4487 90.5308 86.2202 90.5308Z" fill="black"/>
<rect x="18.3922" y="67.2701" width="90.3571" height="36.2143" rx="18.1071" stroke="#EDE9E9" stroke-width="1.07143"/>
<rect x="113.321" y="67.2701" width="122.357" height="36.2143" rx="18.1071" fill="white"/>
<path d="M136.902 90.6333C137.918 90.6333 138.794 90.4062 139.532 89.9521C140.274 89.498 140.843 88.8584 141.238 88.0332C141.634 87.2031 141.832 86.2241 141.832 85.0962V85.0815C141.832 83.9487 141.631 82.9697 141.231 82.1445C140.835 81.3145 140.269 80.6748 139.532 80.2256C138.794 79.7764 137.918 79.5518 136.902 79.5518C135.892 79.5518 135.015 79.7764 134.273 80.2256C133.536 80.6748 132.967 81.312 132.566 82.1372C132.166 82.9624 131.966 83.9438 131.966 85.0815V85.0962C131.966 86.2241 132.164 87.2031 132.559 88.0332C132.955 88.8633 133.521 89.5054 134.258 89.9595C134.996 90.4087 135.877 90.6333 136.902 90.6333ZM136.902 89.1758C136.224 89.1758 135.64 89.0073 135.152 88.6704C134.668 88.3335 134.295 87.8599 134.031 87.2495C133.772 86.6343 133.643 85.9165 133.643 85.0962V85.0815C133.643 84.2515 133.777 83.5312 134.046 82.9209C134.314 82.3105 134.69 81.8394 135.174 81.5073C135.662 81.1753 136.238 81.0093 136.902 81.0093C137.566 81.0093 138.143 81.1753 138.631 81.5073C139.119 81.8394 139.495 82.3105 139.759 82.9209C140.022 83.5312 140.154 84.2515 140.154 85.0815V85.0962C140.154 85.9165 140.022 86.6343 139.759 87.2495C139.495 87.8599 139.119 88.3335 138.631 88.6704C138.143 89.0073 137.566 89.1758 136.902 89.1758ZM149.947 82.4229H143.348V83.6826H145.853V90.377H147.442V83.6826H149.947V82.4229ZM156.912 90.377H158.509V82.4229H156.912V85.6309H153.316V82.4229H151.719V90.377H153.316V86.8906H156.912V90.377ZM164.31 90.5308C165.091 90.5308 165.76 90.3647 166.316 90.0327C166.878 89.7007 167.31 89.2271 167.613 88.6118C167.92 87.9917 168.074 87.2568 168.074 86.4072V86.3926C168.074 85.5381 167.92 84.8032 167.613 84.188C167.31 83.5679 166.878 83.0942 166.316 82.7671C165.755 82.4351 165.086 82.269 164.31 82.269C163.538 82.269 162.869 82.4351 162.303 82.7671C161.741 83.0991 161.307 83.5728 160.999 84.188C160.696 84.8032 160.545 85.5381 160.545 86.3926V86.4072C160.545 87.2568 160.696 87.9917 160.999 88.6118C161.302 89.2271 161.734 89.7007 162.295 90.0327C162.862 90.3647 163.533 90.5308 164.31 90.5308ZM164.31 89.1978C163.855 89.1978 163.47 89.0879 163.152 88.8682C162.835 88.6436 162.591 88.3237 162.42 87.9087C162.254 87.4937 162.171 86.9932 162.171 86.4072V86.3926C162.171 85.8018 162.254 85.2988 162.42 84.8838C162.591 84.4688 162.835 84.1514 163.152 83.9316C163.47 83.707 163.855 83.5947 164.31 83.5947C164.764 83.5947 165.149 83.707 165.467 83.9316C165.784 84.1514 166.026 84.4688 166.192 84.8838C166.358 85.2988 166.441 85.8018 166.441 86.3926V86.4072C166.441 86.9932 166.358 87.4937 166.192 87.9087C166.026 88.3237 165.784 88.6436 165.467 88.8682C165.149 89.0879 164.764 89.1978 164.31 89.1978ZM170.103 90.377H180.328V82.4229H178.731V89.1099H176.014V82.4229H174.417V89.1099H171.7V82.4229H170.103V90.377ZM186.092 90.5308C186.604 90.5308 187.056 90.4648 187.447 90.333C187.842 90.2012 188.179 90.0278 188.458 89.813C188.741 89.5981 188.968 89.3613 189.139 89.1025C189.31 88.8389 189.429 88.5752 189.498 88.3115L189.512 88.2456H187.974L187.945 88.3042C187.886 88.4409 187.776 88.5801 187.615 88.7217C187.459 88.8633 187.256 88.9829 187.007 89.0806C186.763 89.1733 186.47 89.2197 186.128 89.2197C185.684 89.2197 185.298 89.1221 184.971 88.9268C184.649 88.7314 184.4 88.4482 184.224 88.0771C184.048 87.7061 183.96 87.2593 183.96 86.7368V86.0996C183.96 85.5527 184.048 85.0913 184.224 84.7153C184.405 84.3394 184.649 84.0562 184.957 83.8657C185.269 83.6704 185.623 83.5728 186.019 83.5728C186.414 83.5728 186.763 83.6655 187.066 83.8511C187.369 84.0366 187.605 84.3174 187.776 84.6934C187.952 85.0645 188.04 85.5332 188.04 86.0996V86.7368L188.802 85.6821H183.162V86.8174H189.593V86.2607C189.593 85.46 189.449 84.7617 189.161 84.166C188.873 83.5654 188.46 83.0991 187.923 82.7671C187.391 82.4351 186.753 82.269 186.011 82.269C185.274 82.269 184.629 82.4424 184.078 82.7891C183.531 83.1357 183.106 83.6191 182.803 84.2393C182.505 84.8594 182.356 85.5845 182.356 86.4146V86.4219C182.356 87.2617 182.505 87.9893 182.803 88.6045C183.106 89.2197 183.536 89.6958 184.092 90.0327C184.649 90.3647 185.315 90.5308 186.092 90.5308ZM196.814 90.377H198.411V82.4229H196.814V85.6309H193.218V82.4229H191.622V90.377H193.218V86.8906H196.814V90.377ZM200.835 90.377H202.417L206.395 84.166L205.318 84.7739H206.146V90.377H207.728V82.4229H206.146L202.168 88.6045L203.245 88.0039H202.417V82.4229H200.835V90.377ZM214.451 90.377H216.026V82.4229H212.957C212.347 82.4229 211.812 82.5303 211.353 82.7451C210.899 82.96 210.545 83.2676 210.291 83.668C210.042 84.0635 209.917 84.5371 209.917 85.0889V85.1035C209.917 85.6455 210.074 86.1167 210.386 86.5171C210.704 86.9175 211.138 87.1958 211.69 87.3521L209.515 90.377H211.353L213.287 87.623H214.451V90.377ZM213.038 86.4072C212.569 86.4072 212.198 86.2827 211.924 86.0337C211.656 85.7847 211.521 85.4697 211.521 85.0889V85.0742C211.521 84.6396 211.656 84.2979 211.924 84.0488C212.198 83.7998 212.569 83.6753 213.038 83.6753H214.451V86.4072H213.038Z" fill="black"/>
<rect x="113.321" y="67.2701" width="122.357" height="36.2143" rx="18.1071" stroke="#EDE9E9" stroke-width="1.07143"/>
<rect x="240.25" y="67.2701" width="80.3571" height="36.2143" rx="18.1071" fill="white"/>
<path d="M260.528 90.4575C261.153 90.4575 261.67 90.3379 262.081 90.0986C262.496 89.8545 262.854 89.5005 263.157 89.0366C263.465 88.5728 263.76 88.0112 264.043 87.3521L267.281 79.8081H265.56L263.003 86.2974H262.879L260.25 79.8081H258.499L262.073 88.0259C261.941 88.2603 261.795 88.4507 261.634 88.5972C261.473 88.7388 261.292 88.8438 261.092 88.9121C260.896 88.9805 260.677 89.0146 260.433 89.0146C260.276 89.0146 260.147 89.0073 260.044 88.9927C259.947 88.978 259.874 88.9658 259.825 88.9561V90.3623C259.859 90.377 259.939 90.3965 260.066 90.4209C260.193 90.4453 260.347 90.4575 260.528 90.4575ZM274.773 90.377V82.4229H273.184V85.7188C273.028 85.8799 272.798 86.0142 272.496 86.1216C272.193 86.2241 271.822 86.2754 271.382 86.2754C270.87 86.2754 270.481 86.1338 270.218 85.8506C269.959 85.5625 269.83 85.167 269.83 84.6641V82.4229H268.24V84.752C268.24 85.6211 268.492 86.3193 268.995 86.8467C269.502 87.374 270.232 87.6377 271.185 87.6377C271.6 87.6377 271.963 87.5938 272.276 87.5059C272.588 87.418 272.85 87.2959 273.06 87.1396H273.184V90.377H274.773ZM280.545 90.5308C281.058 90.5308 281.509 90.4648 281.9 90.333C282.295 90.2012 282.632 90.0278 282.911 89.813C283.194 89.5981 283.421 89.3613 283.592 89.1025C283.763 88.8389 283.882 88.5752 283.951 88.3115L283.965 88.2456H282.427L282.398 88.3042C282.339 88.4409 282.229 88.5801 282.068 88.7217C281.912 88.8633 281.709 88.9829 281.46 89.0806C281.216 89.1733 280.923 89.2197 280.582 89.2197C280.137 89.2197 279.751 89.1221 279.424 88.9268C279.102 88.7314 278.853 88.4482 278.677 88.0771C278.501 87.7061 278.414 87.2593 278.414 86.7368V86.0996C278.414 85.5527 278.501 85.0913 278.677 84.7153C278.858 84.3394 279.102 84.0562 279.41 83.8657C279.722 83.6704 280.076 83.5728 280.472 83.5728C280.867 83.5728 281.216 83.6655 281.519 83.8511C281.822 84.0366 282.059 84.3174 282.229 84.6934C282.405 85.0645 282.493 85.5332 282.493 86.0996V86.7368L283.255 85.6821H277.615V86.8174H284.046V86.2607C284.046 85.46 283.902 84.7617 283.614 84.166C283.326 83.5654 282.913 83.0991 282.376 82.7671C281.844 82.4351 281.207 82.269 280.464 82.269C279.727 82.269 279.083 82.4424 278.531 82.7891C277.984 83.1357 277.559 83.6191 277.256 84.2393C276.958 84.8594 276.81 85.5845 276.81 86.4146V86.4219C276.81 87.2617 276.958 87.9893 277.256 88.6045C277.559 89.2197 277.989 89.6958 278.545 90.0327C279.102 90.3647 279.769 90.5308 280.545 90.5308ZM289.51 90.5308C290.291 90.5308 290.965 90.3647 291.531 90.0327C292.098 89.7007 292.532 89.2271 292.835 88.6118C293.138 87.9966 293.289 87.2666 293.289 86.4219V86.4072C293.289 85.6211 293.145 84.9399 292.857 84.3638C292.569 83.7827 292.164 83.3335 291.641 83.0161C291.119 82.6987 290.501 82.54 289.788 82.54C289.178 82.54 288.643 82.667 288.184 82.9209C287.73 83.1699 287.371 83.5337 287.107 84.0122H286.983L287.005 83.8584C287.098 83.1699 287.254 82.6133 287.474 82.1885C287.698 81.7588 288.008 81.4414 288.404 81.2363C288.799 81.0264 289.3 80.9092 289.905 80.8848L290.777 80.8481C291.216 80.8286 291.624 80.7798 292 80.7017C292.376 80.6235 292.632 80.5308 292.769 80.4233V79.0977C292.442 79.2197 292.095 79.3125 291.729 79.376C291.363 79.4395 291.016 79.4785 290.689 79.4932L289.81 79.5298C288.848 79.5688 288.064 79.8081 287.459 80.2476C286.858 80.687 286.414 81.3535 286.126 82.2471C285.843 83.1406 285.701 84.2832 285.701 85.6748V85.6895C285.701 87.2715 286.023 88.4751 286.668 89.3003C287.317 90.1206 288.265 90.5308 289.51 90.5308ZM289.495 89.2051C289.036 89.2051 288.643 89.0952 288.316 88.8755C287.994 88.6558 287.747 88.3408 287.576 87.9307C287.405 87.5156 287.32 87.02 287.32 86.4438V86.4292C287.32 85.8774 287.405 85.4111 287.576 85.0303C287.747 84.6445 287.994 84.3491 288.316 84.144C288.643 83.939 289.036 83.8364 289.495 83.8364C289.954 83.8364 290.345 83.939 290.667 84.144C290.994 84.3491 291.241 84.6445 291.407 85.0303C291.578 85.4111 291.663 85.8774 291.663 86.4292V86.4438C291.663 87.02 291.578 87.5156 291.407 87.9307C291.241 88.3408 290.994 88.6558 290.667 88.8755C290.345 89.0952 289.954 89.2051 289.495 89.2051ZM297.522 90.5088C297.874 90.5088 298.199 90.46 298.497 90.3623C298.794 90.2646 299.061 90.123 299.295 89.9375C299.529 89.7471 299.725 89.5176 299.881 89.249H299.998V90.377H301.58V84.9351C301.58 84.3784 301.458 83.9023 301.214 83.5068C300.975 83.1064 300.621 82.8013 300.152 82.5913C299.688 82.3765 299.122 82.269 298.453 82.269C297.852 82.269 297.317 82.3594 296.849 82.54C296.385 82.7207 296.009 82.9746 295.721 83.3018C295.438 83.624 295.264 84.0049 295.201 84.4443L295.193 84.4956H296.724L296.739 84.4736C296.832 84.1904 297.017 83.9707 297.295 83.8145C297.579 83.6582 297.942 83.5801 298.387 83.5801C298.919 83.5801 299.319 83.6973 299.588 83.9316C299.861 84.1611 299.998 84.4956 299.998 84.9351V87.4399C299.998 87.7817 299.91 88.0894 299.734 88.3628C299.559 88.6313 299.314 88.8462 299.002 89.0073C298.694 89.1636 298.343 89.2417 297.947 89.2417C297.522 89.2417 297.171 89.1392 296.893 88.9341C296.614 88.7241 296.475 88.4385 296.475 88.0771V88.0625C296.475 87.7061 296.604 87.4302 296.863 87.2349C297.122 87.0347 297.525 86.9175 298.072 86.8833L300.789 86.7075V85.5869L297.852 85.7627C296.905 85.8213 296.172 86.0532 295.655 86.4585C295.142 86.8589 294.886 87.4155 294.886 88.1284V88.1431C294.886 88.6216 295 89.0391 295.23 89.3955C295.459 89.752 295.772 90.0278 296.167 90.2231C296.568 90.4136 297.02 90.5088 297.522 90.5088Z" fill="black"/>
<rect x="240.25" y="67.2701" width="80.3571" height="36.2143" rx="18.1071" stroke="#EDE9E9" stroke-width="1.07143"/>
<rect x="18.3564" y="114.621" width="135.429" height="36.2857" rx="18.1429" fill="white"/>
<path d="M40.1509 137.764H41.7915V128.616H45.1167V127.195H36.8257V128.616H40.1509V137.764ZM46.208 140.415H47.7974V136.504H47.9219C48.0635 136.792 48.2563 137.039 48.5005 137.244C48.7446 137.449 49.0254 137.61 49.3428 137.727C49.6602 137.839 50.002 137.896 50.3682 137.896C51.042 137.896 51.6255 137.729 52.1187 137.397C52.6118 137.061 52.9927 136.587 53.2612 135.977C53.5298 135.361 53.6641 134.634 53.6641 133.794V133.779C53.6641 132.944 53.5273 132.222 53.2539 131.611C52.9854 130.996 52.6045 130.52 52.1113 130.183C51.6182 129.841 51.0371 129.67 50.3682 129.67C49.9971 129.67 49.6553 129.727 49.3428 129.839C49.0303 129.951 48.752 130.11 48.5078 130.315C48.2686 130.52 48.0732 130.769 47.9219 131.062H47.7974V129.81H46.208V140.415ZM49.9141 136.533C49.4746 136.533 49.0938 136.423 48.7715 136.204C48.4492 135.979 48.2026 135.662 48.0317 135.251C47.8608 134.841 47.7754 134.355 47.7754 133.794V133.779C47.7754 133.208 47.8608 132.72 48.0317 132.314C48.2026 131.904 48.4492 131.589 48.7715 131.37C49.0938 131.145 49.4746 131.033 49.9141 131.033C50.3584 131.033 50.7393 131.143 51.0566 131.362C51.374 131.582 51.6157 131.897 51.7817 132.307C51.9526 132.717 52.0381 133.208 52.0381 133.779V133.794C52.0381 134.36 51.9526 134.849 51.7817 135.259C51.6157 135.669 51.374 135.984 51.0566 136.204C50.7393 136.423 50.3584 136.533 49.9141 136.533ZM59.0547 137.917C59.5674 137.917 60.019 137.852 60.4097 137.72C60.8052 137.588 61.1421 137.415 61.4204 137.2C61.7036 136.985 61.9307 136.748 62.1016 136.489C62.2725 136.226 62.3921 135.962 62.4604 135.698L62.4751 135.632H60.937L60.9077 135.691C60.8491 135.828 60.7393 135.967 60.5781 136.108C60.4219 136.25 60.2192 136.37 59.9702 136.467C59.7261 136.56 59.4331 136.606 59.0913 136.606C58.647 136.606 58.2612 136.509 57.9341 136.313C57.6118 136.118 57.3628 135.835 57.187 135.464C57.0112 135.093 56.9233 134.646 56.9233 134.124V133.486C56.9233 132.939 57.0112 132.478 57.187 132.102C57.3677 131.726 57.6118 131.443 57.9194 131.252C58.2319 131.057 58.5859 130.959 58.9814 130.959C59.377 130.959 59.7261 131.052 60.0288 131.238C60.3315 131.423 60.5684 131.704 60.7393 132.08C60.915 132.451 61.0029 132.92 61.0029 133.486V134.124L61.7646 133.069H56.125V134.204H62.5557V133.647C62.5557 132.847 62.4116 132.148 62.1235 131.553C61.8354 130.952 61.4229 130.486 60.8857 130.154C60.3535 129.822 59.7163 129.656 58.9741 129.656C58.2368 129.656 57.5923 129.829 57.0405 130.176C56.4937 130.522 56.0688 131.006 55.7661 131.626C55.4683 132.246 55.3193 132.971 55.3193 133.801V133.809C55.3193 134.648 55.4683 135.376 55.7661 135.991C56.0688 136.606 56.4985 137.083 57.0552 137.419C57.6118 137.751 58.2783 137.917 59.0547 137.917ZM64.5845 137.764H68.2246C68.8057 137.764 69.3037 137.668 69.7188 137.478C70.1387 137.288 70.4585 137.024 70.6782 136.687C70.9028 136.345 71.0151 135.947 71.0151 135.493V135.479C71.0151 135.161 70.9443 134.875 70.8027 134.622C70.666 134.368 70.4707 134.16 70.2168 133.999C69.9629 133.833 69.6626 133.728 69.3159 133.684V133.567C69.7065 133.489 70.0288 133.289 70.2827 132.966C70.5366 132.639 70.6636 132.273 70.6636 131.868V131.853C70.6636 131.233 70.4463 130.737 70.0117 130.366C69.5771 129.995 68.9692 129.81 68.188 129.81H64.5845V137.764ZM66.1665 136.592V134.285H67.8145C68.3418 134.285 68.7349 134.377 68.9937 134.563C69.2573 134.749 69.3892 135.034 69.3892 135.42V135.435C69.3892 135.801 69.2744 136.086 69.0449 136.292C68.8154 136.492 68.4712 136.592 68.0122 136.592H66.1665ZM66.1665 133.135V130.981H67.8584C68.2832 130.981 68.5933 131.079 68.7886 131.274C68.9888 131.47 69.0889 131.726 69.0889 132.043V132.058C69.0889 132.405 68.9741 132.671 68.7446 132.856C68.5151 133.042 68.1636 133.135 67.6899 133.135H66.1665ZM76.3838 137.917C77.165 137.917 77.834 137.751 78.3906 137.419C78.9521 137.087 79.3843 136.614 79.687 135.999C79.9946 135.378 80.1484 134.644 80.1484 133.794V133.779C80.1484 132.925 79.9946 132.19 79.687 131.575C79.3843 130.955 78.9521 130.481 78.3906 130.154C77.8291 129.822 77.1602 129.656 76.3838 129.656C75.6123 129.656 74.9434 129.822 74.377 130.154C73.8154 130.486 73.3809 130.959 73.0732 131.575C72.7705 132.19 72.6191 132.925 72.6191 133.779V133.794C72.6191 134.644 72.7705 135.378 73.0732 135.999C73.376 136.614 73.8081 137.087 74.3696 137.419C74.936 137.751 75.6074 137.917 76.3838 137.917ZM76.3838 136.584C75.9297 136.584 75.5439 136.475 75.2266 136.255C74.9092 136.03 74.665 135.71 74.4941 135.295C74.3281 134.88 74.2451 134.38 74.2451 133.794V133.779C74.2451 133.188 74.3281 132.686 74.4941 132.271C74.665 131.855 74.9092 131.538 75.2266 131.318C75.5439 131.094 75.9297 130.981 76.3838 130.981C76.8379 130.981 77.2236 131.094 77.541 131.318C77.8584 131.538 78.1001 131.855 78.2661 132.271C78.4321 132.686 78.5151 133.188 78.5151 133.779V133.794C78.5151 134.38 78.4321 134.88 78.2661 135.295C78.1001 135.71 77.8584 136.03 77.541 136.255C77.2236 136.475 76.8379 136.584 76.3838 136.584ZM82.8584 137.764L85.4585 134.226H85.9272V137.764H87.4653V134.226H87.9341L90.5342 137.764H92.4531L89.1938 133.508L92.2847 129.81H90.4609L87.9268 133.083H87.4653V129.81H85.9272V133.083H85.4658L82.9316 129.81H81.0859L84.1987 133.53L80.9614 137.764H82.8584ZM99.2207 137.764H100.817V129.81H99.2207V133.018H95.6245V129.81H94.0278V137.764H95.6245V134.277H99.2207V137.764ZM106.618 137.917C107.399 137.917 108.068 137.751 108.625 137.419C109.187 137.087 109.619 136.614 109.921 135.999C110.229 135.378 110.383 134.644 110.383 133.794V133.779C110.383 132.925 110.229 132.19 109.921 131.575C109.619 130.955 109.187 130.481 108.625 130.154C108.063 129.822 107.395 129.656 106.618 129.656C105.847 129.656 105.178 129.822 104.611 130.154C104.05 130.486 103.615 130.959 103.308 131.575C103.005 132.19 102.854 132.925 102.854 133.779V133.794C102.854 134.644 103.005 135.378 103.308 135.999C103.61 136.614 104.042 137.087 104.604 137.419C105.17 137.751 105.842 137.917 106.618 137.917ZM106.618 136.584C106.164 136.584 105.778 136.475 105.461 136.255C105.144 136.03 104.899 135.71 104.729 135.295C104.562 134.88 104.479 134.38 104.479 133.794V133.779C104.479 133.188 104.562 132.686 104.729 132.271C104.899 131.855 105.144 131.538 105.461 131.318C105.778 131.094 106.164 130.981 106.618 130.981C107.072 130.981 107.458 131.094 107.775 131.318C108.093 131.538 108.334 131.855 108.5 132.271C108.667 132.686 108.75 133.188 108.75 133.779V133.794C108.75 134.38 108.667 134.88 108.5 135.295C108.334 135.71 108.093 136.03 107.775 136.255C107.458 136.475 107.072 136.584 106.618 136.584ZM115.766 137.917C116.425 137.917 116.989 137.808 117.458 137.588C117.932 137.363 118.31 137.056 118.593 136.665C118.876 136.274 119.064 135.82 119.157 135.303L119.172 135.237L117.648 135.244L117.634 135.281C117.507 135.71 117.287 136.035 116.975 136.255C116.667 136.475 116.264 136.584 115.766 136.584C115.332 136.584 114.956 136.472 114.638 136.248C114.321 136.018 114.077 135.693 113.906 135.273C113.735 134.854 113.649 134.351 113.649 133.765V133.75C113.649 133.179 113.732 132.686 113.898 132.271C114.069 131.855 114.313 131.538 114.631 131.318C114.948 131.094 115.327 130.981 115.766 130.981C116.293 130.981 116.716 131.113 117.033 131.377C117.351 131.636 117.553 131.96 117.641 132.351L117.648 132.366H119.179L119.172 132.329C119.099 131.816 118.918 131.36 118.63 130.959C118.347 130.554 117.963 130.237 117.48 130.007C117.001 129.773 116.428 129.656 115.759 129.656C114.987 129.656 114.321 129.822 113.759 130.154C113.203 130.486 112.773 130.957 112.47 131.567C112.172 132.178 112.023 132.905 112.023 133.75V133.765C112.023 134.624 112.175 135.364 112.478 135.984C112.78 136.604 113.21 137.083 113.767 137.419C114.328 137.751 114.995 137.917 115.766 137.917ZM126.723 129.81H120.124V131.069H122.629V137.764H124.218V131.069H126.723V129.81ZM128.496 137.764H131.652C132.575 137.764 133.31 137.517 133.857 137.024C134.404 136.526 134.677 135.859 134.677 135.024V135.01C134.677 134.175 134.404 133.511 133.857 133.018C133.31 132.52 132.575 132.271 131.652 132.271H130.092V129.81H128.496V137.764ZM131.521 133.53C131.994 133.53 132.37 133.665 132.648 133.933C132.932 134.202 133.073 134.561 133.073 135.01V135.024C133.073 135.469 132.934 135.828 132.656 136.101C132.377 136.37 131.999 136.504 131.521 136.504H130.092V133.53H131.521Z" fill="black"/>
<rect x="18.3564" y="114.621" width="135.429" height="36.2857" rx="18.1429" stroke="#EDE9E9"/>
<rect x="158.441" y="114.119" width="122.429" height="37.2857" rx="18.6429" fill="#FCFCFC"/>
<path d="M177.528 134.231H185.46V132.774H177.528V134.231ZM180.765 137.483H182.223V129.522H180.765V137.483ZM192.228 139.849V137.762H199.793V139.849H201.302V136.341H199.984V127.193H192.975L192.586 133.594C192.562 134.063 192.511 134.476 192.433 134.832C192.354 135.188 192.24 135.494 192.088 135.748C191.942 135.997 191.742 136.194 191.488 136.341H190.719V139.849H192.228ZM194.117 133.675L194.439 128.614H198.336V136.341H193.399V136.238C193.565 136.038 193.695 135.816 193.788 135.572C193.885 135.328 193.958 135.049 194.007 134.737C194.056 134.419 194.093 134.065 194.117 133.675ZM206.407 137.916C207.188 137.916 207.857 137.75 208.414 137.417C208.976 137.085 209.408 136.612 209.71 135.997C210.018 135.376 210.172 134.642 210.172 133.792V133.777C210.172 132.923 210.018 132.188 209.71 131.573C209.408 130.953 208.976 130.479 208.414 130.152C207.853 129.82 207.184 129.654 206.407 129.654C205.636 129.654 204.967 129.82 204.4 130.152C203.839 130.484 203.404 130.958 203.097 131.573C202.794 132.188 202.643 132.923 202.643 133.777V133.792C202.643 134.642 202.794 135.376 203.097 135.997C203.399 136.612 203.832 137.085 204.393 137.417C204.959 137.75 205.631 137.916 206.407 137.916ZM206.407 136.583C205.953 136.583 205.567 136.473 205.25 136.253C204.933 136.028 204.688 135.708 204.518 135.293C204.352 134.878 204.269 134.378 204.269 133.792V133.777C204.269 133.187 204.352 132.684 204.518 132.269C204.688 131.854 204.933 131.536 205.25 131.316C205.567 131.092 205.953 130.979 206.407 130.979C206.861 130.979 207.247 131.092 207.564 131.316C207.882 131.536 208.124 131.854 208.29 132.269C208.456 132.684 208.539 133.187 208.539 133.777V133.792C208.539 134.378 208.456 134.878 208.29 135.293C208.124 135.708 207.882 136.028 207.564 136.253C207.247 136.473 206.861 136.583 206.407 136.583ZM215.636 137.916C216.417 137.916 217.091 137.75 217.657 137.417C218.224 137.085 218.658 136.612 218.961 135.997C219.264 135.381 219.415 134.651 219.415 133.807V133.792C219.415 133.006 219.271 132.325 218.983 131.749C218.695 131.167 218.29 130.718 217.767 130.401C217.245 130.083 216.627 129.925 215.914 129.925C215.304 129.925 214.769 130.052 214.31 130.306C213.856 130.555 213.497 130.918 213.233 131.397H213.109L213.131 131.243C213.224 130.555 213.38 129.998 213.6 129.573C213.824 129.144 214.134 128.826 214.53 128.621C214.925 128.411 215.426 128.294 216.031 128.27L216.903 128.233C217.342 128.213 217.75 128.165 218.126 128.086C218.502 128.008 218.758 127.916 218.895 127.808V126.482C218.568 126.604 218.221 126.697 217.855 126.761C217.489 126.824 217.142 126.863 216.815 126.878L215.936 126.915C214.974 126.954 214.19 127.193 213.585 127.632C212.984 128.072 212.54 128.738 212.252 129.632C211.969 130.525 211.827 131.668 211.827 133.06V133.074C211.827 134.656 212.149 135.86 212.794 136.685C213.443 137.505 214.391 137.916 215.636 137.916ZM215.621 136.59C215.162 136.59 214.769 136.48 214.442 136.26C214.12 136.041 213.873 135.726 213.702 135.315C213.531 134.9 213.446 134.405 213.446 133.829V133.814C213.446 133.262 213.531 132.796 213.702 132.415C213.873 132.029 214.12 131.734 214.442 131.529C214.769 131.324 215.162 131.221 215.621 131.221C216.08 131.221 216.471 131.324 216.793 131.529C217.12 131.734 217.367 132.029 217.533 132.415C217.704 132.796 217.789 133.262 217.789 133.814V133.829C217.789 134.405 217.704 134.9 217.533 135.315C217.367 135.726 217.12 136.041 216.793 136.26C216.471 136.48 216.08 136.59 215.621 136.59ZM223.648 137.894C224 137.894 224.325 137.845 224.623 137.747C224.92 137.649 225.187 137.508 225.421 137.322C225.655 137.132 225.851 136.902 226.007 136.634H226.124V137.762H227.706V132.32C227.706 131.763 227.584 131.287 227.34 130.892C227.101 130.491 226.747 130.186 226.278 129.976C225.814 129.761 225.248 129.654 224.579 129.654C223.978 129.654 223.443 129.744 222.975 129.925C222.511 130.105 222.135 130.359 221.847 130.687C221.563 131.009 221.39 131.39 221.327 131.829L221.319 131.88H222.85L222.865 131.858C222.958 131.575 223.143 131.355 223.421 131.199C223.705 131.043 224.068 130.965 224.513 130.965C225.045 130.965 225.445 131.082 225.714 131.316C225.987 131.546 226.124 131.88 226.124 132.32V134.825C226.124 135.167 226.036 135.474 225.86 135.748C225.685 136.016 225.44 136.231 225.128 136.392C224.82 136.548 224.469 136.626 224.073 136.626C223.648 136.626 223.297 136.524 223.019 136.319C222.74 136.109 222.601 135.823 222.601 135.462V135.447C222.601 135.091 222.73 134.815 222.989 134.62C223.248 134.419 223.651 134.302 224.198 134.268L226.915 134.092V132.972L223.978 133.147C223.031 133.206 222.298 133.438 221.781 133.843C221.268 134.244 221.012 134.8 221.012 135.513V135.528C221.012 136.006 221.126 136.424 221.356 136.78C221.585 137.137 221.898 137.413 222.293 137.608C222.694 137.798 223.146 137.894 223.648 137.894ZM230.086 137.762H233.727C234.601 137.762 235.284 137.554 235.777 137.139C236.271 136.719 236.517 136.17 236.517 135.491V135.477C236.517 135.159 236.446 134.874 236.305 134.62C236.168 134.366 235.973 134.158 235.719 133.997C235.465 133.831 235.165 133.726 234.818 133.682V133.565C235.208 133.487 235.531 133.287 235.785 132.964C236.039 132.637 236.166 132.271 236.166 131.866V131.851C236.166 131.231 235.948 130.735 235.514 130.364C235.079 129.993 234.471 129.808 233.69 129.808H230.086V137.762ZM231.668 136.59V134.283H233.316C233.844 134.283 234.237 134.375 234.496 134.561C234.759 134.747 234.891 135.032 234.891 135.418V135.433C234.891 135.799 234.776 136.084 234.547 136.29C234.317 136.49 233.973 136.59 233.514 136.59H231.668ZM231.668 133.133V130.979H233.36C233.785 130.979 234.095 131.077 234.291 131.272C234.491 131.468 234.591 131.724 234.591 132.042V132.056C234.591 132.403 234.476 132.669 234.247 132.854C234.017 133.04 233.666 133.133 233.192 133.133H231.668ZM238.597 137.762H240.179L244.156 131.551L243.08 132.159H243.907V137.762H245.489V129.808H243.907L239.93 135.989L241.007 135.389H240.179V129.808H238.597V137.762ZM253.861 129.808H247.262V131.067H249.767V137.762H251.356V131.067H253.861V129.808ZM255.633 137.762H258.79C259.713 137.762 260.448 137.515 260.995 137.022C261.542 136.524 261.815 135.857 261.815 135.022V135.008C261.815 134.173 261.542 133.509 260.995 133.016C260.448 132.518 259.713 132.269 258.79 132.269H257.23V129.808H255.633V137.762ZM258.658 133.528C259.132 133.528 259.508 133.663 259.786 133.931C260.069 134.2 260.211 134.559 260.211 135.008V135.022C260.211 135.467 260.072 135.826 259.793 136.099C259.515 136.368 259.137 136.502 258.658 136.502H257.23V133.528H258.658Z" fill="#787878"/>
<rect x="158.941" y="114.619" width="121.429" height="36.2857" rx="18.1429" stroke="#ACACAC" stroke-opacity="0.36" stroke-dasharray="5 5"/>
</g>
<defs>
<filter id="filter0_d_840_21706" x="0.857422" y="0.734375" width="388" height="176" filterUnits="userSpaceOnUse" color-interpolation-filters="sRGB">
<feFlood flood-opacity="0" result="BackgroundImageFix"/>
<feColorMatrix in="SourceAlpha" type="matrix" values="0 0 0 0 0 0 0 0 0 0 0 0 0 0 0 0 0 0 127 0" result="hardAlpha"/>
<feOffset dy="4"/>
<feGaussianBlur stdDeviation="2"/>
<feComposite in2="hardAlpha" operator="out"/>
<feColorMatrix type="matrix" values="0 0 0 0 0 0 0 0 0 0 0 0 0 0 0 0 0 0 0.25 0"/>
<feBlend mode="normal" in2="BackgroundImageFix" result="effect1_dropShadow_840_21706"/>
<feBlend mode="normal" in="SourceGraphic" in2="effect1_dropShadow_840_21706" result="shape"/>
</filter>
</defs>
</svg>
