<svg width="401" height="189" viewBox="0 0 401 189" fill="none" xmlns="http://www.w3.org/2000/svg">
<g filter="url(#filter0_d_840_21766)">
<g filter="url(#filter1_d_840_21766)">
<rect x="10.7275" y="10.8145" width="380" height="168" rx="18" fill="white"/>
</g>
<circle cx="359.228" cy="42.3145" r="18.5" fill="#444444"/>
<circle cx="314.228" cy="42.3145" r="18" fill="white" stroke="#EAEAEA"/>
<path d="M309.217 43.3335H319.227V41.4966H309.217V43.3335ZM313.299 47.4155H315.145V37.4146H313.299V47.4155Z" fill="#444444"/>
<path d="M353.369 48.1706H354.518L361.597 41.0816L360.448 39.9309L353.369 47.0199V48.1706ZM365.106 39.8898L361.618 36.4377L362.767 35.2871C363.081 34.972 363.468 34.8145 363.926 34.8145C364.384 34.8145 364.771 34.972 365.085 35.2871L366.234 36.4377C366.549 36.7528 366.713 37.1331 366.727 37.5786C366.74 38.0235 366.59 38.4035 366.275 38.7186L365.106 39.8898ZM363.916 41.1021L355.216 49.8145H351.728V46.3213L360.427 37.609L363.916 41.1021ZM361.022 40.5062L360.448 39.9309L361.597 41.0816L361.022 40.5062Z" fill="white"/>
<path d="M37.623 49.6895V36.3022H26.4346V49.6895H28.8188V38.3154H35.2388V49.6895H37.623ZM40.7866 53.0479H43.0967V48.0752H43.2451C43.4245 48.4401 43.6657 48.7555 43.9688 49.0215C44.2718 49.2874 44.6243 49.4946 45.0264 49.6431C45.4284 49.7853 45.8613 49.8564 46.3252 49.8564C47.1787 49.8564 47.9147 49.6462 48.5332 49.2256C49.1579 48.805 49.6372 48.2051 49.9712 47.4258C50.3114 46.6465 50.4814 45.7188 50.4814 44.6426V44.624C50.4814 43.554 50.3114 42.6325 49.9712 41.8594C49.631 41.0801 49.1486 40.4771 48.5239 40.0503C47.9054 39.6235 47.1725 39.4102 46.3252 39.4102C45.849 39.4102 45.4129 39.4813 45.0171 39.6235C44.6213 39.7658 44.2718 39.9668 43.9688 40.2266C43.6719 40.4863 43.4307 40.8049 43.2451 41.1821H43.0967V39.5771H40.7866V53.0479ZM45.6016 47.9175C45.0882 47.9175 44.6398 47.7845 44.2563 47.5186C43.8791 47.2526 43.5853 46.8753 43.375 46.3867C43.1709 45.8981 43.0688 45.3167 43.0688 44.6426V44.624C43.0688 43.9437 43.1709 43.3623 43.375 42.8799C43.5791 42.3913 43.8729 42.0171 44.2563 41.7573C44.6398 41.4914 45.0882 41.3584 45.6016 41.3584C46.1273 41.3584 46.5788 41.4883 46.9561 41.748C47.3333 42.0078 47.6209 42.382 47.8188 42.8706C48.0229 43.3592 48.125 43.9437 48.125 44.624V44.6426C48.125 45.3167 48.0229 45.9012 47.8188 46.396C47.6209 46.8846 47.3333 47.2619 46.9561 47.5278C46.5788 47.7876 46.1273 47.9175 45.6016 47.9175ZM57.3003 49.8936C58.3084 49.8936 59.1743 49.6833 59.8979 49.2627C60.6278 48.8421 61.1875 48.2391 61.5771 47.4536C61.973 46.6681 62.1709 45.7311 62.1709 44.6426V44.624C62.1709 43.5355 61.973 42.6016 61.5771 41.8223C61.1813 41.0368 60.6185 40.4338 59.8887 40.0132C59.165 39.5926 58.3022 39.3823 57.3003 39.3823C56.2983 39.3823 55.4325 39.5926 54.7026 40.0132C53.979 40.4338 53.4193 41.0368 53.0234 41.8223C52.6276 42.6016 52.4297 43.5355 52.4297 44.624V44.6426C52.4297 45.7311 52.6245 46.6681 53.0142 47.4536C53.41 48.2391 53.9697 48.8421 54.6934 49.2627C55.4232 49.6833 56.2922 49.8936 57.3003 49.8936ZM57.3003 48.0195C56.7684 48.0195 56.3138 47.8866 55.9365 47.6206C55.5654 47.3547 55.2809 46.9712 55.083 46.4702C54.8851 45.9631 54.7861 45.3538 54.7861 44.6426V44.624C54.7861 43.9128 54.8851 43.3066 55.083 42.8057C55.2871 42.3047 55.5747 41.9212 55.9458 41.6553C56.3169 41.3831 56.7684 41.2471 57.3003 41.2471C57.8322 41.2471 58.2837 41.3831 58.6548 41.6553C59.0259 41.9212 59.3104 42.3047 59.5083 42.8057C59.7062 43.3066 59.8052 43.9128 59.8052 44.624V44.6426C59.8052 45.3538 59.7062 45.9631 59.5083 46.4702C59.3104 46.9712 59.0259 47.3547 58.6548 47.6206C58.2837 47.8866 57.8322 48.0195 57.3003 48.0195ZM69.0732 49.8936C70.0814 49.8936 70.9473 49.6833 71.6709 49.2627C72.4007 48.8359 72.9604 48.2298 73.3501 47.4443C73.7459 46.6589 73.9438 45.7342 73.9438 44.6704V44.6519C73.9438 43.6623 73.7614 42.8057 73.3965 42.082C73.0316 41.3522 72.5151 40.7894 71.8472 40.3936C71.1854 39.9915 70.403 39.7905 69.5 39.7905C68.7145 39.7905 68.0311 39.9513 67.4497 40.2729C66.8745 40.5946 66.423 41.0584 66.0952 41.6646H65.9468L65.9746 41.4883C66.0859 40.641 66.2808 39.9544 66.5591 39.4287C66.8374 38.8968 67.2271 38.5041 67.728 38.2505C68.229 37.9907 68.863 37.8454 69.6299 37.8145L70.771 37.7773C71.3215 37.7526 71.8317 37.6938 72.3018 37.6011C72.7718 37.5083 73.0996 37.4001 73.2852 37.2764V35.4116C72.8955 35.5539 72.4626 35.6652 71.9863 35.7456C71.5163 35.8198 71.0679 35.8631 70.6411 35.8755L69.4629 35.9219C68.2259 35.9714 67.2147 36.2775 66.4292 36.8403C65.6437 37.4032 65.0623 38.2536 64.6851 39.3916C64.314 40.5234 64.1284 41.9738 64.1284 43.7427V43.7612C64.1284 45.7528 64.549 47.2743 65.3901 48.3257C66.2375 49.3709 67.4652 49.8936 69.0732 49.8936ZM69.0361 48.0288C68.498 48.0288 68.0373 47.8958 67.6538 47.6299C67.2765 47.3639 66.9858 46.9836 66.7817 46.4888C66.5838 45.994 66.4849 45.4033 66.4849 44.7168V44.6982C66.4849 44.0426 66.5838 43.486 66.7817 43.0283C66.9858 42.5645 67.2765 42.2119 67.6538 41.9707C68.0373 41.7233 68.498 41.5996 69.0361 41.5996C69.5742 41.5996 70.0319 41.7233 70.4092 41.9707C70.7926 42.2119 71.0833 42.5645 71.2812 43.0283C71.4854 43.486 71.5874 44.0426 71.5874 44.6982V44.7168C71.5874 45.4033 71.4884 45.994 71.2905 46.4888C71.0926 46.9836 70.8019 47.3639 70.4185 47.6299C70.0412 47.8958 69.5804 48.0288 69.0361 48.0288ZM79.269 45.292L79.5566 41.3677H82.5347V49.6895H84.8447V39.5771H77.5527L77.2002 45.1157C77.1755 45.6105 77.1167 46.0589 77.0239 46.4609C76.9312 46.8568 76.792 47.1722 76.6064 47.4072C76.4209 47.6361 76.1704 47.7505 75.855 47.7505C75.7251 47.7505 75.6045 47.7443 75.4932 47.7319C75.3818 47.7134 75.3014 47.6979 75.252 47.6855V49.6709C75.3262 49.6956 75.4375 49.7204 75.5859 49.7451C75.7344 49.7699 75.9106 49.7822 76.1147 49.7822C76.8136 49.7822 77.3826 49.6121 77.8218 49.272C78.2671 48.9256 78.6042 48.4185 78.833 47.7505C79.0618 47.0825 79.2072 46.263 79.269 45.292ZM92.1089 49.8936C92.7892 49.8936 93.3892 49.807 93.9087 49.6338C94.4282 49.4544 94.8674 49.2225 95.2261 48.938C95.591 48.6473 95.8786 48.3319 96.0889 47.9917C96.3053 47.6515 96.4538 47.3175 96.5342 46.9897L96.5527 46.897H94.3726L94.3354 46.9712C94.2674 47.1258 94.1375 47.2897 93.9458 47.4629C93.7603 47.6361 93.519 47.7845 93.2222 47.9082C92.9253 48.0257 92.5697 48.0845 92.1553 48.0845C91.6296 48.0845 91.1719 47.967 90.7822 47.7319C90.3988 47.4969 90.1019 47.1598 89.8916 46.7207C89.6813 46.2754 89.5762 45.7404 89.5762 45.1157V44.1973C89.5762 43.5479 89.6813 43.0005 89.8916 42.5552C90.1081 42.1037 90.3988 41.7635 90.7637 41.5347C91.1348 41.3058 91.5553 41.1914 92.0254 41.1914C92.5016 41.1914 92.9191 41.3027 93.2778 41.5254C93.6366 41.748 93.918 42.082 94.1221 42.5273C94.3262 42.9665 94.4282 43.5231 94.4282 44.1973V45.1157L95.5322 43.6685H88.4351V45.2085H96.6548V44.4478C96.6548 43.4334 96.4661 42.5459 96.0889 41.7852C95.7178 41.0244 95.1828 40.4338 94.4839 40.0132C93.7912 39.5926 92.9624 39.3823 91.9976 39.3823C91.0451 39.3823 90.2132 39.6019 89.502 40.041C88.7907 40.474 88.2402 41.0863 87.8506 41.8779C87.4671 42.6634 87.2754 43.5881 87.2754 44.6519V44.6611C87.2754 45.7311 87.4702 46.6589 87.8599 47.4443C88.2495 48.2236 88.8031 48.8267 89.5205 49.2534C90.2441 49.6802 91.1069 49.8936 92.1089 49.8936ZM101.293 49.6895V42.7871H101.451L104.234 49.2349H105.886L108.678 42.7871H108.836V49.6895H111.044V39.5771H108.168L105.162 46.6279H105.014L102.026 39.5771H99.0854V49.6895H101.293ZM113.966 49.6895H118.262C119.443 49.6895 120.383 49.3709 121.082 48.7339C121.781 48.0968 122.13 47.2433 122.13 46.1733V46.1548C122.13 45.0786 121.781 44.222 121.082 43.585C120.383 42.9479 119.443 42.6294 118.262 42.6294H116.267V39.5771H113.966V49.6895ZM117.956 44.4106C118.518 44.4106 118.967 44.5684 119.301 44.8838C119.635 45.1992 119.802 45.6198 119.802 46.1455V46.1641C119.802 46.6836 119.635 47.1042 119.301 47.4258C118.973 47.7474 118.525 47.9082 117.956 47.9082H116.267V44.4106H117.956ZM123.745 49.6895H126.055V39.5771H123.745V49.6895Z" fill="#363636"/>
<rect x="24.2633" y="77.3502" width="119.357" height="36.2143" rx="18.1071" fill="white"/>
<path d="M44.1616 100.457H47.6919C48.4438 100.457 49.0884 100.337 49.6255 100.098C50.1626 99.8589 50.5752 99.5171 50.8633 99.0728C51.1562 98.6235 51.3027 98.0913 51.3027 97.4761V97.4614C51.3027 97.0024 51.2026 96.5923 51.0024 96.231C50.8022 95.8647 50.5239 95.5669 50.1675 95.3374C49.811 95.1079 49.3936 94.9688 48.915 94.9199V94.7954C49.2666 94.7368 49.5815 94.5977 49.8599 94.3779C50.1382 94.1582 50.3604 93.8896 50.5264 93.5723C50.6924 93.25 50.7754 92.9033 50.7754 92.5322V92.5176C50.7754 91.9805 50.6484 91.5166 50.3945 91.126C50.1406 90.7305 49.7744 90.4253 49.2959 90.2104C48.8223 89.9956 48.2559 89.8882 47.5967 89.8882H44.1616V91.2285H47.2085C47.8188 91.2285 48.2925 91.3677 48.6294 91.646C48.9663 91.9194 49.1348 92.3052 49.1348 92.8032V92.8179C49.1348 93.3306 48.9492 93.7212 48.5781 93.9897C48.207 94.2534 47.6577 94.3853 46.9302 94.3853H44.1616V95.6377H47.2598C47.7773 95.6377 48.2095 95.7036 48.5562 95.8354C48.9077 95.9624 49.1714 96.1528 49.3472 96.4067C49.5229 96.6606 49.6108 96.978 49.6108 97.3589V97.3735C49.6108 97.9399 49.4204 98.3721 49.0396 98.6699C48.6587 98.9678 48.0972 99.1167 47.355 99.1167H44.1616V100.457ZM43.3413 100.457H44.9819V89.8882H43.3413V100.457ZM53.3608 100.457H56.5176C57.4404 100.457 58.1753 100.21 58.7222 99.7173C59.269 99.2192 59.5425 98.5527 59.5425 97.7178V97.7031C59.5425 96.8682 59.269 96.2041 58.7222 95.7109C58.1753 95.2129 57.4404 94.9639 56.5176 94.9639H54.9575V92.5029H53.3608V100.457ZM56.3857 96.2236C56.8594 96.2236 57.2354 96.3579 57.5137 96.6265C57.7969 96.895 57.9385 97.2539 57.9385 97.7031V97.7178C57.9385 98.1621 57.7993 98.521 57.521 98.7944C57.2427 99.063 56.8643 99.1973 56.3857 99.1973H54.9575V96.2236H56.3857ZM60.8828 100.457H62.4722V92.5029H60.8828V100.457ZM70.1406 93.7554V92.5029H64.8892V100.457H66.4858V93.7554H70.1406ZM75.1504 100.611C75.9316 100.611 76.6006 100.445 77.1572 100.113C77.7188 99.7808 78.1509 99.3071 78.4536 98.6919C78.7612 98.0718 78.915 97.3369 78.915 96.4873V96.4727C78.915 95.6182 78.7612 94.8833 78.4536 94.2681C78.1509 93.6479 77.7188 93.1743 77.1572 92.8472C76.5957 92.5151 75.9268 92.3491 75.1504 92.3491C74.3789 92.3491 73.71 92.5151 73.1436 92.8472C72.582 93.1792 72.1475 93.6528 71.8398 94.2681C71.5371 94.8833 71.3857 95.6182 71.3857 96.4727V96.4873C71.3857 97.3369 71.5371 98.0718 71.8398 98.6919C72.1426 99.3071 72.5747 99.7808 73.1362 100.113C73.7026 100.445 74.374 100.611 75.1504 100.611ZM75.1504 99.2778C74.6963 99.2778 74.3105 99.168 73.9932 98.9482C73.6758 98.7236 73.4316 98.4038 73.2607 97.9888C73.0947 97.5737 73.0117 97.0732 73.0117 96.4873V96.4727C73.0117 95.8818 73.0947 95.3789 73.2607 94.9639C73.4316 94.5488 73.6758 94.2314 73.9932 94.0117C74.3105 93.7871 74.6963 93.6748 75.1504 93.6748C75.6045 93.6748 75.9902 93.7871 76.3076 94.0117C76.625 94.2314 76.8667 94.5488 77.0327 94.9639C77.1987 95.3789 77.2817 95.8818 77.2817 96.4727V96.4873C77.2817 97.0732 77.1987 97.5737 77.0327 97.9888C76.8667 98.4038 76.625 98.7236 76.3076 98.9482C75.9902 99.168 75.6045 99.2778 75.1504 99.2778ZM80.9512 103.108H82.5405V99.1973H82.665C82.8066 99.4854 82.9995 99.7319 83.2437 99.937C83.4878 100.142 83.7686 100.303 84.0859 100.42C84.4033 100.533 84.7451 100.589 85.1113 100.589C85.7852 100.589 86.3687 100.423 86.8618 100.091C87.355 99.7539 87.7358 99.2803 88.0044 98.6699C88.2729 98.0547 88.4072 97.3271 88.4072 96.4873V96.4727C88.4072 95.6377 88.2705 94.915 87.9971 94.3047C87.7285 93.6895 87.3477 93.2134 86.8545 92.8765C86.3613 92.5347 85.7803 92.3638 85.1113 92.3638C84.7402 92.3638 84.3984 92.4199 84.0859 92.5322C83.7734 92.6445 83.4951 92.8032 83.251 93.0083C83.0117 93.2134 82.8164 93.4624 82.665 93.7554H82.5405V92.5029H80.9512V103.108ZM84.6572 99.2266C84.2178 99.2266 83.8369 99.1167 83.5146 98.897C83.1924 98.6724 82.9458 98.355 82.7749 97.9448C82.604 97.5347 82.5186 97.0488 82.5186 96.4873V96.4727C82.5186 95.9014 82.604 95.4131 82.7749 95.0078C82.9458 94.5977 83.1924 94.2827 83.5146 94.063C83.8369 93.8384 84.2178 93.7261 84.6572 93.7261C85.1016 93.7261 85.4824 93.8359 85.7998 94.0557C86.1172 94.2754 86.3589 94.5903 86.5249 95.0005C86.6958 95.4106 86.7812 95.9014 86.7812 96.4727V96.4873C86.7812 97.0537 86.6958 97.542 86.5249 97.9521C86.3589 98.3623 86.1172 98.6772 85.7998 98.897C85.4824 99.1167 85.1016 99.2266 84.6572 99.2266ZM92.6406 100.589C92.9922 100.589 93.3169 100.54 93.6147 100.442C93.9126 100.345 94.1787 100.203 94.4131 100.018C94.6475 99.8271 94.8428 99.5977 94.999 99.3291H95.1162V100.457H96.6982V95.0151C96.6982 94.4585 96.5762 93.9824 96.332 93.5869C96.0928 93.1865 95.7388 92.8813 95.27 92.6714C94.8062 92.4565 94.2397 92.3491 93.5708 92.3491C92.9702 92.3491 92.4355 92.4395 91.9668 92.6201C91.5029 92.8008 91.127 93.0547 90.8389 93.3818C90.5557 93.7041 90.3823 94.085 90.3188 94.5244L90.3115 94.5757H91.8423L91.8569 94.5537C91.9497 94.2705 92.1353 94.0508 92.4136 93.8945C92.6968 93.7383 93.0605 93.6602 93.5049 93.6602C94.0371 93.6602 94.4375 93.7773 94.7061 94.0117C94.9795 94.2412 95.1162 94.5757 95.1162 95.0151V97.52C95.1162 97.8618 95.0283 98.1694 94.8525 98.4429C94.6768 98.7114 94.4326 98.9263 94.1201 99.0874C93.8125 99.2437 93.4609 99.3218 93.0654 99.3218C92.6406 99.3218 92.2891 99.2192 92.0107 99.0142C91.7324 98.8042 91.5933 98.5186 91.5933 98.1572V98.1426C91.5933 97.7861 91.7227 97.5103 91.9814 97.3149C92.2402 97.1147 92.6431 96.9976 93.1899 96.9634L95.9072 96.7876V95.667L92.9702 95.8428C92.3403 95.8818 91.8032 95.999 91.3589 96.1943C90.9194 96.3848 90.5825 96.6484 90.3481 96.9854C90.1187 97.3223 90.0039 97.73 90.0039 98.2085V98.2231C90.0039 98.7017 90.1187 99.1191 90.3481 99.4756C90.5776 99.832 90.8901 100.108 91.2856 100.303C91.686 100.494 92.1377 100.589 92.6406 100.589ZM104.271 100.457H105.868V92.5029H104.271V95.7109H100.675V92.5029H99.0786V100.457H100.675V96.9707H104.271V100.457ZM108.292 100.457H109.875L113.852 94.2461L112.775 94.854H113.603V100.457H115.185V92.5029H113.603L109.625 98.6846L110.702 98.084H109.875V92.5029H108.292V100.457ZM120.956 100.611C121.469 100.611 121.92 100.545 122.311 100.413C122.707 100.281 123.043 100.108 123.322 99.8931C123.605 99.6782 123.832 99.4414 124.003 99.1826C124.174 98.9189 124.293 98.6553 124.362 98.3916L124.376 98.3257H122.838L122.809 98.3843C122.75 98.521 122.641 98.6602 122.479 98.8018C122.323 98.9434 122.121 99.063 121.872 99.1606C121.627 99.2534 121.334 99.2998 120.993 99.2998C120.548 99.2998 120.163 99.2021 119.835 99.0068C119.513 98.8115 119.264 98.5283 119.088 98.1572C118.913 97.7861 118.825 97.3394 118.825 96.8169V96.1797C118.825 95.6328 118.913 95.1714 119.088 94.7954C119.269 94.4194 119.513 94.1362 119.821 93.9458C120.133 93.7505 120.487 93.6528 120.883 93.6528C121.278 93.6528 121.627 93.7456 121.93 93.9312C122.233 94.1167 122.47 94.3975 122.641 94.7734C122.816 95.1445 122.904 95.6133 122.904 96.1797V96.8169L123.666 95.7622H118.026V96.8975H124.457V96.3408C124.457 95.54 124.313 94.8418 124.025 94.2461C123.737 93.6455 123.324 93.1792 122.787 92.8472C122.255 92.5151 121.618 92.3491 120.875 92.3491C120.138 92.3491 119.494 92.5225 118.942 92.8691C118.395 93.2158 117.97 93.6992 117.667 94.3193C117.37 94.9395 117.221 95.6646 117.221 96.4946V96.502C117.221 97.3418 117.37 98.0693 117.667 98.6846C117.97 99.2998 118.4 99.7759 118.957 100.113C119.513 100.445 120.18 100.611 120.956 100.611Z" fill="black"/>
<rect x="24.2633" y="77.3502" width="119.357" height="36.2143" rx="18.1071" stroke="#EDE9E9" stroke-width="1.07143"/>
<rect x="148.192" y="77.3502" width="94.3571" height="36.2143" rx="18.1071" fill="white"/>
<path d="M167.672 102.544V100.457H175.238V102.544H176.747V99.0361H175.428V89.8882H168.419L168.031 96.2896C168.006 96.7583 167.955 97.1709 167.877 97.5273C167.799 97.8838 167.684 98.189 167.533 98.4429C167.386 98.6919 167.186 98.8896 166.932 99.0361H166.163V102.544H167.672ZM169.562 96.3701L169.884 91.3091H173.78V99.0361H168.844V98.9336C169.01 98.7334 169.139 98.5112 169.232 98.2671C169.33 98.0229 169.403 97.7446 169.452 97.4321C169.5 97.1147 169.537 96.7607 169.562 96.3701ZM178.482 103.108H180.072V99.1973H180.196C180.338 99.4854 180.531 99.7319 180.775 99.937C181.019 100.142 181.3 100.303 181.617 100.42C181.935 100.533 182.276 100.589 182.643 100.589C183.316 100.589 183.9 100.423 184.393 100.091C184.886 99.7539 185.267 99.2803 185.536 98.6699C185.804 98.0547 185.938 97.3271 185.938 96.4873V96.4727C185.938 95.6377 185.802 94.915 185.528 94.3047C185.26 93.6895 184.879 93.2134 184.386 92.8765C183.893 92.5347 183.312 92.3638 182.643 92.3638C182.271 92.3638 181.93 92.4199 181.617 92.5322C181.305 92.6445 181.026 92.8032 180.782 93.0083C180.543 93.2134 180.348 93.4624 180.196 93.7554H180.072V92.5029H178.482V103.108ZM182.188 99.2266C181.749 99.2266 181.368 99.1167 181.046 98.897C180.724 98.6724 180.477 98.355 180.306 97.9448C180.135 97.5347 180.05 97.0488 180.05 96.4873V96.4727C180.05 95.9014 180.135 95.4131 180.306 95.0078C180.477 94.5977 180.724 94.2827 181.046 94.063C181.368 93.8384 181.749 93.7261 182.188 93.7261C182.633 93.7261 183.014 93.8359 183.331 94.0557C183.648 94.2754 183.89 94.5903 184.056 95.0005C184.227 95.4106 184.312 95.9014 184.312 96.4727V96.4873C184.312 97.0537 184.227 97.542 184.056 97.9521C183.89 98.3623 183.648 98.6772 183.331 98.897C183.014 99.1167 182.633 99.2266 182.188 99.2266ZM188.458 103.255C189 103.255 189.459 103.179 189.835 103.028C190.211 102.876 190.536 102.618 190.809 102.251C191.083 101.89 191.332 101.392 191.556 100.757L194.515 92.5029H192.838L190.597 99.6733L191.087 98.853H190.479L190.978 99.6733L188.729 92.5029H187.008L189.894 100.464L189.776 100.875C189.659 101.275 189.486 101.561 189.256 101.731C189.027 101.907 188.727 101.995 188.355 101.995C188.268 101.995 188.175 101.993 188.077 101.988C187.984 101.983 187.899 101.976 187.821 101.966V103.218C187.923 103.228 188.031 103.235 188.143 103.24C188.255 103.25 188.36 103.255 188.458 103.255ZM197.159 100.457L199.759 96.9194H200.228V100.457H201.766V96.9194H202.235L204.835 100.457H206.754L203.495 96.2017L206.585 92.5029H204.762L202.228 95.7769H201.766V92.5029H200.228V95.7769H199.767L197.232 92.5029H195.387L198.5 96.2236L195.262 100.457H197.159ZM211.515 100.611C212.296 100.611 212.97 100.445 213.536 100.113C214.103 99.7808 214.537 99.3071 214.84 98.6919C215.143 98.0767 215.294 97.3467 215.294 96.502V96.4873C215.294 95.7012 215.15 95.02 214.862 94.4438C214.574 93.8628 214.168 93.4136 213.646 93.0962C213.124 92.7788 212.506 92.6201 211.793 92.6201C211.388 92.6201 211.014 92.6763 210.672 92.7886C210.331 92.9009 210.028 93.0669 209.764 93.2866C209.505 93.5015 209.288 93.77 209.112 94.0923H208.988L209.01 93.9385C209.103 93.25 209.259 92.6934 209.479 92.2686C209.703 91.8389 210.013 91.5215 210.409 91.3164C210.804 91.1064 211.305 90.9893 211.91 90.9648L212.782 90.9282C213.221 90.9087 213.629 90.8599 214.005 90.7817C214.381 90.7036 214.637 90.6108 214.774 90.5034V89.1777C214.447 89.2998 214.1 89.3926 213.734 89.4561C213.368 89.5195 213.021 89.5586 212.694 89.5732L211.815 89.6099C211.097 89.6392 210.477 89.7808 209.955 90.0347C209.437 90.2886 209.012 90.6646 208.68 91.1626C208.348 91.6606 208.102 92.2905 207.94 93.0522C207.784 93.8091 207.706 94.71 207.706 95.7549V95.7695C207.706 96.8242 207.85 97.7104 208.138 98.4282C208.426 99.146 208.854 99.6904 209.42 100.062C209.986 100.428 210.685 100.611 211.515 100.611ZM211.5 99.2852C211.041 99.2852 210.648 99.1753 210.321 98.9556C209.999 98.7358 209.752 98.4209 209.581 98.0107C209.41 97.5957 209.325 97.1001 209.325 96.5239V96.5093C209.325 95.9575 209.41 95.4912 209.581 95.1104C209.752 94.7246 209.999 94.4292 210.321 94.2241C210.648 94.019 211.041 93.9165 211.5 93.9165C211.959 93.9165 212.35 94.019 212.672 94.2241C212.999 94.4292 213.246 94.7246 213.412 95.1104C213.583 95.4912 213.668 95.9575 213.668 96.5093V96.5239C213.668 97.1001 213.583 97.5957 213.412 98.0107C213.246 98.4209 212.999 98.7358 212.672 98.9556C212.35 99.1753 211.959 99.2852 211.5 99.2852ZM219.527 100.589C219.879 100.589 220.204 100.54 220.501 100.442C220.799 100.345 221.065 100.203 221.3 100.018C221.534 99.8271 221.729 99.5977 221.886 99.3291H222.003V100.457H223.585V95.0151C223.585 94.4585 223.463 93.9824 223.219 93.5869C222.979 93.1865 222.625 92.8813 222.157 92.6714C221.693 92.4565 221.126 92.3491 220.458 92.3491C219.857 92.3491 219.322 92.4395 218.854 92.6201C218.39 92.8008 218.014 93.0547 217.726 93.3818C217.442 93.7041 217.269 94.085 217.206 94.5244L217.198 94.5757H218.729L218.744 94.5537C218.836 94.2705 219.022 94.0508 219.3 93.8945C219.583 93.7383 219.947 93.6602 220.392 93.6602C220.924 93.6602 221.324 93.7773 221.593 94.0117C221.866 94.2412 222.003 94.5757 222.003 95.0151V97.52C222.003 97.8618 221.915 98.1694 221.739 98.4429C221.563 98.7114 221.319 98.9263 221.007 99.0874C220.699 99.2437 220.348 99.3218 219.952 99.3218C219.527 99.3218 219.176 99.2192 218.897 99.0142C218.619 98.8042 218.48 98.5186 218.48 98.1572V98.1426C218.48 97.7861 218.609 97.5103 218.868 97.3149C219.127 97.1147 219.53 96.9976 220.077 96.9634L222.794 96.7876V95.667L219.857 95.8428C219.227 95.8818 218.69 95.999 218.246 96.1943C217.806 96.3848 217.469 96.6484 217.235 96.9854C217.005 97.3223 216.891 97.73 216.891 98.2085V98.2231C216.891 98.7017 217.005 99.1191 217.235 99.4756C217.464 99.832 217.777 100.108 218.172 100.303C218.573 100.494 219.024 100.589 219.527 100.589Z" fill="black"/>
<rect x="148.192" y="77.3502" width="94.3571" height="36.2143" rx="18.1071" stroke="#EDE9E9" stroke-width="1.07143"/>
<rect x="247.121" y="77.3502" width="88.3571" height="36.2143" rx="18.1071" fill="white"/>
<path d="M267.018 96.8462H270.314C271.007 96.8462 271.615 96.7021 272.138 96.4141C272.665 96.1211 273.078 95.7134 273.375 95.1909C273.673 94.6636 273.822 94.0557 273.822 93.3672V93.3525C273.822 92.6641 273.673 92.061 273.375 91.5435C273.078 91.021 272.665 90.6157 272.138 90.3276C271.615 90.0347 271.007 89.8882 270.314 89.8882H267.018V91.2725H269.904C270.617 91.2725 271.168 91.4556 271.559 91.8218C271.955 92.188 272.152 92.7031 272.152 93.3672V93.3818C272.152 94.0361 271.955 94.5488 271.559 94.9199C271.168 95.2861 270.617 95.4692 269.904 95.4692H267.018V96.8462ZM266.198 100.457H267.838V89.8882H266.198V100.457ZM277.968 100.589C278.319 100.589 278.644 100.54 278.942 100.442C279.24 100.345 279.506 100.203 279.74 100.018C279.975 99.8271 280.17 99.5977 280.326 99.3291H280.443V100.457H282.025V95.0151C282.025 94.4585 281.903 93.9824 281.659 93.5869C281.42 93.1865 281.066 92.8813 280.597 92.6714C280.133 92.4565 279.567 92.3491 278.898 92.3491C278.297 92.3491 277.763 92.4395 277.294 92.6201C276.83 92.8008 276.454 93.0547 276.166 93.3818C275.883 93.7041 275.709 94.085 275.646 94.5244L275.639 94.5757H277.169L277.184 94.5537C277.277 94.2705 277.462 94.0508 277.741 93.8945C278.024 93.7383 278.388 93.6602 278.832 93.6602C279.364 93.6602 279.765 93.7773 280.033 94.0117C280.307 94.2412 280.443 94.5757 280.443 95.0151V97.52C280.443 97.8618 280.355 98.1694 280.18 98.4429C280.004 98.7114 279.76 98.9263 279.447 99.0874C279.14 99.2437 278.788 99.3218 278.393 99.3218C277.968 99.3218 277.616 99.2192 277.338 99.0142C277.06 98.8042 276.92 98.5186 276.92 98.1572V98.1426C276.92 97.7861 277.05 97.5103 277.309 97.3149C277.567 97.1147 277.97 96.9976 278.517 96.9634L281.234 96.7876V95.667L278.297 95.8428C277.667 95.8818 277.13 95.999 276.686 96.1943C276.247 96.3848 275.91 96.6484 275.675 96.9854C275.446 97.3223 275.331 97.73 275.331 98.2085V98.2231C275.331 98.7017 275.446 99.1191 275.675 99.4756C275.905 99.832 276.217 100.108 276.613 100.303C277.013 100.494 277.465 100.589 277.968 100.589ZM287.841 100.611C288.622 100.611 289.296 100.445 289.862 100.113C290.429 99.7808 290.863 99.3071 291.166 98.6919C291.469 98.0767 291.62 97.3467 291.62 96.502V96.4873C291.62 95.7012 291.476 95.02 291.188 94.4438C290.9 93.8628 290.495 93.4136 289.972 93.0962C289.45 92.7788 288.832 92.6201 288.119 92.6201C287.714 92.6201 287.34 92.6763 286.999 92.7886C286.657 92.9009 286.354 93.0669 286.09 93.2866C285.832 93.5015 285.614 93.77 285.438 94.0923H285.314L285.336 93.9385C285.429 93.25 285.585 92.6934 285.805 92.2686C286.029 91.8389 286.339 91.5215 286.735 91.3164C287.13 91.1064 287.631 90.9893 288.236 90.9648L289.108 90.9282C289.547 90.9087 289.955 90.8599 290.331 90.7817C290.707 90.7036 290.963 90.6108 291.1 90.5034V89.1777C290.773 89.2998 290.426 89.3926 290.06 89.4561C289.694 89.5195 289.347 89.5586 289.02 89.5732L288.141 89.6099C287.423 89.6392 286.803 89.7808 286.281 90.0347C285.763 90.2886 285.338 90.6646 285.006 91.1626C284.674 91.6606 284.428 92.2905 284.267 93.0522C284.11 93.8091 284.032 94.71 284.032 95.7549V95.7695C284.032 96.8242 284.176 97.7104 284.464 98.4282C284.752 99.146 285.18 99.6904 285.746 100.062C286.312 100.428 287.011 100.611 287.841 100.611ZM287.826 99.2852C287.367 99.2852 286.974 99.1753 286.647 98.9556C286.325 98.7358 286.078 98.4209 285.907 98.0107C285.736 97.5957 285.651 97.1001 285.651 96.5239V96.5093C285.651 95.9575 285.736 95.4912 285.907 95.1104C286.078 94.7246 286.325 94.4292 286.647 94.2241C286.974 94.019 287.367 93.9165 287.826 93.9165C288.285 93.9165 288.676 94.019 288.998 94.2241C289.325 94.4292 289.572 94.7246 289.738 95.1104C289.909 95.4912 289.994 95.9575 289.994 96.5093V96.5239C289.994 97.1001 289.909 97.5957 289.738 98.0107C289.572 98.4209 289.325 98.7358 288.998 98.9556C288.676 99.1753 288.285 99.2852 287.826 99.2852ZM297.04 100.611C297.821 100.611 298.49 100.445 299.047 100.113C299.608 99.7808 300.041 99.3071 300.343 98.6919C300.651 98.0718 300.805 97.3369 300.805 96.4873V96.4727C300.805 95.6182 300.651 94.8833 300.343 94.2681C300.041 93.6479 299.608 93.1743 299.047 92.8472C298.485 92.5151 297.816 92.3491 297.04 92.3491C296.269 92.3491 295.6 92.5151 295.033 92.8472C294.472 93.1792 294.037 93.6528 293.729 94.2681C293.427 94.8833 293.275 95.6182 293.275 96.4727V96.4873C293.275 97.3369 293.427 98.0718 293.729 98.6919C294.032 99.3071 294.464 99.7808 295.026 100.113C295.592 100.445 296.264 100.611 297.04 100.611ZM297.04 99.2778C296.586 99.2778 296.2 99.168 295.883 98.9482C295.565 98.7236 295.321 98.4038 295.15 97.9888C294.984 97.5737 294.901 97.0732 294.901 96.4873V96.4727C294.901 95.8818 294.984 95.3789 295.15 94.9639C295.321 94.5488 295.565 94.2314 295.883 94.0117C296.2 93.7871 296.586 93.6748 297.04 93.6748C297.494 93.6748 297.88 93.7871 298.197 94.0117C298.515 94.2314 298.756 94.5488 298.922 94.9639C299.088 95.3789 299.171 95.8818 299.171 96.4727V96.4873C299.171 97.0732 299.088 97.5737 298.922 97.9888C298.756 98.4038 298.515 98.7236 298.197 98.9482C297.88 99.168 297.494 99.2778 297.04 99.2778ZM308.297 92.5029H301.698V93.7627H304.203V100.457H305.792V93.7627H308.297V92.5029ZM312.143 100.589C312.494 100.589 312.819 100.54 313.117 100.442C313.415 100.345 313.681 100.203 313.915 100.018C314.149 99.8271 314.345 99.5977 314.501 99.3291H314.618V100.457H316.2V95.0151C316.2 94.4585 316.078 93.9824 315.834 93.5869C315.595 93.1865 315.241 92.8813 314.772 92.6714C314.308 92.4565 313.742 92.3491 313.073 92.3491C312.472 92.3491 311.938 92.4395 311.469 92.6201C311.005 92.8008 310.629 93.0547 310.341 93.3818C310.058 93.7041 309.884 94.085 309.821 94.5244L309.813 94.5757H311.344L311.359 94.5537C311.452 94.2705 311.637 94.0508 311.916 93.8945C312.199 93.7383 312.562 93.6602 313.007 93.6602C313.539 93.6602 313.939 93.7773 314.208 94.0117C314.481 94.2412 314.618 94.5757 314.618 95.0151V97.52C314.618 97.8618 314.53 98.1694 314.354 98.4429C314.179 98.7114 313.935 98.9263 313.622 99.0874C313.314 99.2437 312.963 99.3218 312.567 99.3218C312.143 99.3218 311.791 99.2192 311.513 99.0142C311.234 98.8042 311.095 98.5186 311.095 98.1572V98.1426C311.095 97.7861 311.225 97.5103 311.483 97.3149C311.742 97.1147 312.145 96.9976 312.692 96.9634L315.409 96.7876V95.667L312.472 95.8428C311.842 95.8818 311.305 95.999 310.861 96.1943C310.421 96.3848 310.084 96.6484 309.85 96.9854C309.621 97.3223 309.506 97.73 309.506 98.2085V98.2231C309.506 98.7017 309.621 99.1191 309.85 99.4756C310.08 99.832 310.392 100.108 310.788 100.303C311.188 100.494 311.64 100.589 312.143 100.589Z" fill="black"/>
<rect x="247.121" y="77.3502" width="88.3571" height="36.2143" rx="18.1071" stroke="#EDE9E9" stroke-width="1.07143"/>
<rect x="24.2275" y="124.699" width="83.4286" height="36.2857" rx="18.1429" fill="white"/>
<path d="M47.6772 148.098C48.4683 148.098 49.1738 147.959 49.7939 147.681C50.4141 147.397 50.9219 147.002 51.3174 146.494C51.7129 145.986 51.9619 145.393 52.0645 144.714L52.0718 144.678H50.4312L50.4165 144.707C50.3237 145.103 50.1504 145.447 49.8965 145.74C49.6426 146.028 49.3252 146.25 48.9443 146.406C48.5684 146.562 48.1484 146.641 47.6846 146.641C47.0498 146.641 46.5005 146.475 46.0366 146.143C45.5776 145.811 45.2212 145.339 44.9673 144.729C44.7183 144.119 44.5938 143.398 44.5938 142.568V142.554C44.5938 141.714 44.7183 140.991 44.9673 140.386C45.2212 139.775 45.5776 139.304 46.0366 138.972C46.5005 138.64 47.0474 138.474 47.6772 138.474C48.1411 138.474 48.561 138.562 48.937 138.738C49.313 138.914 49.6304 139.16 49.8892 139.478C50.1479 139.795 50.3262 140.171 50.4238 140.605L50.4312 140.635H52.0645V140.591C51.9766 139.893 51.73 139.275 51.3247 138.738C50.9243 138.201 50.4092 137.781 49.7793 137.478C49.1543 137.17 48.4536 137.017 47.6772 137.017C46.6958 137.017 45.8486 137.241 45.1357 137.69C44.4229 138.14 43.8735 138.777 43.4878 139.602C43.1021 140.427 42.9092 141.411 42.9092 142.554V142.568C42.9092 143.706 43.1021 144.688 43.4878 145.513C43.8735 146.338 44.4229 146.975 45.1357 147.424C45.8535 147.874 46.7007 148.098 47.6772 148.098ZM57.5283 147.996C58.041 147.996 58.4927 147.93 58.8833 147.798C59.2788 147.666 59.6157 147.493 59.894 147.278C60.1772 147.063 60.4043 146.826 60.5752 146.567C60.7461 146.304 60.8657 146.04 60.9341 145.776L60.9487 145.71H59.4106L59.3813 145.769C59.3228 145.906 59.2129 146.045 59.0518 146.187C58.8955 146.328 58.6929 146.448 58.4438 146.545C58.1997 146.638 57.9067 146.685 57.5649 146.685C57.1206 146.685 56.7349 146.587 56.4077 146.392C56.0854 146.196 55.8364 145.913 55.6606 145.542C55.4849 145.171 55.397 144.724 55.397 144.202V143.564C55.397 143.018 55.4849 142.556 55.6606 142.18C55.8413 141.804 56.0854 141.521 56.3931 141.331C56.7056 141.135 57.0596 141.038 57.4551 141.038C57.8506 141.038 58.1997 141.13 58.5024 141.316C58.8052 141.501 59.042 141.782 59.2129 142.158C59.3887 142.529 59.4766 142.998 59.4766 143.564V144.202L60.2383 143.147H54.5986V144.282H61.0293V143.726C61.0293 142.925 60.8853 142.227 60.5972 141.631C60.3091 141.03 59.8965 140.564 59.3594 140.232C58.8271 139.9 58.1899 139.734 57.4478 139.734C56.7104 139.734 56.0659 139.907 55.5142 140.254C54.9673 140.601 54.5425 141.084 54.2397 141.704C53.9419 142.324 53.793 143.049 53.793 143.879V143.887C53.793 144.727 53.9419 145.454 54.2397 146.069C54.5425 146.685 54.9722 147.161 55.5288 147.498C56.0854 147.83 56.752 147.996 57.5283 147.996ZM64.6035 147.842V142.312H64.7427L67.0645 147.542H68.229L70.5581 142.312H70.6899V147.842H72.2354V139.888H70.3018L67.731 145.688H67.6064L65.0576 139.888H63.0581V147.842H64.6035ZM74.6597 147.842H77.8164C78.7393 147.842 79.4741 147.595 80.021 147.102C80.5679 146.604 80.8413 145.938 80.8413 145.103V145.088C80.8413 144.253 80.5679 143.589 80.021 143.096C79.4741 142.598 78.7393 142.349 77.8164 142.349H76.2563V139.888H74.6597V147.842ZM77.6846 143.608C78.1582 143.608 78.5342 143.743 78.8125 144.011C79.0957 144.28 79.2373 144.639 79.2373 145.088V145.103C79.2373 145.547 79.0981 145.906 78.8198 146.179C78.5415 146.448 78.1631 146.582 77.6846 146.582H76.2563V143.608H77.6846ZM87.0303 147.842H88.605V139.888H85.5361C84.9258 139.888 84.3911 139.995 83.9321 140.21C83.478 140.425 83.124 140.732 82.8701 141.133C82.6211 141.528 82.4966 142.002 82.4966 142.554V142.568C82.4966 143.11 82.6528 143.582 82.9653 143.982C83.2827 144.382 83.7173 144.661 84.269 144.817L82.0938 147.842H83.9321L85.8657 145.088H87.0303V147.842ZM85.6167 143.872C85.1479 143.872 84.7769 143.748 84.5034 143.499C84.2349 143.25 84.1006 142.935 84.1006 142.554V142.539C84.1006 142.104 84.2349 141.763 84.5034 141.514C84.7769 141.265 85.1479 141.14 85.6167 141.14H87.0303V143.872H85.6167Z" fill="black"/>
<rect x="24.2275" y="124.699" width="83.4286" height="36.2857" rx="18.1429" stroke="#EDE9E9"/>
<rect x="112.156" y="124.699" width="94.4286" height="36.2857" rx="18.1429" fill="white"/>
<path d="M133.951 147.842H135.591V138.694H138.917V137.273H130.625V138.694H133.951V147.842ZM140.008 150.493H141.597V146.582H141.722C141.863 146.87 142.056 147.117 142.3 147.322C142.544 147.527 142.825 147.688 143.143 147.805C143.46 147.917 143.802 147.974 144.168 147.974C144.842 147.974 145.425 147.808 145.918 147.476C146.412 147.139 146.792 146.665 147.061 146.055C147.33 145.439 147.464 144.712 147.464 143.872V143.857C147.464 143.022 147.327 142.3 147.054 141.689C146.785 141.074 146.404 140.598 145.911 140.261C145.418 139.919 144.837 139.749 144.168 139.749C143.797 139.749 143.455 139.805 143.143 139.917C142.83 140.029 142.552 140.188 142.308 140.393C142.068 140.598 141.873 140.847 141.722 141.14H141.597V139.888H140.008V150.493ZM143.714 146.611C143.274 146.611 142.894 146.501 142.571 146.282C142.249 146.057 142.002 145.74 141.832 145.33C141.661 144.919 141.575 144.434 141.575 143.872V143.857C141.575 143.286 141.661 142.798 141.832 142.393C142.002 141.982 142.249 141.667 142.571 141.448C142.894 141.223 143.274 141.111 143.714 141.111C144.158 141.111 144.539 141.221 144.856 141.44C145.174 141.66 145.416 141.975 145.582 142.385C145.752 142.795 145.838 143.286 145.838 143.857V143.872C145.838 144.438 145.752 144.927 145.582 145.337C145.416 145.747 145.174 146.062 144.856 146.282C144.539 146.501 144.158 146.611 143.714 146.611ZM151.697 147.974C152.049 147.974 152.374 147.925 152.671 147.827C152.969 147.729 153.235 147.588 153.47 147.402C153.704 147.212 153.899 146.982 154.056 146.714H154.173V147.842H155.755V142.4C155.755 141.843 155.633 141.367 155.389 140.972C155.149 140.571 154.795 140.266 154.327 140.056C153.863 139.841 153.296 139.734 152.627 139.734C152.027 139.734 151.492 139.824 151.023 140.005C150.56 140.186 150.184 140.439 149.896 140.767C149.612 141.089 149.439 141.47 149.375 141.909L149.368 141.96H150.899L150.914 141.938C151.006 141.655 151.192 141.436 151.47 141.279C151.753 141.123 152.117 141.045 152.562 141.045C153.094 141.045 153.494 141.162 153.763 141.396C154.036 141.626 154.173 141.96 154.173 142.4V144.905C154.173 145.247 154.085 145.554 153.909 145.828C153.733 146.096 153.489 146.311 153.177 146.472C152.869 146.628 152.518 146.707 152.122 146.707C151.697 146.707 151.346 146.604 151.067 146.399C150.789 146.189 150.65 145.903 150.65 145.542V145.527C150.65 145.171 150.779 144.895 151.038 144.7C151.297 144.5 151.7 144.382 152.247 144.348L154.964 144.172V143.052L152.027 143.228C151.397 143.267 150.86 143.384 150.416 143.579C149.976 143.77 149.639 144.033 149.405 144.37C149.175 144.707 149.061 145.115 149.061 145.593V145.608C149.061 146.086 149.175 146.504 149.405 146.86C149.634 147.217 149.947 147.493 150.342 147.688C150.743 147.878 151.194 147.974 151.697 147.974ZM158.135 147.842H161.775C162.356 147.842 162.854 147.747 163.27 147.556C163.689 147.366 164.009 147.102 164.229 146.765C164.454 146.423 164.566 146.025 164.566 145.571V145.557C164.566 145.239 164.495 144.954 164.354 144.7C164.217 144.446 164.021 144.238 163.768 144.077C163.514 143.911 163.213 143.806 162.867 143.762V143.645C163.257 143.567 163.58 143.367 163.833 143.044C164.087 142.717 164.214 142.351 164.214 141.946V141.931C164.214 141.311 163.997 140.815 163.562 140.444C163.128 140.073 162.52 139.888 161.739 139.888H158.135V147.842ZM159.717 146.67V144.363H161.365C161.893 144.363 162.286 144.456 162.544 144.641C162.808 144.827 162.94 145.112 162.94 145.498V145.513C162.94 145.879 162.825 146.165 162.596 146.37C162.366 146.57 162.022 146.67 161.563 146.67H159.717ZM159.717 143.213V141.06H161.409C161.834 141.06 162.144 141.157 162.339 141.353C162.54 141.548 162.64 141.804 162.64 142.122V142.136C162.64 142.483 162.525 142.749 162.295 142.935C162.066 143.12 161.714 143.213 161.241 143.213H159.717ZM168.191 147.842V142.312H168.331L170.652 147.542H171.817L174.146 142.312H174.278V147.842H175.823V139.888H173.89L171.319 145.688H171.194L168.646 139.888H166.646V147.842H168.191ZM178.248 147.842H181.404C182.327 147.842 183.062 147.595 183.609 147.102C184.156 146.604 184.429 145.938 184.429 145.103V145.088C184.429 144.253 184.156 143.589 183.609 143.096C183.062 142.598 182.327 142.349 181.404 142.349H179.844V139.888H178.248V147.842ZM181.272 143.608C181.746 143.608 182.122 143.743 182.4 144.011C182.684 144.28 182.825 144.639 182.825 145.088V145.103C182.825 145.547 182.686 145.906 182.408 146.179C182.129 146.448 181.751 146.582 181.272 146.582H179.844V143.608H181.272ZM185.77 147.842H187.359V139.888H185.77V147.842Z" fill="black"/>
<rect x="112.156" y="124.699" width="94.4286" height="36.2857" rx="18.1429" stroke="#EDE9E9"/>
</g>
<defs>
<filter id="filter0_d_840_21766" x="6.72754" y="10.8145" width="388" height="176" filterUnits="userSpaceOnUse" color-interpolation-filters="sRGB">
<feFlood flood-opacity="0" result="BackgroundImageFix"/>
<feColorMatrix in="SourceAlpha" type="matrix" values="0 0 0 0 0 0 0 0 0 0 0 0 0 0 0 0 0 0 127 0" result="hardAlpha"/>
<feOffset dy="4"/>
<feGaussianBlur stdDeviation="2"/>
<feComposite in2="hardAlpha" operator="out"/>
<feColorMatrix type="matrix" values="0 0 0 0 0 0 0 0 0 0 0 0 0 0 0 0 0 0 0.25 0"/>
<feBlend mode="normal" in2="BackgroundImageFix" result="effect1_dropShadow_840_21766"/>
<feBlend mode="normal" in="SourceGraphic" in2="effect1_dropShadow_840_21766" result="shape"/>
</filter>
<filter id="filter1_d_840_21766" x="0.727539" y="0.814453" width="400" height="188" filterUnits="userSpaceOnUse" color-interpolation-filters="sRGB">
<feFlood flood-opacity="0" result="BackgroundImageFix"/>
<feColorMatrix in="SourceAlpha" type="matrix" values="0 0 0 0 0 0 0 0 0 0 0 0 0 0 0 0 0 0 127 0" result="hardAlpha"/>
<feOffset/>
<feGaussianBlur stdDeviation="5"/>
<feComposite in2="hardAlpha" operator="out"/>
<feColorMatrix type="matrix" values="0 0 0 0 0 0 0 0 0 0 0 0 0 0 0 0 0 0 0.05 0"/>
<feBlend mode="normal" in2="BackgroundImageFix" result="effect1_dropShadow_840_21766"/>
<feBlend mode="normal" in="SourceGraphic" in2="effect1_dropShadow_840_21766" result="shape"/>
</filter>
</defs>
</svg>
