<svg width="396" height="174" viewBox="0 0 396 174" fill="none" xmlns="http://www.w3.org/2000/svg">
<g filter="url(#filter0_d_734_21950)">
<rect x="3" y="30.168" width="380" height="137" rx="18" transform="rotate(-4.5533 3 30.168)" fill="white"/>
<path d="M27.4253 68.5505C28.455 68.4685 29.3555 68.2076 30.1271 67.7677C30.9048 67.3273 31.5199 66.754 31.9725 66.0479C32.4245 65.3356 32.6737 64.5309 32.7202 63.6337L32.7235 63.559L30.3838 63.7453L30.3697 63.8023C30.2918 64.3049 30.1163 64.75 29.8432 65.1379C29.5701 65.5257 29.2132 65.8364 28.7727 66.07C28.3384 66.3032 27.8376 66.4423 27.2704 66.4875C26.5058 66.5484 25.8302 66.4005 25.2434 66.044C24.6566 65.6874 24.1829 65.1543 23.8224 64.4447C23.4675 63.7284 23.2498 62.8647 23.1693 61.8536L23.1679 61.8351C23.0873 60.824 23.1658 59.9398 23.4033 59.1825C23.647 58.4248 24.0303 57.8235 24.5533 57.3785C25.0763 56.9336 25.7169 56.6809 26.4753 56.6205C27.0363 56.5758 27.5535 56.6432 28.027 56.8227C28.5004 57.0021 28.9039 57.2771 29.2374 57.6477C29.5766 58.0115 29.8256 58.4508 29.9845 58.9656L29.9982 59.0203L32.3379 58.834L32.3313 58.7507C32.1548 57.8589 31.783 57.0851 31.2158 56.4291C30.6481 55.767 29.9416 55.2711 29.0963 54.9413C28.2506 54.6054 27.3221 54.4777 26.311 54.5582C25.0471 54.6589 23.9784 55.0294 23.105 55.6698C22.2377 56.3096 21.5958 57.1704 21.1794 58.2522C20.7691 59.3334 20.6215 60.5953 20.7363 62.038L20.7378 62.0565C20.8522 63.4931 21.1975 64.7127 21.7737 65.7153C22.3561 66.7175 23.1292 67.4656 24.093 67.9597C25.0568 68.4537 26.1676 68.6507 27.4253 68.5505ZM42.9593 62.6042L46.6725 66.692L49.4654 66.4696L44.5986 61.2173L44.6273 61.578L48.4685 56.4047L45.8235 56.6153L42.8075 60.9318L42.3266 60.9701L42.0041 56.9195L39.7105 57.1021L40.5133 67.1825L42.8068 66.9998L42.4599 62.644L42.9593 62.6042ZM55.3449 66.2061C56.0231 66.1521 56.6143 66.0181 57.1184 65.8043C57.6221 65.5842 58.0414 65.3182 58.3764 65.0061C58.7171 64.6873 58.9787 64.3501 59.1614 63.9943C59.3501 63.638 59.4716 63.2933 59.5257 62.9601L59.5369 62.8662L57.3636 63.0393L57.3325 63.1162C57.2769 63.2757 57.1605 63.4494 56.9831 63.6373C56.8119 63.8246 56.5832 63.9918 56.2971 64.1386C56.0105 64.2793 55.6606 64.3661 55.2475 64.399C54.7235 64.4408 54.2579 64.36 53.8508 64.1566C53.4499 63.9528 53.1272 63.6403 52.8828 63.2193C52.6378 62.7921 52.4905 62.2671 52.4409 61.6444L52.368 60.7288C52.3164 60.0815 52.3778 59.5275 52.5521 59.0669C52.732 58.5996 52.9948 58.2375 53.3404 57.9804C53.6921 57.7228 54.1023 57.5754 54.5709 57.538C55.0456 57.5002 55.4706 57.5781 55.8459 57.7715C56.2211 57.965 56.5282 58.2756 56.767 58.7033C57.0053 59.1248 57.1512 59.6716 57.2047 60.3437L57.2776 61.2592L58.2633 59.7289L51.1885 60.2923L51.3108 61.8275L59.5045 61.1749L59.4441 60.4166C59.3636 59.4055 59.1051 58.5357 58.6686 57.8073C58.2383 57.0784 57.6581 56.5321 56.9281 56.1684C56.2041 55.8041 55.3613 55.6603 54.3995 55.7369C53.45 55.8125 52.6382 56.0974 51.9641 56.5916C51.2894 57.0796 50.7893 57.7337 50.4637 58.5538C50.1438 59.3673 50.0261 60.3042 50.1106 61.3647L50.1113 61.3739C50.1962 62.4405 50.4641 63.3498 50.9149 64.1019C51.3652 64.8478 51.9648 65.405 52.7139 65.7735C53.4691 66.1414 54.3461 66.2856 55.3449 66.2061ZM64.4843 65.2735L63.9363 58.3929L64.0936 58.3804L67.3798 64.5869L69.026 64.4558L71.2978 57.8067L71.455 57.7942L72.003 64.6747L74.204 64.4994L73.4012 54.4191L70.5343 54.6474L68.0977 61.9145L67.9497 61.9263L64.4121 55.1349L61.4805 55.3684L62.2833 65.4488L64.4843 65.2735ZM81.2973 63.9346L83.7665 63.7379L85.549 60.0594L85.7062 60.0469L88.0484 63.3969L90.6286 63.1914L86.9397 58.3572L89.7981 53.1133L87.2733 53.3143L85.5541 56.9692L85.4062 56.981L83.121 53.645L80.476 53.8556L84.1634 58.6714L81.2973 63.9346ZM96.7393 62.9095C97.7442 62.8295 98.5907 62.5511 99.2786 62.0745C99.9728 61.5973 100.483 60.9517 100.809 60.1378C101.141 59.3234 101.264 58.3736 101.178 57.2885L101.176 57.27C101.09 56.1849 100.818 55.2696 100.362 54.5242C99.9049 53.7726 99.296 53.2162 98.5351 52.8549C97.7804 52.4931 96.9036 52.3519 95.9048 52.4315C94.906 52.511 94.0596 52.7894 93.3654 53.2666C92.6775 53.7433 92.1674 54.3888 91.8351 55.2033C91.5024 56.0115 91.3793 56.9582 91.4657 58.0433L91.4672 58.0618C91.5536 59.1469 91.8222 60.0655 92.273 60.8176C92.7299 61.5691 93.3357 62.1258 94.0905 62.4876C94.8514 62.8489 95.7343 62.9896 96.7393 62.9095ZM96.5905 61.0414C96.0603 61.0837 95.5965 60.9872 95.1993 60.752C94.8083 60.5164 94.4943 60.1567 94.2572 59.673C94.0196 59.1832 93.8726 58.5837 93.8162 57.8747L93.8147 57.8562C93.7582 57.1472 93.8088 56.5352 93.9663 56.02C94.13 55.5044 94.3862 55.0994 94.735 54.8048C95.0833 54.5041 95.5226 54.3326 96.0528 54.2903C96.5831 54.2481 97.0439 54.3479 97.4355 54.5897C97.8265 54.8254 98.1405 55.1851 98.3776 55.6687C98.6147 56.1524 98.7614 56.7488 98.8179 57.4578L98.8194 57.4763C98.8758 58.1853 98.8256 58.8004 98.6685 59.3217C98.511 59.8368 98.2578 60.2417 97.909 60.5362C97.5602 60.8308 97.1207 60.9992 96.5905 61.0414ZM112.232 61.471L111.429 51.3906L109.127 51.574L109.454 55.6894C109.285 55.8952 109.029 56.0738 108.687 56.2251C108.346 56.3764 107.928 56.4717 107.435 56.511C106.806 56.561 106.318 56.4293 105.97 56.1157C105.623 55.8022 105.424 55.334 105.374 54.7113L105.15 51.8907L102.856 52.0733L103.097 55.0974C103.186 56.2134 103.581 57.0816 104.282 57.702C104.988 58.3159 105.94 58.5751 107.136 58.4799C107.647 58.4391 108.099 58.3442 108.49 58.1952C108.881 58.04 109.204 57.8436 109.458 57.6063L109.606 57.5945L109.929 61.6544L112.232 61.471ZM119.471 61.0992C120.149 61.0452 120.74 60.9113 121.244 60.6974C121.748 60.4774 122.167 60.2113 122.502 59.8992C122.843 59.5805 123.105 59.2432 123.287 58.8874C123.476 58.5311 123.598 58.1864 123.652 57.8533L123.663 57.7593L121.49 57.9324L121.459 58.0093C121.403 58.1689 121.287 58.3426 121.109 58.5304C120.938 58.7178 120.709 58.8849 120.423 59.0318C120.137 59.1725 119.787 59.2593 119.374 59.2922C118.85 59.3339 118.384 59.2531 117.977 59.0498C117.576 58.8459 117.253 58.5335 117.009 58.1124C116.764 57.6852 116.617 57.1603 116.567 56.5375L116.494 55.622C116.443 54.9746 116.504 54.4206 116.678 53.96C116.858 53.4928 117.121 53.1306 117.466 52.8735C117.818 52.6159 118.228 52.4685 118.697 52.4312C119.172 52.3934 119.597 52.4712 119.972 52.6647C120.347 52.8582 120.654 53.1688 120.893 53.5965C121.131 54.018 121.277 54.5648 121.331 55.2368L121.404 56.1524L122.389 54.622L115.315 55.1854L115.437 56.7206L123.631 56.0681L123.57 55.3097C123.49 54.2986 123.231 53.4289 122.795 52.7005C122.364 51.9716 121.784 51.4253 121.054 51.0615C120.33 50.6973 119.487 50.5534 118.526 50.63C117.576 50.7056 116.764 50.9905 116.09 51.4847C115.415 51.9728 114.915 52.6269 114.59 53.447C114.27 54.2604 114.152 55.1974 114.237 56.2578L114.237 56.267C114.322 57.3337 114.59 58.243 115.041 58.9951C115.491 59.741 116.091 60.2981 116.84 60.6666C117.595 61.0346 118.472 61.1788 119.471 61.0992ZM126.409 60.3419L139.708 59.2829L138.905 49.2025L136.603 49.3859L137.262 57.6629L134.062 57.9177L133.403 49.6407L131.1 49.8241L131.759 58.1011L128.559 58.3559L127.9 50.0789L125.607 50.2615L126.409 60.3419ZM142.612 59.0516L146.894 58.7106C148.071 58.6168 148.983 58.2247 149.629 57.5342C150.275 56.8436 150.556 55.9651 150.471 54.8985L150.47 54.88C150.384 53.8072 149.968 52.981 149.221 52.4015C148.473 51.8219 147.511 51.579 146.333 51.6728L144.345 51.8312L144.103 48.7886L141.809 48.9712L142.612 59.0516ZM146.17 53.4728C146.731 53.4281 147.19 53.5497 147.548 53.8376C147.906 54.1255 148.106 54.5315 148.148 55.0556L148.149 55.0741C148.19 55.592 148.057 56.0245 147.75 56.3716C147.449 56.7182 147.014 56.9141 146.447 56.9593L144.764 57.0933L144.486 53.6068L146.17 53.4728ZM158.001 57.8261L160.294 57.6434L159.634 49.3479L163.795 49.0165L164.456 57.312L166.759 57.1286L165.956 47.0482L157.198 47.7457L158.001 57.8261ZM174.053 56.7524C175.058 56.6724 175.904 56.394 176.592 55.9174C177.287 55.4402 177.797 54.7946 178.123 53.9807C178.455 53.1663 178.578 52.2165 178.491 51.1314L178.49 51.1129C178.404 50.0278 178.132 49.1125 177.676 48.3671C177.219 47.6155 176.61 47.0591 175.849 46.6978C175.094 46.336 174.217 46.1948 173.219 46.2744C172.22 46.3539 171.373 46.6323 170.679 47.1095C169.991 47.5862 169.481 48.2317 169.149 49.0462C168.816 49.8544 168.693 50.8011 168.78 51.8862L168.781 51.9047C168.867 52.9898 169.136 53.9084 169.587 54.6605C170.044 55.412 170.65 55.9687 171.404 56.3305C172.165 56.6918 173.048 56.8325 174.053 56.7524ZM173.904 54.8843C173.374 54.9266 172.91 54.8301 172.513 54.5949C172.122 54.3593 171.808 53.9996 171.571 53.5159C171.333 53.0261 171.186 52.4266 171.13 51.7176L171.129 51.6991C171.072 50.9901 171.123 50.3781 171.28 49.8629C171.444 49.3473 171.7 48.9423 172.049 48.6477C172.397 48.347 172.836 48.1755 173.367 48.1332C173.897 48.091 174.358 48.1908 174.749 48.4326C175.14 48.6683 175.454 49.028 175.691 49.5116C175.928 49.9953 176.075 50.5917 176.132 51.3007L176.133 51.3192C176.19 52.0282 176.139 52.6433 175.982 53.1646C175.825 53.6797 175.572 54.0846 175.223 54.3791C174.874 54.6737 174.435 54.8421 173.904 54.8843ZM187.443 47.1333L187.3 45.3484L180.503 45.8897L181.306 55.9701L183.599 55.7875L182.939 47.4919L187.443 47.1333ZM194.454 55.1277C195.459 55.0477 196.306 54.7693 196.994 54.2926C197.688 53.8155 198.198 53.1699 198.524 52.356C198.856 51.5415 198.979 50.5918 198.893 49.5067L198.891 49.4882C198.805 48.4031 198.533 47.4878 198.077 46.7424C197.62 45.9908 197.011 45.4344 196.25 45.0731C195.495 44.7113 194.619 44.5701 193.62 44.6497C192.621 44.7292 191.775 45.0076 191.08 45.4848C190.393 45.9615 189.882 46.607 189.55 47.4214C189.217 48.2297 189.094 49.1764 189.181 50.2615L189.182 50.28C189.269 51.3651 189.537 52.2837 189.988 53.0358C190.445 53.7873 191.051 54.344 191.806 54.7058C192.566 55.0671 193.449 55.2078 194.454 55.1277ZM194.306 53.2596C193.775 53.3019 193.312 53.2054 192.914 52.9702C192.523 52.7346 192.209 52.3749 191.972 51.8912C191.735 51.4014 191.588 50.8019 191.531 50.0929L191.53 50.0744C191.473 49.3654 191.524 48.7533 191.681 48.2382C191.845 47.7226 192.101 47.3176 192.45 47.023C192.798 46.7222 193.238 46.5508 193.768 46.5085C194.298 46.4663 194.759 46.5661 195.151 46.8079C195.542 47.0436 195.856 47.4032 196.093 47.8869C196.33 48.3706 196.476 48.967 196.533 49.676L196.534 49.6945C196.591 50.4035 196.541 51.0186 196.384 51.5399C196.226 52.055 195.973 52.4599 195.624 52.7544C195.275 53.049 194.836 53.2174 194.306 53.2596ZM201.707 54.3454L206.535 53.9609C207.657 53.8716 208.517 53.5393 209.117 52.9642C209.716 52.3829 209.981 51.6638 209.913 50.8068L209.912 50.7883C209.879 50.3752 209.757 50.0158 209.546 49.7099C209.342 49.3974 209.064 49.1495 208.715 48.9664C208.371 48.7828 207.976 48.6841 207.528 48.6701L207.516 48.5221C208.02 48.3889 208.42 48.1058 208.714 47.6729C209.014 47.2333 209.143 46.7514 209.102 46.2274L209.1 46.2089C209.038 45.4259 208.701 44.8229 208.091 44.4C207.486 43.9766 206.678 43.8052 205.667 43.8857L200.904 44.265L201.707 54.3454ZM203.846 52.5743L203.626 49.8091L205.559 49.6552C206.182 49.6056 206.659 49.6823 206.992 49.8854C207.324 50.0823 207.508 50.4089 207.544 50.8651L207.546 50.8836C207.581 51.3214 207.466 51.6749 207.202 51.9441C206.944 52.2066 206.537 52.36 205.982 52.4042L203.846 52.5743ZM203.504 48.2739L203.297 45.6752L205.248 45.5198C205.754 45.4796 206.139 45.5668 206.404 45.7814C206.669 45.9899 206.817 46.2883 206.848 46.6767L206.849 46.6952C206.883 47.1145 206.77 47.4492 206.511 47.6994C206.251 47.9435 205.837 48.0881 205.27 48.1333L203.504 48.2739ZM216.909 53.3395C217.914 53.2595 218.76 52.9811 219.448 52.5044C220.142 52.0273 220.652 51.3817 220.978 50.5678C221.31 49.7533 221.433 48.8036 221.347 47.7185L221.345 47.7C221.259 46.6149 220.988 45.6996 220.531 44.9542C220.074 44.2026 219.465 43.6462 218.704 43.2849C217.95 42.9231 217.073 42.7819 216.074 42.8615C215.075 42.941 214.229 43.2194 213.535 43.6966C212.847 44.1732 212.337 44.8188 212.004 45.6332C211.672 46.4415 211.549 47.3882 211.635 48.4733L211.637 48.4918C211.723 49.5769 211.992 50.4955 212.442 51.2475C212.899 51.9991 213.505 52.5558 214.26 52.9176C215.021 53.2789 215.904 53.4196 216.909 53.3395ZM216.76 51.4714C216.23 51.5136 215.766 51.4172 215.369 51.182C214.978 50.9464 214.664 50.5867 214.427 50.103C214.189 49.6132 214.042 49.0137 213.986 48.3047L213.984 48.2862C213.928 47.5772 213.978 46.9651 214.136 46.45C214.299 45.9344 214.556 45.5293 214.904 45.2348C215.253 44.934 215.692 44.7626 216.222 44.7203C216.752 44.6781 217.213 44.7779 217.605 45.0197C217.996 45.2554 218.31 45.615 218.547 46.0987C218.784 46.5824 218.931 47.1788 218.987 47.8878L218.989 47.9063C219.045 48.6153 218.995 49.2304 218.838 49.7517C218.68 50.2668 218.427 50.6717 218.078 50.9662C217.73 51.2608 217.29 51.4292 216.76 51.4714ZM224.428 55.905L226.731 55.7216L226.336 50.7646L226.484 50.7528C226.692 51.1024 226.957 51.3977 227.28 51.6387C227.604 51.8798 227.972 52.0583 228.384 52.1744C228.796 52.2843 229.233 52.3208 229.696 52.284C230.547 52.2162 231.264 51.9482 231.847 51.4798C232.436 51.011 232.866 50.3749 233.137 49.5715C233.414 48.7677 233.51 47.8294 233.425 46.7566L233.423 46.7381C233.339 45.6715 233.096 44.7664 232.695 44.0227C232.294 43.2729 231.766 42.71 231.109 42.3342C230.459 41.9579 229.711 41.8034 228.866 41.8706C228.392 41.9084 227.963 42.014 227.579 42.1872C227.196 42.3604 226.864 42.5885 226.582 42.8715C226.307 43.1541 226.092 43.4907 225.937 43.8815L225.789 43.8933L225.661 42.2934L223.359 42.4768L224.428 55.905ZM228.82 50.4086C228.309 50.4493 227.851 50.3524 227.448 50.1177C227.051 49.8825 226.728 49.5298 226.479 49.0594C226.237 48.5885 226.089 48.0171 226.036 47.3451L226.034 47.3266C225.98 46.6484 226.036 46.0607 226.201 45.5636C226.366 45.0604 226.629 44.664 226.99 44.3746C227.352 44.0791 227.788 43.9109 228.3 43.8702C228.824 43.8284 229.284 43.9221 229.681 44.1511C230.078 44.3801 230.394 44.7302 230.63 45.2016C230.872 45.6725 231.02 46.247 231.074 46.9252L231.076 46.9437C231.129 47.6157 231.074 48.2064 230.91 48.7159C230.751 49.2186 230.495 49.6176 230.14 49.9126C229.784 50.2015 229.345 50.3668 228.82 50.4086ZM236.258 51.5938L238.524 51.4134L242.721 43.3453L241.238 44.3661L242.422 44.2718L242.963 51.0599L245.228 50.8794L244.426 40.7991L242.16 40.9795L237.95 49.0021L239.442 47.9898L238.258 48.0841L237.721 41.333L235.455 41.5135L236.258 51.5938ZM255.042 39.9536L246.534 40.6311L246.676 42.416L249.774 42.1693L250.435 50.4648L252.738 50.2814L252.077 41.9859L255.185 41.7384L255.042 39.9536ZM257.954 49.866L262.236 49.525C263.413 49.4313 264.325 49.0391 264.971 48.3486C265.617 47.6581 265.898 46.7795 265.813 45.7129L265.811 45.6944C265.726 44.6216 265.31 43.7955 264.562 43.2159C263.815 42.6364 262.853 42.3935 261.675 42.4873L259.687 42.6456L259.445 39.603L257.151 39.7856L257.954 49.866ZM261.511 44.2872C262.072 44.2425 262.532 44.3641 262.89 44.652C263.248 44.94 263.448 45.346 263.489 45.87L263.491 45.8885C263.532 46.4064 263.399 46.8389 263.092 47.186C262.79 47.5326 262.356 47.7285 261.789 47.7737L260.106 47.9078L259.828 44.4212L261.511 44.2872ZM270.033 44.7068L272.178 44.5359L272.136 44.0088C272.112 43.7005 272.133 43.4289 272.202 43.1939C272.276 42.9584 272.416 42.7301 272.622 42.509C272.834 42.2873 273.131 42.0434 273.513 41.7772C274.112 41.351 274.56 40.8717 274.859 40.3391C275.158 39.8004 275.279 39.1796 275.223 38.4767L275.221 38.4582C275.167 37.7801 274.944 37.1929 274.551 36.6969C274.157 36.2008 273.632 35.8301 272.973 35.5847C272.32 35.3327 271.571 35.2403 270.727 35.3076C269.814 35.3802 269.053 35.6052 268.444 35.9826C267.835 36.3537 267.383 36.8364 267.089 37.4307C266.801 38.0244 266.671 38.6801 266.697 39.3977L266.699 39.4255L268.862 39.2439L268.879 39.2239C268.868 38.8463 268.937 38.512 269.088 38.2208C269.238 37.9296 269.456 37.6951 269.739 37.5174C270.023 37.3397 270.359 37.2354 270.747 37.2045C271.142 37.1731 271.49 37.2198 271.792 37.3447C272.093 37.4696 272.334 37.652 272.515 37.892C272.694 38.1259 272.797 38.4062 272.823 38.733L272.825 38.7515C272.849 39.0536 272.824 39.3224 272.75 39.5578C272.675 39.7933 272.532 40.0219 272.32 40.2435C272.114 40.4646 271.83 40.7076 271.466 40.9723C271.067 41.2585 270.743 41.5542 270.494 41.8594C270.251 42.1579 270.088 42.4873 270.005 42.8476C269.922 43.2017 269.911 43.6059 269.972 44.0601L270.033 44.7068ZM271.548 49.0068C272.01 48.97 272.367 48.8113 272.617 48.5307C272.874 48.2435 272.984 47.8811 272.949 47.4433C272.915 47.0056 272.748 46.6683 272.45 46.4314C272.158 46.1879 271.78 46.0846 271.318 46.1214C270.862 46.1577 270.505 46.3195 270.249 46.6067C269.992 46.8878 269.881 47.2472 269.916 47.6849C269.951 48.1226 270.118 48.463 270.416 48.706C270.714 48.9429 271.091 49.0431 271.548 49.0068Z" fill="#363636"/>
<rect x="24.8858" y="97.1423" width="350" height="46" rx="23" transform="rotate(-4.5533 24.8858 97.1423)" fill="#FAFAFA" stroke="#EAEAEA"/>
<rect x="21.3574" y="96.9219" width="128" height="47" rx="23.5" transform="rotate(-4.5533 21.3574 96.9219)" fill="#444444"/>
<path d="M53.5567 122.445L56.8413 122.183C57.5409 122.128 58.1317 121.969 58.6137 121.706C59.0957 121.444 59.4542 121.095 59.6893 120.66C59.9286 120.221 60.0255 119.715 59.9799 119.142L59.9788 119.129C59.9448 118.702 59.8213 118.328 59.6082 118.006C59.3948 117.68 59.1138 117.424 58.7652 117.237C58.4165 117.05 58.0178 116.951 57.569 116.941L57.5598 116.825C57.8825 116.745 58.1652 116.592 58.4079 116.367C58.6506 116.142 58.8374 115.875 58.9683 115.568C59.0989 115.256 59.1504 114.927 59.1229 114.582L59.1218 114.568C59.082 114.068 58.9296 113.646 58.6644 113.302C58.3988 112.952 58.0355 112.696 57.5744 112.531C57.1178 112.366 56.5829 112.308 55.9696 112.357L52.7736 112.612L52.873 113.859L55.7077 113.633C56.2756 113.588 56.7266 113.682 57.0607 113.916C57.3944 114.146 57.5797 114.492 57.6166 114.955L57.6177 114.969C57.6557 115.446 57.512 115.823 57.1866 116.101C56.8609 116.373 56.3596 116.537 55.6827 116.591L53.1069 116.796L53.1997 117.961L56.0821 117.732C56.5637 117.693 56.9706 117.722 57.3029 117.819C57.6394 117.912 57.8988 118.069 58.0812 118.292C58.2636 118.516 58.3688 118.804 58.3971 119.159L58.3982 119.172C58.4401 119.699 58.295 120.115 57.9627 120.421C57.6304 120.726 57.119 120.906 56.4285 120.961L53.4574 121.198L53.5567 122.445ZM52.7935 122.506L54.3199 122.384L53.5369 112.551L52.0104 112.673L52.7935 122.506ZM65.248 121.658C65.8612 121.609 66.3778 121.465 66.7976 121.226C67.2217 120.982 67.551 120.668 67.7855 120.283C68.02 119.899 68.1613 119.462 68.2093 118.974L68.218 118.911L66.8012 119.031L66.7902 119.066C66.704 119.476 66.5236 119.794 66.2491 120.021C65.9792 120.249 65.6126 120.381 65.1492 120.418C64.7449 120.45 64.3867 120.373 64.0748 120.188C63.7625 119.998 63.5113 119.714 63.3212 119.336C63.1311 118.958 63.0143 118.496 62.9709 117.951L62.9698 117.937C62.9275 117.406 62.9682 116.941 63.0919 116.542C63.2201 116.144 63.4238 115.83 63.7028 115.602C63.9814 115.37 64.3252 115.237 64.734 115.205C65.2247 115.166 65.6274 115.257 65.9422 115.479C66.2567 115.696 66.4693 115.983 66.58 116.34L66.5879 116.353L68.0121 116.24L68.0026 116.206C67.8964 115.735 67.6945 115.323 67.3968 114.972C67.1033 114.616 66.7232 114.349 66.2564 114.171C65.7938 113.989 65.2514 113.922 64.629 113.972C63.9112 114.029 63.3034 114.233 62.8056 114.583C62.3123 114.934 61.9474 115.404 61.711 115.994C61.4791 116.584 61.3944 117.272 61.457 118.058L61.4581 118.071C61.5218 118.871 61.7174 119.548 62.045 120.103C62.3726 120.657 62.8079 121.07 63.3507 121.343C63.8978 121.61 64.5302 121.715 65.248 121.658ZM73.323 121.015C73.8 120.977 74.2153 120.882 74.569 120.73C74.9272 120.578 75.2278 120.392 75.4708 120.172C75.7184 119.951 75.9121 119.714 76.0519 119.46C76.1914 119.202 76.2832 118.948 76.3272 118.698L76.336 118.635L74.9049 118.749L74.882 118.806C74.8376 118.937 74.7457 119.075 74.6063 119.219C74.4714 119.362 74.2918 119.488 74.0673 119.598C73.847 119.702 73.5779 119.767 73.2599 119.792C72.8465 119.825 72.4804 119.763 72.1615 119.605C71.8472 119.448 71.5946 119.203 71.4035 118.87C71.2125 118.538 71.0976 118.129 71.0589 117.643L71.0117 117.05C70.9711 116.541 71.0187 116.105 71.1544 115.743C71.2946 115.379 71.5008 115.098 71.7729 114.898C72.0492 114.693 72.3713 114.576 72.7393 114.547C73.1073 114.517 73.4389 114.578 73.7344 114.728C74.0298 114.878 74.2709 115.122 74.4578 115.459C74.6488 115.791 74.7653 116.221 74.8073 116.748L74.8545 117.341L75.485 116.303L70.238 116.721L70.3221 117.777L76.3051 117.301L76.2639 116.783C76.2045 116.038 76.0188 115.399 75.7066 114.866C75.3941 114.328 74.9756 113.925 74.4513 113.656C73.9315 113.386 73.3264 113.279 72.6359 113.334C71.9499 113.389 71.3631 113.598 70.8754 113.961C70.3923 114.324 70.0329 114.806 69.7972 115.405C69.566 116.004 69.4812 116.69 69.5427 117.462L69.5432 117.469C69.6054 118.25 69.7979 118.916 70.1206 119.466C70.4478 120.016 70.8829 120.427 71.4257 120.7C71.9682 120.967 72.6006 121.072 73.323 121.015ZM70.9976 112.223C71.2338 112.205 71.4272 112.107 71.5777 111.93C71.7324 111.749 71.8004 111.54 71.7816 111.304C71.7631 111.072 71.6633 110.881 71.4822 110.731C71.3053 110.576 71.0987 110.508 70.8625 110.527C70.6262 110.545 70.4308 110.646 70.2761 110.827C70.121 111.004 70.0527 111.208 70.0712 111.44C70.09 111.676 70.1901 111.872 70.3716 112.026C70.5527 112.177 70.7614 112.242 70.9976 112.223ZM74.1254 111.974C74.3616 111.956 74.5573 111.858 74.7123 111.681C74.867 111.499 74.935 111.29 74.9162 111.054C74.8977 110.822 74.7979 110.632 74.6168 110.481C74.4353 110.327 74.2265 110.259 73.9903 110.278C73.7586 110.296 73.5654 110.396 73.4107 110.577C73.2556 110.754 73.1873 110.959 73.2058 111.19C73.2246 111.427 73.3247 111.622 73.5062 111.777C73.6873 111.927 73.8937 111.993 74.1254 111.974ZM82.4621 122.625L83.9408 122.508L83.651 118.869L83.7669 118.86C83.92 119.117 84.1177 119.332 84.36 119.505C84.6024 119.678 84.8755 119.807 85.1795 119.892C85.4831 119.973 85.8053 120 86.146 119.973C86.7729 119.923 87.3035 119.725 87.7377 119.38C88.1716 119.03 88.4908 118.561 88.6955 117.973C88.8997 117.381 88.9708 116.694 88.9085 115.913L88.9074 115.899C88.8456 115.122 88.6648 114.46 88.3652 113.912C88.0698 113.36 87.6801 112.945 87.1963 112.668C86.7122 112.387 86.1589 112.271 85.5365 112.321C85.1913 112.348 84.8774 112.426 84.595 112.553C84.3126 112.681 84.0654 112.849 83.8535 113.058C83.646 113.267 83.4828 113.513 83.3637 113.796L83.2478 113.806L83.155 112.64L81.6763 112.758L82.4621 122.625ZM85.6225 118.739C85.2137 118.772 84.8512 118.698 84.5351 118.517C84.2186 118.332 83.9657 118.055 83.7763 117.686C83.5869 117.317 83.4714 116.872 83.4298 116.349L83.4287 116.335C83.3864 115.804 83.4297 115.343 83.5587 114.954C83.6873 114.559 83.8934 114.248 84.1769 114.02C84.4601 113.787 84.8061 113.654 85.215 113.622C85.6284 113.589 85.9909 113.663 86.3025 113.844C86.614 114.025 86.8622 114.3 87.0471 114.669C87.2365 115.038 87.3523 115.488 87.3947 116.02L87.3957 116.033C87.4377 116.56 87.3944 117.021 87.2658 117.415C87.1417 117.809 86.9402 118.12 86.6612 118.348C86.3822 118.576 86.0359 118.706 85.6225 118.739ZM93.1511 119.415C93.4782 119.389 93.7767 119.32 94.0466 119.207C94.3165 119.094 94.5536 118.942 94.7579 118.752C94.9618 118.558 95.1265 118.33 95.252 118.068L95.3611 118.06L95.4446 119.109L96.9165 118.992L96.5133 113.929C96.4721 113.411 96.3232 112.977 96.0668 112.627C95.8145 112.272 95.4625 112.015 95.0109 111.854C94.5634 111.688 94.0284 111.631 93.406 111.68C92.8473 111.725 92.3565 111.848 91.9338 112.051C91.5156 112.254 91.1846 112.518 90.9408 112.843C90.7012 113.164 90.5681 113.531 90.5416 113.945L90.5386 113.993L91.9628 113.88L91.9748 113.858C92.0402 113.588 92.1965 113.37 92.4439 113.204C92.6958 113.037 93.0285 112.938 93.4419 112.905C93.937 112.865 94.3182 112.945 94.5855 113.143C94.8569 113.336 95.0089 113.637 95.0414 114.046L95.227 116.377C95.2523 116.695 95.1934 116.987 95.0501 117.255C94.9064 117.518 94.6952 117.736 94.4164 117.909C94.1418 118.077 93.8205 118.175 93.4525 118.205C93.0573 118.236 92.7226 118.167 92.4484 117.997C92.1739 117.822 92.0233 117.567 91.9965 117.23L91.9954 117.217C91.969 116.885 92.069 116.619 92.2953 116.418C92.5212 116.213 92.8873 116.074 93.3936 116.001L95.9087 115.636L95.8257 114.594L93.1061 114.975C92.2291 115.1 91.5649 115.37 91.1134 115.785C90.666 116.196 90.4688 116.733 90.5216 117.396L90.5227 117.409C90.5581 117.855 90.6958 118.235 90.9358 118.549C91.1757 118.864 91.4869 119.097 91.8693 119.25C92.2559 119.397 92.6832 119.452 93.1511 119.415ZM99.1312 118.815L102.518 118.546C103.331 118.481 103.952 118.237 104.38 117.815C104.808 117.387 104.996 116.858 104.946 116.227L104.945 116.213C104.921 115.918 104.834 115.657 104.684 115.431C104.538 115.205 104.341 115.027 104.093 114.896C103.844 114.76 103.557 114.685 103.231 114.669L103.222 114.56C103.58 114.459 103.865 114.249 104.077 113.93C104.289 113.607 104.38 113.257 104.35 112.879L104.349 112.866C104.303 112.289 104.064 111.844 103.633 111.531C103.201 111.218 102.621 111.09 101.895 111.148L98.5418 111.415L99.1312 118.815ZM100.516 117.608L100.345 115.461L101.879 115.339C102.369 115.3 102.742 115.357 102.996 115.511C103.255 115.664 103.399 115.92 103.428 116.279L103.429 116.293C103.456 116.633 103.37 116.907 103.172 117.115C102.973 117.319 102.661 117.437 102.233 117.471L100.516 117.608ZM100.26 114.392L100.101 112.388L101.675 112.263C102.07 112.231 102.366 112.299 102.562 112.466C102.763 112.633 102.875 112.864 102.898 113.16L102.899 113.173C102.925 113.496 102.838 113.752 102.638 113.942C102.438 114.131 102.118 114.244 101.678 114.279L100.26 114.392ZM111.881 117.8L113.366 117.682L112.777 110.281L111.292 110.4L111.529 113.384L108.183 113.651L107.946 110.666L106.46 110.784L107.049 118.185L108.535 118.067L108.277 114.823L111.623 114.556L111.881 117.8ZM118.775 117.395C119.502 117.337 120.112 117.133 120.605 116.783C121.103 116.433 121.47 115.96 121.706 115.365C121.946 114.765 122.035 114.07 121.972 113.28L121.971 113.266C121.907 112.471 121.71 111.799 121.378 111.249C121.05 110.695 120.613 110.286 120.067 110.023C119.52 109.756 118.885 109.651 118.163 109.709C117.445 109.766 116.835 109.97 116.332 110.321C115.835 110.671 115.465 111.144 115.225 111.739C114.989 112.334 114.902 113.029 114.966 113.824L114.967 113.838C115.03 114.628 115.225 115.301 115.552 115.855C115.88 116.405 116.317 116.814 116.864 117.081C117.415 117.348 118.052 117.453 118.775 117.395ZM118.676 116.155C118.254 116.189 117.886 116.115 117.575 115.934C117.263 115.749 117.012 115.469 116.822 115.096C116.637 114.722 116.523 114.262 116.479 113.717L116.478 113.703C116.435 113.154 116.475 112.68 116.598 112.281C116.727 111.882 116.93 111.569 117.209 111.341C117.488 111.109 117.838 110.976 118.261 110.942C118.683 110.908 119.051 110.984 119.362 111.17C119.674 111.351 119.922 111.628 120.108 112.002C120.293 112.376 120.407 112.837 120.451 113.387L120.452 113.401C120.496 113.946 120.455 114.418 120.332 114.816C120.208 115.215 120.007 115.53 119.728 115.763C119.449 115.99 119.098 116.121 118.676 116.155Z" fill="white"/>
<path d="M177.598 106.876L177.265 102.699L175.759 102.819L176.092 106.996L175.73 107.025L171.875 103.129L170.082 103.271L174.629 107.751L174.619 107.621L170.552 113.129L172.433 112.98L175.826 108.314L176.194 108.284L176.542 112.652L178.048 112.532L177.7 108.164L178.061 108.136L182.157 112.205L184.058 112.054L179.148 107.233L179.158 107.356L182.921 102.249L181.149 102.39L177.959 106.848L177.598 106.876ZM188.226 111.866C188.703 111.828 189.119 111.733 189.472 111.581C189.831 111.429 190.131 111.243 190.374 111.023C190.622 110.802 190.815 110.565 190.955 110.311C191.095 110.053 191.187 109.799 191.231 109.549L191.239 109.486L189.808 109.6L189.785 109.657C189.741 109.788 189.649 109.926 189.51 110.07C189.375 110.213 189.195 110.339 188.971 110.449C188.75 110.553 188.481 110.618 188.163 110.643C187.75 110.676 187.384 110.614 187.065 110.456C186.751 110.299 186.498 110.054 186.307 109.721C186.116 109.389 186.001 108.98 185.962 108.494L185.915 107.901C185.875 107.392 185.922 106.956 186.058 106.594C186.198 106.23 186.404 105.949 186.676 105.749C186.953 105.544 187.275 105.427 187.643 105.398C188.011 105.368 188.342 105.429 188.638 105.579C188.933 105.729 189.174 105.973 189.361 106.31C189.552 106.642 189.669 107.072 189.711 107.599L189.758 108.192L190.388 107.154L185.141 107.572L185.225 108.628L191.208 108.152L191.167 107.634C191.108 106.889 190.922 106.25 190.61 105.717C190.297 105.179 189.879 104.776 189.355 104.507C188.835 104.237 188.23 104.13 187.539 104.185C186.853 104.24 186.266 104.449 185.779 104.812C185.296 105.175 184.936 105.657 184.701 106.256C184.469 106.855 184.385 107.541 184.446 108.313L184.447 108.32C184.509 109.101 184.701 109.767 185.024 110.317C185.351 110.867 185.786 111.278 186.329 111.551C186.872 111.818 187.504 111.923 188.226 111.866ZM198.191 110.928L199.677 110.81L199.087 103.41L197.602 103.528L197.84 106.512L194.494 106.779L194.256 103.794L192.77 103.913L193.36 111.313L194.845 111.195L194.587 107.951L197.933 107.685L198.191 110.928ZM201.932 110.63L211.445 109.873L210.856 102.472L209.37 102.591L209.866 108.812L207.338 109.013L206.842 102.792L205.357 102.91L205.852 109.132L203.324 109.333L202.828 103.112L201.343 103.23L201.932 110.63ZM211.395 111.831L212.779 111.721L212.531 108.607L209.907 108.816L210 109.988L211.241 109.889L211.395 111.831ZM214.103 109.661L215.575 109.544L218.815 103.471L217.858 104.116L218.628 104.055L219.043 109.268L220.515 109.15L219.926 101.75L218.454 101.867L215.212 107.913L216.169 107.275L215.399 107.336L214.985 102.143L213.513 102.261L214.103 109.661ZM227.602 108.586L229.088 108.468L228.498 101.067L227.013 101.186L227.25 104.17L223.904 104.437L223.667 101.452L222.181 101.57L222.771 108.971L224.256 108.852L223.998 105.609L227.344 105.342L227.602 108.586ZM233.39 108.248C233.717 108.222 234.016 108.153 234.286 108.04C234.556 107.927 234.793 107.776 234.997 107.586C235.201 107.391 235.366 107.163 235.491 106.902L235.6 106.893L235.684 107.942L237.156 107.825L236.752 102.762C236.711 102.244 236.562 101.81 236.306 101.46C236.054 101.106 235.702 100.848 235.25 100.687C234.803 100.522 234.268 100.464 233.645 100.513C233.086 100.558 232.596 100.682 232.173 100.884C231.755 101.087 231.424 101.351 231.18 101.677C230.94 101.997 230.807 102.365 230.781 102.778L230.778 102.826L232.202 102.713L232.214 102.691C232.279 102.421 232.436 102.203 232.683 102.037C232.935 101.871 233.268 101.771 233.681 101.738C234.176 101.699 234.557 101.778 234.825 101.976C235.096 102.169 235.248 102.47 235.281 102.879L235.466 105.21C235.492 105.528 235.433 105.821 235.289 106.088C235.146 106.351 234.934 106.569 234.656 106.742C234.381 106.91 234.06 107.009 233.692 107.038C233.296 107.07 232.962 107 232.688 106.83C232.413 106.655 232.262 106.4 232.236 106.064L232.235 106.05C232.208 105.718 232.308 105.452 232.534 105.251C232.76 105.046 233.126 104.907 233.633 104.835L236.148 104.47L236.065 103.427L233.345 103.808C232.468 103.933 231.804 104.203 231.353 104.619C230.905 105.029 230.708 105.566 230.761 106.229L230.762 106.243C230.797 106.688 230.935 107.068 231.175 107.383C231.415 107.697 231.726 107.931 232.108 108.083C232.495 108.231 232.922 108.286 233.39 108.248Z" fill="#989898"/>
<path d="M288.048 103.771L289.445 103.66L288.871 96.4505L289.621 96.3908L287.846 94.1663L292.43 103.422L293.561 103.332L296.63 93.4668L295.222 95.9447L295.979 95.8845L296.553 103.094L297.95 102.983L297.167 93.1497L295.402 93.2902L292.898 101.376L292.782 101.385L289.03 93.7977L287.265 93.9382L288.048 103.771ZM301.305 105.335C301.809 105.295 302.231 105.191 302.569 105.022C302.908 104.853 303.191 104.588 303.418 104.227C303.646 103.871 303.841 103.389 304.003 102.782L306.144 94.8829L304.584 95.0072L303.03 101.845L303.425 101.045L302.86 101.09L303.384 101.816L300.761 95.3116L299.159 95.4392L302.434 102.633L302.355 103.023C302.276 103.404 302.136 103.683 301.935 103.859C301.735 104.039 301.462 104.143 301.116 104.171C301.035 104.177 300.948 104.182 300.857 104.185C300.77 104.187 300.69 104.186 300.617 104.183L300.71 105.348C300.806 105.35 300.906 105.349 301.011 105.345C301.116 105.346 301.214 105.342 301.305 105.335ZM309.193 102.087L311.35 98.6034L311.786 98.5687L312.049 101.86L313.48 101.746L313.217 98.4547L313.654 98.42L316.335 101.519L318.12 101.376L314.773 97.6588L317.374 93.9886L315.677 94.1237L313.562 97.3575L313.133 97.3917L312.89 94.3457L311.459 94.4596L311.702 97.5056L311.273 97.5398L308.672 94.6816L306.955 94.8183L310.127 98.0494L307.428 102.228L309.193 102.087ZM325.139 100.818L324.55 93.4171L323.071 93.5349L323.315 96.6014C323.182 96.7628 322.978 96.9048 322.704 97.0272C322.43 97.145 322.089 97.2202 321.68 97.2527C321.203 97.2907 320.831 97.1877 320.565 96.9438C320.303 96.6949 320.153 96.3366 320.116 95.8686L319.95 93.7834L318.471 93.9012L318.644 96.0682C318.708 96.8768 318.994 97.5078 319.501 97.9612C320.012 98.4142 320.711 98.6054 321.597 98.5349C321.983 98.5041 322.318 98.4363 322.603 98.3313C322.887 98.2264 323.121 98.0935 323.305 97.9326L323.42 97.9233L323.66 100.935L325.139 100.818ZM327.395 100.638L328.866 100.521L332.106 94.4474L331.15 95.0928L331.92 95.0315L332.335 100.244L333.807 100.127L333.218 92.7268L331.746 92.8441L328.503 98.8901L329.461 98.2515L328.691 98.3128L328.277 93.1203L326.805 93.2375L327.395 100.638ZM340.894 99.5628L342.379 99.4445L341.79 92.0441L340.304 92.1624L340.542 95.1471L337.196 95.4136L336.959 92.4289L335.473 92.5472L336.062 99.9476L337.548 99.8293L337.29 96.5857L340.635 96.3192L340.894 99.5628ZM346.682 99.2253C347.009 99.1993 347.308 99.1298 347.578 99.0168C347.847 98.9039 348.085 98.7525 348.289 98.5625C348.493 98.3679 348.658 98.1399 348.783 97.8785L348.892 97.8698L348.976 98.9192L350.448 98.802L350.044 93.7389C350.003 93.221 349.854 92.7872 349.598 92.4373C349.346 92.0825 348.994 91.8248 348.542 91.6642C348.094 91.4986 347.559 91.4407 346.937 91.4902C346.378 91.5347 345.888 91.6584 345.465 91.8612C345.047 92.0637 344.716 92.3278 344.472 92.6535C344.232 92.9743 344.099 93.3415 344.073 93.7551L344.07 93.8033L345.494 93.6899L345.506 93.6683C345.571 93.398 345.728 93.1798 345.975 93.0138C346.227 92.8475 346.559 92.7478 346.973 92.7149C347.468 92.6755 347.849 92.7548 348.116 92.953C348.388 93.1462 348.54 93.4473 348.572 93.8562L348.758 96.1867C348.783 96.5047 348.724 96.7974 348.581 97.0648C348.437 97.3277 348.226 97.5457 347.947 97.7187C347.673 97.8869 347.351 97.9856 346.983 98.015C346.588 98.0464 346.254 97.9771 345.979 97.8069C345.705 97.6322 345.554 97.3767 345.528 97.0405L345.526 97.0269C345.5 96.6953 345.6 96.429 345.826 96.2281C346.052 96.0227 346.418 95.8838 346.925 95.8115L349.44 95.4466L349.357 94.404L346.637 94.7852C345.76 94.9099 345.096 95.1799 344.644 95.5954C344.197 96.0059 344 96.5427 344.053 97.206L344.054 97.2196C344.089 97.6648 344.227 98.0448 344.467 98.3594C344.707 98.674 345.018 98.9075 345.4 99.0599C345.787 99.2075 346.214 99.2626 346.682 99.2253Z" fill="#989898"/>
</g>
<defs>
<filter id="filter0_d_734_21950" x="0.371094" y="1.37305" width="394.935" height="171.992" filterUnits="userSpaceOnUse" color-interpolation-filters="sRGB">
<feFlood flood-opacity="0" result="BackgroundImageFix"/>
<feColorMatrix in="SourceAlpha" type="matrix" values="0 0 0 0 0 0 0 0 0 0 0 0 0 0 0 0 0 0 127 0" result="hardAlpha"/>
<feOffset dy="4"/>
<feGaussianBlur stdDeviation="2"/>
<feComposite in2="hardAlpha" operator="out"/>
<feColorMatrix type="matrix" values="0 0 0 0 0 0 0 0 0 0 0 0 0 0 0 0 0 0 0.25 0"/>
<feBlend mode="normal" in2="BackgroundImageFix" result="effect1_dropShadow_734_21950"/>
<feBlend mode="normal" in="SourceGraphic" in2="effect1_dropShadow_734_21950" result="shape"/>
</filter>
</defs>
</svg>
