<svg width="415" height="232" viewBox="0 0 415 232" fill="none" xmlns="http://www.w3.org/2000/svg">
<g filter="url(#filter0_d_734_21958)">
<g filter="url(#filter1_d_734_21958)">
<rect x="32.8613" y="7.41797" width="380" height="156" rx="20" transform="rotate(9.54251 32.8613 7.41797)" fill="white"/>
</g>
<rect x="41.2305" y="17.9512" width="361" height="21" rx="10.5" transform="rotate(9.54251 41.2305 17.9512)" fill="#E9E9E9"/>
<rect x="41.2305" y="17.9512" width="177" height="21" rx="10.5" transform="rotate(9.54251 41.2305 17.9512)" fill="#E55A39"/>
<circle cx="48.8586" cy="29.8818" r="2.5" transform="rotate(9.54251 48.8586 29.8818)" fill="white"/>
<circle cx="203.687" cy="55.9072" r="2.5" transform="rotate(9.54251 203.687 55.9072)" fill="white"/>
<path d="M98.3939 103.661L100.64 104.039L111.101 93.2594L109.348 93.8362L110.492 94.0285L108.585 105.374L110.947 105.771L113.517 90.4848L111.271 90.1073L100.807 100.908L102.538 100.327L101.415 100.139L103.326 88.7717L100.964 88.3746L98.3939 103.661ZM114.178 106.314L128.723 108.76L130.625 97.4457L128.326 97.0592L126.732 106.54L122.908 105.898L124.502 96.4163L122.203 96.0299L120.609 105.511L116.785 104.868L118.379 95.387L116.08 95.0006L114.178 106.314ZM127.866 111.72L129.985 112.076L130.799 107.235L126.752 106.555L126.446 108.377L128.374 108.701L127.866 111.72ZM137.171 110.408C137.877 110.527 138.525 110.542 139.114 110.452C139.704 110.355 140.226 110.185 140.681 109.942C141.144 109.693 141.532 109.395 141.844 109.048C142.165 108.695 142.406 108.318 142.568 107.917L142.616 107.827L140.402 107.455L140.356 107.534C140.224 107.759 140.026 107.962 139.763 108.143C139.501 108.324 139.181 108.455 138.804 108.537C138.428 108.612 138.007 108.61 137.541 108.532C136.906 108.425 136.381 108.195 135.969 107.843C135.557 107.483 135.272 107.021 135.112 106.457C134.953 105.893 134.936 105.24 135.06 104.498L135.212 103.598C135.341 102.828 135.574 102.199 135.91 101.711C136.255 101.217 136.668 100.873 137.151 100.678C137.643 100.477 138.167 100.424 138.725 100.517C139.283 100.611 139.752 100.824 140.132 101.157C140.519 101.491 140.787 101.943 140.939 102.513C141.098 103.077 141.11 103.761 140.975 104.567L140.823 105.467L142.201 104.141L134.16 102.789L133.886 104.421L143.049 105.961L143.183 105.167C143.373 104.037 143.335 103.01 143.069 102.086C142.803 101.163 142.325 100.4 141.635 99.7975C140.951 99.1961 140.08 98.8064 139.021 98.6283C137.969 98.4514 137.009 98.5442 136.142 98.9068C135.282 99.2706 134.562 99.8576 133.983 100.668C133.411 101.48 133.026 102.475 132.827 103.654L132.826 103.665C132.625 104.859 132.663 105.929 132.94 106.876C133.223 107.824 133.72 108.605 134.43 109.218C135.149 109.825 136.062 110.222 137.171 110.408ZM146.859 111.808L148.181 103.948L148.318 103.971L150.396 111.956L152.081 112.239L156.677 105.376L156.804 105.398L155.482 113.258L157.718 113.634L159.62 102.32L156.812 101.848L151.779 109.498L151.652 109.477L149.418 100.605L146.526 100.119L144.624 111.433L146.859 111.808ZM170.583 116.025C171.508 116.181 172.341 116.15 173.082 115.933C173.824 115.71 174.449 115.342 174.956 114.832C175.471 114.316 175.844 113.696 176.075 112.972L176.099 112.889L173.896 112.519L173.862 112.59C173.605 113.171 173.225 113.597 172.721 113.868C172.225 114.141 171.621 114.217 170.907 114.097C170.3 113.995 169.796 113.751 169.397 113.364C168.998 112.97 168.725 112.456 168.578 111.821C168.43 111.186 168.426 110.456 168.565 109.629L168.567 109.619C168.703 108.807 168.944 108.128 169.29 107.584C169.636 107.039 170.058 106.645 170.556 106.402C171.062 106.16 171.618 106.091 172.225 106.193C172.981 106.32 173.545 106.614 173.918 107.076C174.298 107.532 174.502 108.05 174.528 108.628L174.539 108.695L176.742 109.065L176.744 108.989C176.78 108.255 176.647 107.56 176.343 106.907C176.04 106.246 175.568 105.68 174.929 105.209C174.296 104.74 173.499 104.424 172.539 104.263C171.451 104.08 170.468 104.162 169.589 104.508C168.712 104.847 167.98 105.417 167.395 106.219C166.818 107.016 166.429 108.014 166.227 109.215L166.225 109.225C166.021 110.44 166.06 111.525 166.343 112.48C166.626 113.428 167.127 114.21 167.844 114.824C168.568 115.44 169.482 115.84 170.583 116.025ZM182.565 118.039C183.659 118.223 184.645 118.146 185.523 117.807C186.408 117.469 187.142 116.899 187.728 116.097C188.314 115.288 188.709 114.276 188.913 113.061L188.917 113.04C189.12 111.832 189.073 110.753 188.775 109.803C188.484 108.853 187.976 108.074 187.25 107.466C186.532 106.858 185.629 106.463 184.541 106.281C183.454 106.098 182.468 106.175 181.583 106.513C180.705 106.852 179.97 107.422 179.378 108.223C178.793 109.025 178.399 110.03 178.196 111.238L178.193 111.259C177.988 112.474 178.031 113.559 178.321 114.516C178.611 115.465 179.119 116.244 179.845 116.852C180.57 117.461 181.477 117.857 182.565 118.039ZM182.899 116.113C182.271 116.007 181.757 115.761 181.357 115.375C180.964 114.989 180.693 114.482 180.545 113.855C180.404 113.221 180.404 112.491 180.543 111.665L180.546 111.644C180.686 110.81 180.926 110.121 181.264 109.575C181.61 109.03 182.031 108.64 182.529 108.404C183.033 108.169 183.596 108.104 184.217 108.209C184.839 108.313 185.349 108.559 185.749 108.945C186.15 109.325 186.421 109.832 186.561 110.465C186.703 111.092 186.703 111.822 186.563 112.655L186.56 112.676C186.421 113.503 186.181 114.192 185.842 114.745C185.503 115.291 185.081 115.681 184.577 115.916C184.08 116.152 183.521 116.218 182.899 116.113ZM195.319 120.183C196.428 120.37 197.424 120.298 198.308 119.967C199.191 119.636 199.921 119.073 200.498 118.276C201.082 117.481 201.474 116.491 201.673 115.304L201.677 115.283C201.864 114.167 201.821 113.169 201.548 112.288C201.276 111.399 200.804 110.67 200.13 110.099C199.457 109.521 198.616 109.148 197.606 108.978C196.723 108.829 195.92 108.88 195.195 109.128C194.479 109.371 193.877 109.8 193.389 110.415L193.283 110.397L193.334 110.22C193.645 109.234 194.009 108.453 194.425 107.877C194.842 107.3 195.362 106.905 195.986 106.69C196.618 106.477 197.398 106.434 198.328 106.561L199.448 106.706C200.095 106.786 200.69 106.813 201.231 106.788C201.78 106.764 202.162 106.694 202.378 106.577L202.698 104.671C202.282 104.768 201.802 104.818 201.257 104.82C200.712 104.823 200.176 104.791 199.65 104.725L198.509 104.576C197.101 104.398 195.904 104.545 194.917 105.018C193.936 105.492 193.13 106.337 192.497 107.553C191.866 108.761 191.378 110.385 191.035 112.426L191.032 112.448C190.656 114.679 190.834 116.452 191.565 117.766C192.295 119.08 193.547 119.885 195.319 120.183ZM195.62 118.262C194.971 118.153 194.442 117.908 194.034 117.527C193.633 117.148 193.357 116.651 193.206 116.037C193.062 115.425 193.058 114.716 193.193 113.911L193.196 113.89C193.326 113.12 193.556 112.487 193.886 111.991C194.223 111.496 194.642 111.145 195.141 110.938C195.648 110.733 196.226 110.685 196.876 110.794C197.519 110.902 198.042 111.135 198.447 111.494C198.858 111.853 199.139 112.322 199.289 112.899C199.439 113.476 199.449 114.149 199.32 114.919L199.316 114.94C199.181 115.746 198.945 116.414 198.609 116.946C198.272 117.477 197.849 117.856 197.339 118.083C196.836 118.311 196.263 118.371 195.62 118.262ZM207.957 122.308C208.664 122.427 209.311 122.441 209.9 122.351C210.49 122.254 211.012 122.084 211.467 121.841C211.93 121.592 212.318 121.295 212.63 120.948C212.951 120.595 213.192 120.218 213.354 119.817L213.402 119.727L211.188 119.354L211.142 119.434C211.01 119.659 210.812 119.861 210.549 120.042C210.287 120.223 209.967 120.355 209.59 120.437C209.214 120.511 208.793 120.51 208.327 120.431C207.692 120.324 207.167 120.095 206.755 119.742C206.343 119.382 206.058 118.92 205.898 118.356C205.739 117.792 205.722 117.139 205.846 116.398L205.998 115.497C206.127 114.727 206.36 114.099 206.696 113.61C207.041 113.116 207.454 112.772 207.937 112.577C208.429 112.377 208.953 112.323 209.511 112.417C210.069 112.511 210.538 112.724 210.918 113.056C211.305 113.39 211.574 113.842 211.725 114.412C211.884 114.976 211.896 115.661 211.761 116.466L211.609 117.367L212.987 116.04L204.946 114.689L204.672 116.32L213.836 117.861L213.969 117.066C214.159 115.936 214.121 114.909 213.855 113.986C213.589 113.063 213.111 112.3 212.421 111.697C211.738 111.096 210.866 110.706 209.807 110.528C208.755 110.351 207.795 110.444 206.928 110.806C206.068 111.17 205.348 111.757 204.769 112.568C204.197 113.379 203.812 114.375 203.614 115.554L203.612 115.565C203.411 116.758 203.449 117.828 203.726 118.775C204.009 119.724 204.506 120.504 205.216 121.117C205.935 121.725 206.849 122.122 207.957 122.308ZM220.203 124.367C221.129 124.522 221.962 124.492 222.702 124.275C223.445 124.051 224.069 123.684 224.576 123.174C225.091 122.658 225.464 122.038 225.695 121.314L225.72 121.231L223.516 120.86L223.482 120.931C223.225 121.512 222.845 121.939 222.342 122.21C221.846 122.482 221.241 122.559 220.528 122.439C219.92 122.337 219.417 122.092 219.017 121.705C218.618 121.312 218.345 120.797 218.198 120.162C218.05 119.528 218.046 118.797 218.185 117.971L218.187 117.96C218.323 117.148 218.564 116.47 218.91 115.925C219.256 115.38 219.678 114.987 220.176 114.744C220.682 114.502 221.238 114.432 221.845 114.534C222.601 114.661 223.165 114.956 223.538 115.418C223.919 115.874 224.122 116.391 224.148 116.969L224.159 117.036L226.362 117.407L226.364 117.331C226.401 116.596 226.267 115.902 225.963 115.248C225.66 114.587 225.189 114.021 224.549 113.551C223.916 113.081 223.119 112.766 222.159 112.604C221.071 112.421 220.088 112.503 219.209 112.849C218.332 113.188 217.6 113.759 217.015 114.561C216.439 115.357 216.049 116.356 215.847 117.556L215.846 117.567C215.641 118.781 215.681 119.866 215.963 120.822C216.247 121.77 216.747 122.551 217.464 123.165C218.189 123.781 219.102 124.181 220.203 124.367ZM232.153 126.375C232.859 126.494 233.507 126.509 234.096 126.419C234.686 126.322 235.208 126.152 235.663 125.909C236.126 125.66 236.513 125.362 236.826 125.015C237.147 124.662 237.388 124.285 237.55 123.884L237.598 123.794L235.384 123.422L235.338 123.501C235.205 123.726 235.008 123.929 234.745 124.11C234.482 124.291 234.162 124.422 233.786 124.504C233.41 124.579 232.989 124.577 232.523 124.499C231.887 124.392 231.363 124.162 230.95 123.809C230.539 123.45 230.253 122.988 230.094 122.424C229.935 121.86 229.917 121.207 230.042 120.465L230.193 119.565C230.323 118.795 230.556 118.166 230.892 117.678C231.236 117.184 231.65 116.839 232.133 116.645C232.624 116.444 233.149 116.391 233.707 116.484C234.265 116.578 234.734 116.791 235.113 117.124C235.5 117.458 235.769 117.91 235.92 118.48C236.08 119.044 236.092 119.728 235.956 120.533L235.805 121.434L237.183 120.108L229.142 118.756L228.868 120.388L238.031 121.928L238.165 121.133C238.355 120.004 238.317 118.977 238.051 118.053C237.785 117.13 237.307 116.367 236.616 115.764C235.933 115.163 235.062 114.773 234.003 114.595C232.95 114.418 231.991 114.511 231.124 114.874C230.264 115.238 229.544 115.825 228.965 116.635C228.393 117.447 228.007 118.442 227.809 119.621L227.807 119.632C227.607 120.826 227.645 121.896 227.921 122.843C228.205 123.791 228.702 124.572 229.412 125.185C230.131 125.792 231.044 126.189 232.153 126.375ZM239.882 130.55L240.39 127.531L248.769 128.94L248.262 131.959L250.38 132.315L251.196 127.463L249.438 127.168L251.031 117.687L242.811 116.305L241.375 122.316C241.199 123.063 240.956 123.734 240.645 124.328C240.336 124.915 239.951 125.304 239.49 125.496L238.579 125.342L237.764 130.194L239.882 130.55ZM247.139 126.781L241.98 125.914L241.999 125.798C242.328 125.483 242.61 125.061 242.843 124.534C243.086 124.001 243.283 123.41 243.436 122.76L244.484 118.47L248.424 119.133L247.139 126.781ZM260.21 130.863L262.509 131.25L264.411 119.936L262.112 119.549L261.346 124.105L256.24 123.246L257.006 118.691L254.707 118.305L252.805 129.618L255.104 130.005L255.934 125.068L261.04 125.927L260.21 130.863ZM265.454 131.745L267.732 132.128L274.925 124.263L273.211 124.868L274.366 125.062L273.028 133.018L275.306 133.401L277.208 122.087L274.941 121.706L267.742 129.537L269.456 128.932L268.312 128.739L269.644 120.816L267.356 120.431L265.454 131.745ZM281.892 129.345L285.148 135.055L287.987 135.533L283.91 128.486L283.856 128.804L289.687 124.185L286.986 123.731L282.159 127.69L281.672 127.609L282.452 122.969L280.153 122.582L278.251 133.896L280.55 134.282L281.394 129.261L281.892 129.345ZM294.305 136.824C295.4 137.008 296.386 136.93 297.264 136.591C298.148 136.253 298.883 135.683 299.468 134.881C300.055 134.072 300.45 133.06 300.654 131.845L300.658 131.824C300.861 130.616 300.813 129.537 300.516 128.587C300.225 127.637 299.717 126.858 298.991 126.25C298.273 125.643 297.37 125.248 296.282 125.065C295.194 124.882 294.208 124.959 293.324 125.297C292.446 125.636 291.711 126.206 291.119 127.007C290.534 127.809 290.14 128.814 289.937 130.022L289.933 130.043C289.729 131.258 289.772 132.343 290.061 133.3C290.352 134.249 290.86 135.028 291.586 135.637C292.311 136.245 293.218 136.641 294.305 136.824ZM294.64 134.897C294.011 134.792 293.497 134.545 293.098 134.159C292.705 133.773 292.434 133.267 292.286 132.639C292.145 132.005 292.144 131.275 292.283 130.449L292.287 130.428C292.427 129.594 292.666 128.905 293.005 128.359C293.351 127.814 293.772 127.424 294.269 127.188C294.774 126.953 295.336 126.888 295.958 126.993C296.579 127.097 297.09 127.343 297.49 127.73C297.891 128.109 298.161 128.616 298.302 129.249C298.443 129.876 298.444 130.606 298.304 131.439L298.3 131.46C298.162 132.287 297.922 132.976 297.582 133.529C297.244 134.075 296.822 134.465 296.318 134.7C295.821 134.936 295.262 135.002 294.64 134.897ZM302.129 137.91L307.32 138.783C308.556 138.99 309.576 138.861 310.381 138.393C311.194 137.92 311.683 137.192 311.848 136.211L311.851 136.189C311.929 135.73 311.895 135.304 311.751 134.909C311.615 134.508 311.386 134.161 311.065 133.868C310.744 133.574 310.342 133.354 309.858 133.207L309.88 133.08C310.447 133.074 310.954 132.869 311.399 132.464C311.846 132.053 312.118 131.558 312.215 130.978L312.219 130.957C312.369 130.067 312.173 129.308 311.632 128.68C311.099 128.053 310.278 127.646 309.169 127.46L304.031 126.596L302.129 137.91ZM304.702 136.6L305.251 133.337L307.518 133.718C308.273 133.845 308.816 134.071 309.147 134.395C309.484 134.72 309.607 135.158 309.514 135.709L309.51 135.73C309.421 136.26 309.184 136.638 308.797 136.863C308.412 137.082 307.891 137.136 307.234 137.025L304.702 136.6ZM305.528 131.684L306.034 128.676L308.407 129.075C308.986 129.172 309.399 129.376 309.644 129.686C309.89 129.996 309.974 130.38 309.897 130.839L309.893 130.86C309.809 131.362 309.583 131.712 309.216 131.912C308.848 132.112 308.329 132.155 307.658 132.042L305.528 131.684ZM312.357 143.224L313.978 143.497L316.596 137.967L314.223 137.568L312.357 143.224ZM89.8746 123.43L93.1302 129.141L95.9693 129.618L91.8926 122.571L91.8392 122.889L97.6699 118.271L94.9686 117.816L90.1418 121.776L89.6545 121.694L90.4345 117.054L88.1357 116.668L86.2338 127.982L88.5326 128.368L89.3767 123.347L89.8746 123.43ZM102.288 130.909C103.383 131.093 104.369 131.016 105.246 130.677C106.131 130.339 106.866 129.769 107.451 128.967C108.037 128.158 108.432 127.146 108.637 125.931L108.64 125.91C108.843 124.702 108.796 123.623 108.498 122.672C108.208 121.723 107.699 120.944 106.974 120.336C106.255 119.728 105.352 119.333 104.265 119.15C103.177 118.968 102.191 119.045 101.306 119.383C100.429 119.722 99.6939 120.292 99.1017 121.093C98.5166 121.895 98.1226 122.9 97.9196 124.108L97.916 124.129C97.7118 125.343 97.7545 126.429 98.0439 127.385C98.3346 128.335 98.8427 129.114 99.5682 129.722C100.294 130.331 101.2 130.726 102.288 130.909ZM102.623 128.983C101.994 128.877 101.48 128.631 101.08 128.244C100.688 127.859 100.417 127.352 100.268 126.724C100.128 126.091 100.127 125.361 100.266 124.535L100.27 124.513C100.41 123.68 100.649 122.991 100.988 122.445C101.333 121.9 101.755 121.51 102.252 121.274C102.756 121.039 103.319 120.974 103.941 121.078C104.562 121.183 105.073 121.428 105.472 121.815C105.873 122.195 106.144 122.702 106.284 123.335C106.426 123.962 106.427 124.692 106.287 125.525L106.283 125.546C106.144 126.372 105.905 127.062 105.565 127.615C105.226 128.161 104.805 128.551 104.301 128.786C103.804 129.022 103.244 129.087 102.623 128.983ZM120.022 122.028L110.626 120.448L110.32 122.271L113.868 122.867L112.273 132.359L114.572 132.745L116.167 123.254L119.716 123.85L120.022 122.028ZM124.725 134.681C125.82 134.865 126.806 134.788 127.684 134.449C128.568 134.111 129.303 133.541 129.888 132.739C130.474 131.929 130.87 130.917 131.074 129.703L131.077 129.682C131.28 128.474 131.233 127.395 130.935 126.444C130.645 125.495 130.137 124.716 129.411 124.107C128.693 123.5 127.789 123.105 126.702 122.922C125.614 122.739 124.628 122.817 123.743 123.155C122.866 123.494 122.131 124.064 121.539 124.865C120.954 125.667 120.56 126.672 120.357 127.879L120.353 127.901C120.149 129.115 120.192 130.201 120.481 131.157C120.772 132.107 121.28 132.885 122.005 133.494C122.731 134.103 123.638 134.498 124.725 134.681ZM125.06 132.755C124.431 132.649 123.917 132.403 123.517 132.016C123.125 131.631 122.854 131.124 122.705 130.496C122.565 129.863 122.564 129.133 122.703 128.306L122.707 128.285C122.847 127.452 123.086 126.762 123.425 126.217C123.771 125.672 124.192 125.282 124.689 125.046C125.193 124.811 125.756 124.746 126.378 124.85C126.999 124.955 127.51 125.2 127.91 125.587C128.311 125.967 128.581 126.473 128.722 127.107C128.863 127.733 128.864 128.463 128.724 129.297L128.72 129.318C128.581 130.144 128.342 130.834 128.002 131.387C127.663 131.933 127.242 132.323 126.738 132.558C126.241 132.794 125.681 132.859 125.06 132.755ZM131.925 139.541L134.224 139.927L135.17 134.302L135.286 134.321C135.427 134.781 135.644 135.195 135.938 135.564C136.24 135.927 136.603 136.231 137.026 136.477C137.457 136.723 137.937 136.891 138.467 136.98C139.42 137.14 140.287 137.039 141.067 136.677C141.847 136.314 142.504 135.731 143.038 134.927C143.574 134.117 143.943 133.111 144.144 131.911L144.148 131.89C144.349 130.696 144.328 129.629 144.087 128.688C143.846 127.747 143.413 126.977 142.787 126.378C142.169 125.78 141.379 125.4 140.419 125.239C139.889 125.15 139.384 125.152 138.903 125.246C138.423 125.339 137.984 125.512 137.585 125.765C137.195 126.011 136.855 126.332 136.563 126.726L136.447 126.706L136.76 124.842L134.461 124.455L131.925 139.541ZM138.154 134.891C137.546 134.788 137.043 134.541 136.645 134.147C136.246 133.753 135.968 133.245 135.811 132.623C135.662 132.003 135.653 131.297 135.786 130.506L135.79 130.485C135.924 129.687 136.163 129.019 136.508 128.481C136.859 127.945 137.288 127.556 137.793 127.314C138.299 127.072 138.855 127.002 139.462 127.104C140.077 127.208 140.58 127.456 140.971 127.848C141.371 128.235 141.642 128.738 141.785 129.357C141.928 129.977 141.932 130.689 141.796 131.494L141.793 131.516C141.659 132.314 141.423 132.982 141.085 133.521C140.748 134.059 140.33 134.45 139.832 134.693C139.334 134.929 138.775 134.995 138.154 134.891ZM145.621 137.965L150.113 138.72C151.419 138.94 152.52 138.765 153.414 138.197C154.317 137.622 154.869 136.738 155.069 135.545L155.073 135.524C155.273 134.33 155.041 133.318 154.374 132.487C153.716 131.65 152.734 131.122 151.427 130.902L149.234 130.533L149.822 127.038L147.523 126.651L145.621 137.965ZM150.909 132.689C151.573 132.8 152.071 133.076 152.404 133.517C152.736 133.958 152.849 134.496 152.742 135.132L152.739 135.153C152.634 135.774 152.352 136.243 151.893 136.557C151.44 136.874 150.878 136.975 150.207 136.862L148.226 136.529L148.928 132.356L150.909 132.689ZM156.024 139.714L158.323 140.1L160.225 128.786L157.926 128.4L156.024 139.714ZM166.051 141.628C166.757 141.747 167.404 141.761 167.993 141.671C168.583 141.574 169.105 141.405 169.56 141.161C170.023 140.912 170.411 140.615 170.724 140.268C171.044 139.915 171.286 139.538 171.447 139.137L171.495 139.047L169.281 138.675L169.235 138.754C169.103 138.979 168.905 139.181 168.643 139.362C168.38 139.543 168.06 139.675 167.683 139.757C167.308 139.831 166.887 139.83 166.421 139.751C165.785 139.644 165.261 139.415 164.848 139.062C164.436 138.702 164.151 138.241 163.992 137.676C163.832 137.112 163.815 136.459 163.94 135.718L164.091 134.817C164.22 134.048 164.453 133.419 164.789 132.93C165.134 132.436 165.548 132.092 166.031 131.897C166.522 131.697 167.046 131.643 167.604 131.737C168.162 131.831 168.631 132.044 169.011 132.377C169.398 132.71 169.667 133.162 169.818 133.732C169.977 134.296 169.989 134.981 169.854 135.786L169.703 136.687L171.08 135.36L163.04 134.009L162.765 135.64L171.929 137.181L172.062 136.386C172.252 135.256 172.214 134.229 171.948 133.306C171.682 132.383 171.204 131.62 170.514 131.017C169.831 130.416 168.96 130.026 167.9 129.848C166.848 129.671 165.888 129.764 165.021 130.126C164.161 130.49 163.442 131.077 162.862 131.888C162.29 132.699 161.905 133.695 161.707 134.874L161.705 134.885C161.504 136.078 161.542 137.148 161.819 138.095C162.102 139.044 162.599 139.824 163.31 140.437C164.028 141.045 164.942 141.442 166.051 141.628ZM178.631 143.514L183.822 144.387C185.057 144.594 186.078 144.465 186.883 143.997C187.696 143.524 188.185 142.796 188.35 141.815L188.353 141.793C188.43 141.334 188.397 140.908 188.253 140.513C188.117 140.113 187.888 139.765 187.567 139.472C187.246 139.178 186.844 138.958 186.36 138.811L186.381 138.684C186.949 138.678 187.455 138.473 187.901 138.068C188.348 137.657 188.62 137.162 188.717 136.583L188.721 136.561C188.87 135.671 188.675 134.912 188.134 134.284C187.601 133.657 186.779 133.25 185.671 133.064L180.533 132.2L178.631 143.514ZM181.204 142.204L181.752 138.941L184.019 139.322C184.775 139.449 185.318 139.675 185.648 139.999C185.986 140.324 186.108 140.763 186.016 141.313L186.012 141.335C185.923 141.864 185.685 142.242 185.299 142.467C184.914 142.686 184.393 142.74 183.736 142.629L181.204 142.204ZM182.03 137.288L182.536 134.28L184.909 134.679C185.488 134.776 185.9 134.98 186.146 135.29C186.392 135.6 186.476 135.984 186.399 136.443L186.395 136.464C186.311 136.966 186.085 137.316 185.717 137.516C185.35 137.716 184.83 137.759 184.159 137.646L182.03 137.288ZM193.502 146.221C194.003 146.305 194.482 146.309 194.938 146.234C195.402 146.152 195.827 145.998 196.213 145.773C196.608 145.541 196.948 145.25 197.232 144.898L197.338 144.916L197.053 146.611L199.352 146.997L200.657 139.232C200.788 138.455 200.72 137.758 200.453 137.139C200.188 136.514 199.746 135.993 199.126 135.576C198.514 135.154 197.739 134.864 196.799 134.706C195.902 134.555 195.095 134.565 194.376 134.734C193.665 134.905 193.07 135.205 192.591 135.633C192.121 136.055 191.797 136.577 191.62 137.201L191.591 137.305L193.774 137.672L193.807 137.602C193.991 137.197 194.306 136.901 194.752 136.715C195.197 136.528 195.744 136.489 196.394 136.599C197.136 136.723 197.672 136.991 198.002 137.403C198.333 137.807 198.447 138.32 198.342 138.941L197.76 142.405C197.678 142.893 197.477 143.309 197.158 143.655C196.846 143.995 196.453 144.241 195.977 144.393C195.501 144.546 194.988 144.575 194.437 144.483C193.815 144.378 193.335 144.149 192.995 143.794C192.662 143.44 192.539 143.009 192.624 142.501L192.628 142.479C192.711 141.985 192.963 141.628 193.385 141.408C193.808 141.182 194.39 141.109 195.132 141.19L199.093 141.605L199.365 139.985L195.095 139.528C193.741 139.38 192.644 139.534 191.805 139.988C190.973 140.444 190.473 141.17 190.306 142.165L190.302 142.186C190.188 142.864 190.25 143.489 190.489 144.059C190.728 144.622 191.107 145.092 191.624 145.47C192.142 145.847 192.768 146.098 193.502 146.221ZM204.49 147.861L205.811 140.001L205.949 140.024L208.027 148.009L209.711 148.292L214.307 141.429L214.434 141.45L213.113 149.311L215.348 149.686L217.25 138.373L214.443 137.901L209.409 145.551L209.282 145.53L207.048 136.658L204.156 136.171L202.254 147.485L204.49 147.861ZM223.42 151.043L225.719 151.43L227.315 141.938L232.315 142.779L230.719 152.27L233.029 152.659L234.931 141.345L225.322 139.73L223.42 151.043ZM240.788 154.192C241.883 154.376 242.869 154.298 243.746 153.959C244.631 153.621 245.366 153.052 245.951 152.249C246.537 151.44 246.933 150.428 247.137 149.214L247.14 149.192C247.343 147.985 247.296 146.906 246.998 145.955C246.708 145.006 246.199 144.227 245.474 143.618C244.755 143.011 243.852 142.616 242.765 142.433C241.677 142.25 240.691 142.328 239.806 142.665C238.929 143.005 238.194 143.574 237.602 144.375C237.017 145.178 236.623 146.182 236.42 147.39L236.416 147.411C236.212 148.626 236.254 149.712 236.544 150.668C236.835 151.617 237.343 152.396 238.068 153.005C238.794 153.613 239.7 154.009 240.788 154.192ZM241.123 152.266C240.494 152.16 239.98 151.914 239.58 151.527C239.188 151.141 238.917 150.635 238.768 150.007C238.628 149.373 238.627 148.644 238.766 147.817L238.77 147.796C238.91 146.963 239.149 146.273 239.488 145.727C239.833 145.183 240.255 144.792 240.752 144.556C241.256 144.322 241.819 144.257 242.441 144.361C243.062 144.465 243.573 144.711 243.973 145.098C244.373 145.477 244.644 145.984 244.785 146.618C244.926 147.244 244.927 147.974 244.787 148.808L244.783 148.829C244.644 149.655 244.405 150.345 244.065 150.898C243.726 151.443 243.305 151.834 242.801 152.068C242.304 152.304 241.744 152.37 241.123 152.266ZM248.867 158.426L249.374 155.406L257.754 156.815L257.246 159.834L259.365 160.19L260.181 155.339L258.422 155.043L260.016 145.562L251.795 144.18L250.36 150.191C250.184 150.938 249.94 151.609 249.63 152.203C249.32 152.79 248.935 153.18 248.475 153.371L247.564 153.218L246.748 158.069L248.867 158.426ZM256.123 154.657L250.964 153.789L250.984 153.673C251.313 153.358 251.594 152.937 251.828 152.409C252.07 151.876 252.268 151.285 252.42 150.635L253.468 146.346L257.409 147.008L256.123 154.657ZM266.594 158.53C267.689 158.714 268.675 158.636 269.552 158.297C270.437 157.96 271.172 157.39 271.757 156.587C272.343 155.778 272.738 154.766 272.943 153.552L272.946 153.53C273.149 152.323 273.102 151.244 272.804 150.293C272.513 149.344 272.005 148.565 271.28 147.956C270.561 147.349 269.658 146.954 268.571 146.771C267.483 146.588 266.497 146.666 265.612 147.004C264.735 147.343 264 147.913 263.408 148.714C262.823 149.516 262.429 150.521 262.225 151.728L262.222 151.749C262.018 152.964 262.06 154.05 262.35 155.006C262.64 155.955 263.149 156.734 263.874 157.343C264.6 157.951 265.506 158.347 266.594 158.53ZM266.929 156.604C266.3 156.498 265.786 156.252 265.386 155.865C264.993 155.48 264.723 154.973 264.574 154.345C264.434 153.712 264.433 152.982 264.572 152.155L264.575 152.134C264.716 151.301 264.955 150.611 265.294 150.065C265.639 149.521 266.061 149.13 266.558 148.895C267.062 148.66 267.625 148.595 268.247 148.699C268.868 148.804 269.379 149.049 269.778 149.436C270.179 149.816 270.45 150.322 270.59 150.956C270.732 151.582 270.733 152.312 270.593 153.146L270.589 153.167C270.45 153.993 270.211 154.683 269.871 155.236C269.532 155.781 269.111 156.172 268.607 156.406C268.109 156.642 267.55 156.708 266.929 156.604ZM274.418 159.616L276.695 159.999L283.889 152.135L282.175 152.74L283.329 152.934L281.992 160.89L284.27 161.273L286.171 149.959L283.904 149.578L276.706 157.409L278.42 156.803L277.276 156.611L278.608 148.687L276.319 148.302L274.418 159.616ZM281.544 147.743C282.286 147.868 282.953 147.831 283.545 147.633C284.138 147.435 284.624 147.11 285.005 146.658C285.393 146.208 285.642 145.658 285.751 145.008L285.756 144.976L283.903 144.665L283.895 144.707C283.809 145.222 283.574 145.644 283.193 145.972C282.819 146.294 282.35 146.408 281.785 146.313C281.212 146.217 280.803 145.955 280.555 145.529C280.308 145.095 280.228 144.621 280.315 144.105L280.322 144.063L278.468 143.751L278.463 143.783C278.353 144.432 278.405 145.033 278.617 145.584C278.83 146.136 279.183 146.602 279.679 146.983C280.181 147.365 280.803 147.618 281.544 147.743ZM287.639 164.943L288.147 161.924L296.526 163.333L296.019 166.352L298.137 166.708L298.953 161.856L297.195 161.561L298.788 152.08L290.568 150.698L289.132 156.709C288.956 157.456 288.713 158.127 288.402 158.721C288.093 159.308 287.708 159.697 287.247 159.889L286.336 159.735L285.521 164.587L287.639 164.943ZM294.896 161.174L289.737 160.307L289.756 160.191C290.085 159.876 290.367 159.454 290.6 158.927C290.843 158.394 291.04 157.803 291.193 157.153L292.241 152.863L296.182 153.526L294.896 161.174ZM301.023 168.076C301.779 168.203 302.44 168.201 303.006 168.071C303.571 167.949 304.087 167.669 304.553 167.231C305.017 166.801 305.472 166.191 305.917 165.402L312.104 154.318L309.689 153.912L304.924 163.339L305.603 162.604L304.893 162.485L305.305 163.404L303.884 152.936L301.384 152.516L303.601 164.533L303.327 165.064C303.057 165.586 302.738 165.928 302.37 166.091C302.008 166.255 301.559 166.292 301.022 166.202C300.881 166.178 300.744 166.148 300.612 166.111C300.481 166.075 300.367 166.041 300.27 166.01L299.967 167.811C300.105 167.856 300.268 167.902 300.456 167.948C300.65 168.002 300.839 168.045 301.023 168.076ZM322.465 156.06L313.069 154.48L312.762 156.302L316.311 156.899L314.715 166.391L317.014 166.777L318.61 157.285L322.159 157.882L322.465 156.06Z" fill="#363636"/>
</g>
<defs>
<filter id="filter0_d_734_21958" x="6.03516" y="10.4531" width="402.532" height="218.768" filterUnits="userSpaceOnUse" color-interpolation-filters="sRGB">
<feFlood flood-opacity="0" result="BackgroundImageFix"/>
<feColorMatrix in="SourceAlpha" type="matrix" values="0 0 0 0 0 0 0 0 0 0 0 0 0 0 0 0 0 0 127 0" result="hardAlpha"/>
<feOffset dy="4"/>
<feGaussianBlur stdDeviation="2"/>
<feComposite in2="hardAlpha" operator="out"/>
<feColorMatrix type="matrix" values="0 0 0 0 0 0 0 0 0 0 0 0 0 0 0 0 0 0 0.25 0"/>
<feBlend mode="normal" in2="BackgroundImageFix" result="effect1_dropShadow_734_21958"/>
<feBlend mode="normal" in="SourceGraphic" in2="effect1_dropShadow_734_21958" result="shape"/>
</filter>
<filter id="filter1_d_734_21958" x="0.0351562" y="0.453125" width="414.532" height="230.768" filterUnits="userSpaceOnUse" color-interpolation-filters="sRGB">
<feFlood flood-opacity="0" result="BackgroundImageFix"/>
<feColorMatrix in="SourceAlpha" type="matrix" values="0 0 0 0 0 0 0 0 0 0 0 0 0 0 0 0 0 0 127 0" result="hardAlpha"/>
<feOffset/>
<feGaussianBlur stdDeviation="5"/>
<feComposite in2="hardAlpha" operator="out"/>
<feColorMatrix type="matrix" values="0 0 0 0 0 0 0 0 0 0 0 0 0 0 0 0 0 0 0.05 0"/>
<feBlend mode="normal" in2="BackgroundImageFix" result="effect1_dropShadow_734_21958"/>
<feBlend mode="normal" in="SourceGraphic" in2="effect1_dropShadow_734_21958" result="shape"/>
</filter>
</defs>
</svg>
