<svg width="438" height="98" viewBox="0 0 438 98" fill="none" xmlns="http://www.w3.org/2000/svg">
<rect x="0.824219" y="0.962891" width="436.387" height="96.2478" rx="48.1239" fill="#33A363"/>
<circle cx="48.9907" cy="49.0873" r="14.5619" fill="white"/>
<path d="M128.259 59.2219C125.319 62.1619 121.721 63.6319 117.465 63.6319C113.209 63.6319 109.597 62.1619 106.629 59.2219C103.689 56.2539 102.219 52.6419 102.219 48.3859C102.219 44.1299 103.689 40.5319 106.629 37.5919C109.597 34.6239 113.209 33.1399 117.465 33.1399C121.721 33.1399 125.319 34.6239 128.259 37.5919C131.227 40.5319 132.711 44.1299 132.711 48.3859C132.711 52.6419 131.227 56.2539 128.259 59.2219ZM110.031 55.9459C112.047 57.9339 114.525 58.9279 117.465 58.9279C120.405 58.9279 122.869 57.9339 124.857 55.9459C126.873 53.9299 127.881 51.4099 127.881 48.3859C127.881 45.3619 126.873 42.8559 124.857 40.8679C122.869 38.8519 120.405 37.8439 117.465 37.8439C114.525 37.8439 112.047 38.8519 110.031 40.8679C108.043 42.8559 107.049 45.3619 107.049 48.3859C107.049 51.4099 108.043 53.9299 110.031 55.9459ZM146.567 63.6319C143.347 63.6319 140.715 62.5959 138.671 60.5239C136.655 58.4239 135.647 55.7499 135.647 52.5019C135.647 48.9459 136.179 46.2019 137.243 44.2699C138.307 42.3099 140.463 40.5319 143.711 38.9359C144.243 38.6839 145.027 38.3199 146.063 37.8439C147.127 37.3679 147.855 37.0319 148.247 36.8359C148.639 36.6119 149.129 36.3039 149.717 35.9119C150.305 35.4919 150.739 35.0579 151.019 34.6099C151.299 34.1339 151.523 33.5739 151.691 32.9299L155.387 35.0719C155.275 35.6879 155.093 36.2619 154.841 36.7939C154.589 37.2979 154.225 37.7739 153.749 38.2219C153.273 38.6699 152.853 39.0339 152.489 39.3139C152.153 39.5939 151.579 39.9299 150.767 40.3219C149.955 40.7139 149.353 40.9939 148.961 41.1619C148.597 41.3299 147.897 41.6239 146.861 42.0439C145.013 42.7719 143.655 43.5279 142.787 44.3119C141.947 45.0679 141.359 46.0199 141.023 47.1679C142.703 45.2639 144.985 44.3119 147.869 44.3119C150.333 44.3119 152.475 45.1939 154.295 46.9579C156.143 48.7219 157.067 51.0039 157.067 53.8039C157.067 56.6599 156.087 59.0119 154.127 60.8599C152.195 62.7079 149.675 63.6319 146.567 63.6319ZM146.525 59.3899C148.289 59.3899 149.731 58.8719 150.851 57.8359C151.971 56.7719 152.531 55.4279 152.531 53.8039C152.531 52.1519 151.971 50.7939 150.851 49.7299C149.759 48.6659 148.331 48.1339 146.567 48.1339C144.999 48.1339 143.585 48.6379 142.325 49.6459C141.065 50.6259 140.435 51.9419 140.435 53.5939C140.435 55.2739 141.023 56.6599 142.199 57.7519C143.375 58.8439 144.817 59.3899 146.525 59.3899ZM172.139 49.2259C174.379 49.2259 176.213 49.8699 177.641 51.1579C179.069 52.4179 179.783 54.0839 179.783 56.1559C179.783 58.1999 179.069 59.8659 177.641 61.1539C176.213 62.4419 174.379 63.0859 172.139 63.0859H162.983V46.4539H157.187V42.0859H167.519V49.2259H172.139ZM172.181 59.0119C173.077 59.0119 173.819 58.7459 174.407 58.2139C175.023 57.6819 175.331 56.9959 175.331 56.1559C175.331 55.2879 175.023 54.6019 174.407 54.0979C173.819 53.5659 173.077 53.2999 172.181 53.2999H167.519V59.0119H172.181ZM186.822 54.5179C187.158 56.1139 187.928 57.3459 189.132 58.2139C190.336 59.0539 191.806 59.4739 193.542 59.4739C195.95 59.4739 197.756 58.6059 198.96 56.8699L202.698 59.0539C200.626 62.1059 197.56 63.6319 193.5 63.6319C190.084 63.6319 187.326 62.5959 185.226 60.5239C183.126 58.4239 182.076 55.7779 182.076 52.5859C182.076 49.4499 183.112 46.8319 185.184 44.7319C187.256 42.6039 189.916 41.5399 193.164 41.5399C196.244 41.5399 198.764 42.6179 200.724 44.7739C202.712 46.9299 203.706 49.5479 203.706 52.6279C203.706 53.1039 203.65 53.7339 203.538 54.5179H186.822ZM186.78 50.8219H199.128C198.82 49.1139 198.106 47.8259 196.986 46.9579C195.894 46.0899 194.606 45.6559 193.122 45.6559C191.442 45.6559 190.042 46.1179 188.922 47.0419C187.802 47.9659 187.088 49.2259 186.78 50.8219ZM225.357 58.8019H228.171V68.7139H223.719V63.0859H209.313V68.7139H204.861V58.8019H207.423C208.711 56.9819 209.355 54.4479 209.355 51.1999V42.0859H225.357V58.8019ZM212.421 58.8019H220.905V46.2439H213.807V51.1999C213.807 54.1959 213.345 56.7299 212.421 58.8019ZM247.06 42.0859H250.546V63.0859H246.094V49.7299L235.342 63.0859H231.856V42.0859H236.308V55.3999L247.06 42.0859ZM269.963 42.0859H274.499V63.0859H269.963V54.7279H260.345V63.0859H255.809V42.0859H260.345V50.4439H269.963V42.0859ZM283.332 54.5179C283.668 56.1139 284.438 57.3459 285.642 58.2139C286.846 59.0539 288.316 59.4739 290.052 59.4739C292.46 59.4739 294.266 58.6059 295.47 56.8699L299.208 59.0539C297.136 62.1059 294.07 63.6319 290.01 63.6319C286.594 63.6319 283.836 62.5959 281.736 60.5239C279.636 58.4239 278.586 55.7779 278.586 52.5859C278.586 49.4499 279.622 46.8319 281.694 44.7319C283.766 42.6039 286.426 41.5399 289.674 41.5399C292.754 41.5399 295.274 42.6179 297.234 44.7739C299.222 46.9299 300.216 49.5479 300.216 52.6279C300.216 53.1039 300.16 53.7339 300.048 54.5179H283.332ZM283.29 50.8219H295.638C295.33 49.1139 294.616 47.8259 293.496 46.9579C292.404 46.0899 291.116 45.6559 289.632 45.6559C287.952 45.6559 286.552 46.1179 285.432 47.0419C284.312 47.9659 283.598 49.2259 283.29 50.8219ZM327.14 41.5399C329.52 41.5399 331.438 42.3099 332.894 43.8499C334.35 45.3899 335.078 47.4619 335.078 50.0659V63.0859H330.542V50.3599C330.542 48.9039 330.178 47.7839 329.45 46.9999C328.722 46.1879 327.728 45.7819 326.468 45.7819C325.068 45.7819 323.948 46.2439 323.108 47.1679C322.296 48.0919 321.89 49.4779 321.89 51.3259V63.0859H317.354V50.3599C317.354 48.9039 317.004 47.7839 316.304 46.9999C315.632 46.1879 314.666 45.7819 313.406 45.7819C312.034 45.7819 310.914 46.2579 310.046 47.2099C309.178 48.1339 308.744 49.5059 308.744 51.3259V63.0859H304.208V42.0859H308.744V44.6059C310.088 42.5619 312.09 41.5399 314.75 41.5399C317.438 41.5399 319.426 42.6459 320.714 44.8579C322.114 42.6459 324.256 41.5399 327.14 41.5399Z" fill="#33A363"/>
<circle cx="389.044" cy="49.0873" r="14.5619" fill="white"/>
</svg>
