<svg width="558" height="97" viewBox="0 0 558 97" fill="none" xmlns="http://www.w3.org/2000/svg">
<rect width="557.387" height="96.2478" rx="48.1239" fill="#FCBD16"/>
<circle cx="48.1664" cy="48.1244" r="14.5619" fill="white"/>
<path d="M127.498 58.259C124.558 61.199 120.96 62.669 116.704 62.669C112.448 62.669 108.836 61.199 105.868 58.259C102.928 55.291 101.458 51.679 101.458 47.423C101.458 43.167 102.928 39.569 105.868 36.629C108.836 33.661 112.448 32.177 116.704 32.177C120.96 32.177 124.558 33.661 127.498 36.629C130.466 39.569 131.95 43.167 131.95 47.423C131.95 51.679 130.466 55.291 127.498 58.259ZM109.27 54.983C111.286 56.971 113.764 57.965 116.704 57.965C119.644 57.965 122.108 56.971 124.096 54.983C126.112 52.967 127.12 50.447 127.12 47.423C127.12 44.399 126.112 41.893 124.096 39.905C122.108 37.889 119.644 36.881 116.704 36.881C113.764 36.881 111.286 37.889 109.27 39.905C107.282 41.893 106.288 44.399 106.288 47.423C106.288 50.447 107.282 52.967 109.27 54.983ZM145.806 62.669C142.586 62.669 139.954 61.633 137.91 59.561C135.894 57.461 134.886 54.787 134.886 51.539C134.886 47.983 135.418 45.239 136.482 43.307C137.546 41.347 139.702 39.569 142.95 37.973C143.482 37.721 144.266 37.357 145.302 36.881C146.366 36.405 147.094 36.069 147.486 35.873C147.878 35.649 148.368 35.341 148.956 34.949C149.544 34.529 149.978 34.095 150.258 33.647C150.538 33.171 150.762 32.611 150.93 31.967L154.626 34.109C154.514 34.725 154.332 35.299 154.08 35.831C153.828 36.335 153.464 36.811 152.988 37.259C152.512 37.707 152.092 38.071 151.728 38.351C151.392 38.631 150.818 38.967 150.006 39.359C149.194 39.751 148.592 40.031 148.2 40.199C147.836 40.367 147.136 40.661 146.1 41.081C144.252 41.809 142.894 42.565 142.026 43.349C141.186 44.105 140.598 45.057 140.262 46.205C141.942 44.301 144.224 43.349 147.108 43.349C149.572 43.349 151.714 44.231 153.534 45.995C155.382 47.759 156.306 50.041 156.306 52.841C156.306 55.697 155.326 58.049 153.366 59.897C151.434 61.745 148.914 62.669 145.806 62.669ZM145.764 58.427C147.528 58.427 148.97 57.909 150.09 56.873C151.21 55.809 151.77 54.465 151.77 52.841C151.77 51.189 151.21 49.831 150.09 48.767C148.998 47.703 147.57 47.171 145.806 47.171C144.238 47.171 142.824 47.675 141.564 48.683C140.304 49.663 139.674 50.979 139.674 52.631C139.674 54.311 140.262 55.697 141.438 56.789C142.614 57.881 144.056 58.427 145.764 58.427ZM171.378 48.263C173.618 48.263 175.452 48.907 176.88 50.195C178.308 51.455 179.022 53.121 179.022 55.193C179.022 57.237 178.308 58.903 176.88 60.191C175.452 61.479 173.618 62.123 171.378 62.123H162.222V45.491H156.426V41.123H166.758V48.263H171.378ZM171.42 58.049C172.316 58.049 173.058 57.783 173.646 57.251C174.262 56.719 174.57 56.033 174.57 55.193C174.57 54.325 174.262 53.639 173.646 53.135C173.058 52.603 172.316 52.337 171.42 52.337H166.758V58.049H171.42ZM186.062 53.555C186.398 55.151 187.168 56.383 188.372 57.251C189.576 58.091 191.046 58.511 192.782 58.511C195.19 58.511 196.996 57.643 198.2 55.907L201.938 58.091C199.866 61.143 196.8 62.669 192.74 62.669C189.324 62.669 186.566 61.633 184.466 59.561C182.366 57.461 181.316 54.815 181.316 51.623C181.316 48.487 182.352 45.869 184.424 43.769C186.496 41.641 189.156 40.577 192.404 40.577C195.484 40.577 198.004 41.655 199.964 43.811C201.952 45.967 202.946 48.585 202.946 51.665C202.946 52.141 202.89 52.771 202.778 53.555H186.062ZM186.02 49.859H198.368C198.06 48.151 197.346 46.863 196.226 45.995C195.134 45.127 193.846 44.693 192.362 44.693C190.682 44.693 189.282 45.155 188.162 46.079C187.042 47.003 186.328 48.263 186.02 49.859ZM223.446 32.723H227.982V62.123H223.446V59.099C221.738 61.479 219.288 62.669 216.096 62.669C213.212 62.669 210.748 61.605 208.704 59.477C206.66 57.321 205.638 54.703 205.638 51.623C205.638 48.515 206.66 45.897 208.704 43.769C210.748 41.641 213.212 40.577 216.096 40.577C219.288 40.577 221.738 41.753 223.446 44.105V32.723ZM212.064 56.453C213.324 57.713 214.906 58.343 216.81 58.343C218.714 58.343 220.296 57.713 221.556 56.453C222.816 55.165 223.446 53.555 223.446 51.623C223.446 49.691 222.816 48.095 221.556 46.835C220.296 45.547 218.714 44.903 216.81 44.903C214.906 44.903 213.324 45.547 212.064 46.835C210.804 48.095 210.174 49.691 210.174 51.623C210.174 53.555 210.804 55.165 212.064 56.453ZM238.897 32.723H243.097V62.123H238.267V37.889L232.345 39.569L231.169 35.453L238.897 32.723ZM271.828 40.577C274.208 40.577 276.126 41.347 277.582 42.887C279.038 44.427 279.766 46.499 279.766 49.103V62.123H275.23V49.397C275.23 47.941 274.866 46.821 274.138 46.037C273.41 45.225 272.416 44.819 271.156 44.819C269.756 44.819 268.636 45.281 267.796 46.205C266.984 47.129 266.578 48.515 266.578 50.363V62.123H262.042V49.397C262.042 47.941 261.692 46.821 260.992 46.037C260.32 45.225 259.354 44.819 258.094 44.819C256.722 44.819 255.602 45.295 254.734 46.247C253.866 47.171 253.432 48.543 253.432 50.363V62.123H248.896V41.123H253.432V43.643C254.776 41.599 256.778 40.577 259.438 40.577C262.126 40.577 264.114 41.683 265.402 43.895C266.802 41.683 268.944 40.577 271.828 40.577ZM303.185 62.123H297.767L289.157 52.421V62.123H284.621V32.723H289.157V50.405L297.305 41.123H302.849L293.609 51.413L303.185 62.123ZM324.8 62.123H319.382L310.772 52.421V62.123H306.236V32.723H310.772V50.405L318.92 41.123H324.464L315.224 51.413L324.8 62.123ZM350.783 40.577C353.163 40.577 355.081 41.347 356.537 42.887C357.993 44.427 358.721 46.499 358.721 49.103V62.123H354.185V49.397C354.185 47.941 353.821 46.821 353.093 46.037C352.365 45.225 351.371 44.819 350.111 44.819C348.711 44.819 347.591 45.281 346.751 46.205C345.939 47.129 345.533 48.515 345.533 50.363V62.123H340.997V49.397C340.997 47.941 340.647 46.821 339.947 46.037C339.275 45.225 338.309 44.819 337.049 44.819C335.677 44.819 334.557 45.295 333.689 46.247C332.821 47.171 332.387 48.543 332.387 50.363V62.123H327.851V41.123H332.387V43.643C333.731 41.599 335.733 40.577 338.393 40.577C341.081 40.577 343.069 41.683 344.357 43.895C345.757 41.683 347.899 40.577 350.783 40.577ZM382.14 62.123H376.722L368.112 52.421V62.123H363.576V32.723H368.112V50.405L376.26 41.123H381.804L372.564 51.413L382.14 62.123ZM403.876 57.839H406.69V67.751H402.238V62.123H387.832V67.751H383.38V57.839H385.942C387.23 56.019 387.874 53.485 387.874 50.237V41.123H403.876V57.839ZM390.94 57.839H399.424V45.281H392.326V50.237C392.326 53.233 391.864 55.767 390.94 57.839ZM433.306 40.577C435.686 40.577 437.604 41.347 439.06 42.887C440.516 44.427 441.244 46.499 441.244 49.103V62.123H436.708V49.397C436.708 47.941 436.344 46.821 435.616 46.037C434.888 45.225 433.894 44.819 432.634 44.819C431.234 44.819 430.114 45.281 429.274 46.205C428.462 47.129 428.056 48.515 428.056 50.363V62.123H423.52V49.397C423.52 47.941 423.17 46.821 422.47 46.037C421.798 45.225 420.832 44.819 419.572 44.819C418.2 44.819 417.08 45.295 416.212 46.247C415.344 47.171 414.91 48.543 414.91 50.363V62.123H410.374V41.123H414.91V43.643C416.254 41.599 418.256 40.577 420.916 40.577C423.604 40.577 425.592 41.683 426.88 43.895C428.28 41.683 430.422 40.577 433.306 40.577ZM450.045 32.723H454.245V62.123H449.415V37.889L443.493 39.569L442.317 35.453L450.045 32.723Z" fill="#FCBD16"/>
<circle cx="509.22" cy="48.1244" r="14.5619" fill="white"/>
</svg>
