<svg width="296" height="97" viewBox="0 0 296 97" fill="none" xmlns="http://www.w3.org/2000/svg">
<rect width="295.387" height="96.2478" rx="48.1239" fill="#33A363"/>
<circle cx="48.1664" cy="48.1244" r="14.5619" fill="white"/>
<path d="M127.584 58.259C124.644 61.199 121.046 62.669 116.79 62.669C112.534 62.669 108.922 61.199 105.954 58.259C103.014 55.291 101.544 51.679 101.544 47.423C101.544 43.167 103.014 39.569 105.954 36.629C108.922 33.661 112.534 32.177 116.79 32.177C121.046 32.177 124.644 33.661 127.584 36.629C130.552 39.569 132.036 43.167 132.036 47.423C132.036 51.679 130.552 55.291 127.584 58.259ZM109.356 54.983C111.372 56.971 113.85 57.965 116.79 57.965C119.73 57.965 122.194 56.971 124.182 54.983C126.198 52.967 127.206 50.447 127.206 47.423C127.206 44.399 126.198 41.893 124.182 39.905C122.194 37.889 119.73 36.881 116.79 36.881C113.85 36.881 111.372 37.889 109.356 39.905C107.368 41.893 106.374 44.399 106.374 47.423C106.374 50.447 107.368 52.967 109.356 54.983ZM145.892 62.669C142.672 62.669 140.04 61.633 137.996 59.561C135.98 57.461 134.972 54.787 134.972 51.539C134.972 47.983 135.504 45.239 136.568 43.307C137.632 41.347 139.788 39.569 143.036 37.973C143.568 37.721 144.352 37.357 145.388 36.881C146.452 36.405 147.18 36.069 147.572 35.873C147.964 35.649 148.454 35.341 149.042 34.949C149.63 34.529 150.064 34.095 150.344 33.647C150.624 33.171 150.848 32.611 151.016 31.967L154.712 34.109C154.6 34.725 154.418 35.299 154.166 35.831C153.914 36.335 153.55 36.811 153.074 37.259C152.598 37.707 152.178 38.071 151.814 38.351C151.478 38.631 150.904 38.967 150.092 39.359C149.28 39.751 148.678 40.031 148.286 40.199C147.922 40.367 147.222 40.661 146.186 41.081C144.338 41.809 142.98 42.565 142.112 43.349C141.272 44.105 140.684 45.057 140.348 46.205C142.028 44.301 144.31 43.349 147.194 43.349C149.658 43.349 151.8 44.231 153.62 45.995C155.468 47.759 156.392 50.041 156.392 52.841C156.392 55.697 155.412 58.049 153.452 59.897C151.52 61.745 149 62.669 145.892 62.669ZM145.85 58.427C147.614 58.427 149.056 57.909 150.176 56.873C151.296 55.809 151.856 54.465 151.856 52.841C151.856 51.189 151.296 49.831 150.176 48.767C149.084 47.703 147.656 47.171 145.892 47.171C144.324 47.171 142.91 47.675 141.65 48.683C140.39 49.663 139.76 50.979 139.76 52.631C139.76 54.311 140.348 55.697 141.524 56.789C142.7 57.881 144.142 58.427 145.85 58.427ZM169.89 62.669C166.726 62.669 164.08 61.605 161.952 59.477C159.852 57.349 158.802 54.731 158.802 51.623C158.802 48.487 159.852 45.869 161.952 43.769C164.08 41.641 166.726 40.577 169.89 40.577C171.934 40.577 173.796 41.067 175.476 42.047C177.156 43.027 178.416 44.343 179.256 45.995L175.35 48.263C174.874 47.255 174.146 46.471 173.166 45.911C172.214 45.323 171.108 45.029 169.848 45.029C168 45.029 166.446 45.659 165.186 46.919C163.954 48.179 163.338 49.747 163.338 51.623C163.338 53.499 163.954 55.067 165.186 56.327C166.446 57.587 168 58.217 169.848 58.217C171.08 58.217 172.186 57.923 173.166 57.335C174.174 56.747 174.93 55.963 175.434 54.983L179.34 57.209C178.444 58.889 177.156 60.219 175.476 61.199C173.796 62.179 171.934 62.669 169.89 62.669ZM187.96 32.723H192.16V62.123H187.33V37.889L181.408 39.569L180.232 35.453L187.96 32.723Z" fill="#33A363"/>
<circle cx="247.22" cy="48.1244" r="14.5619" fill="white"/>
</svg>
