<svg width="379" height="97" viewBox="0 0 379 97" fill="none" xmlns="http://www.w3.org/2000/svg">
<rect width="378.387" height="96.2478" rx="48.1239" fill="#4A5EE5"/>
<circle cx="48.1664" cy="48.1244" r="14.5619" fill="white"/>
<path d="M127.638 58.259C124.698 61.199 121.1 62.669 116.844 62.669C112.588 62.669 108.976 61.199 106.008 58.259C103.068 55.291 101.598 51.679 101.598 47.423C101.598 43.167 103.068 39.569 106.008 36.629C108.976 33.661 112.588 32.177 116.844 32.177C121.1 32.177 124.698 33.661 127.638 36.629C130.606 39.569 132.09 43.167 132.09 47.423C132.09 51.679 130.606 55.291 127.638 58.259ZM109.41 54.983C111.426 56.971 113.904 57.965 116.844 57.965C119.784 57.965 122.248 56.971 124.236 54.983C126.252 52.967 127.26 50.447 127.26 47.423C127.26 44.399 126.252 41.893 124.236 39.905C122.248 37.889 119.784 36.881 116.844 36.881C113.904 36.881 111.426 37.889 109.41 39.905C107.422 41.893 106.428 44.399 106.428 47.423C106.428 50.447 107.422 52.967 109.41 54.983ZM145.946 62.669C142.726 62.669 140.094 61.633 138.05 59.561C136.034 57.461 135.026 54.787 135.026 51.539C135.026 47.983 135.558 45.239 136.622 43.307C137.686 41.347 139.842 39.569 143.09 37.973C143.622 37.721 144.406 37.357 145.442 36.881C146.506 36.405 147.234 36.069 147.626 35.873C148.018 35.649 148.508 35.341 149.096 34.949C149.684 34.529 150.118 34.095 150.398 33.647C150.678 33.171 150.902 32.611 151.07 31.967L154.766 34.109C154.654 34.725 154.472 35.299 154.22 35.831C153.968 36.335 153.604 36.811 153.128 37.259C152.652 37.707 152.232 38.071 151.868 38.351C151.532 38.631 150.958 38.967 150.146 39.359C149.334 39.751 148.732 40.031 148.34 40.199C147.976 40.367 147.276 40.661 146.24 41.081C144.392 41.809 143.034 42.565 142.166 43.349C141.326 44.105 140.738 45.057 140.402 46.205C142.082 44.301 144.364 43.349 147.248 43.349C149.712 43.349 151.854 44.231 153.674 45.995C155.522 47.759 156.446 50.041 156.446 52.841C156.446 55.697 155.466 58.049 153.506 59.897C151.574 61.745 149.054 62.669 145.946 62.669ZM145.904 58.427C147.668 58.427 149.11 57.909 150.23 56.873C151.35 55.809 151.91 54.465 151.91 52.841C151.91 51.189 151.35 49.831 150.23 48.767C149.138 47.703 147.71 47.171 145.946 47.171C144.378 47.171 142.964 47.675 141.704 48.683C140.444 49.663 139.814 50.979 139.814 52.631C139.814 54.311 140.402 55.697 141.578 56.789C142.754 57.881 144.196 58.427 145.904 58.427ZM171.517 48.263C173.757 48.263 175.591 48.907 177.019 50.195C178.447 51.455 179.161 53.121 179.161 55.193C179.161 57.237 178.447 58.903 177.019 60.191C175.591 61.479 173.757 62.123 171.517 62.123H162.361V45.491H156.565V41.123H166.897V48.263H171.517ZM171.559 58.049C172.455 58.049 173.197 57.783 173.785 57.251C174.401 56.719 174.709 56.033 174.709 55.193C174.709 54.325 174.401 53.639 173.785 53.135C173.197 52.603 172.455 52.337 171.559 52.337H166.897V58.049H171.559ZM186.201 53.555C186.537 55.151 187.307 56.383 188.511 57.251C189.715 58.091 191.185 58.511 192.921 58.511C195.329 58.511 197.135 57.643 198.339 55.907L202.077 58.091C200.005 61.143 196.939 62.669 192.879 62.669C189.463 62.669 186.705 61.633 184.605 59.561C182.505 57.461 181.455 54.815 181.455 51.623C181.455 48.487 182.491 45.869 184.563 43.769C186.635 41.641 189.295 40.577 192.543 40.577C195.623 40.577 198.143 41.655 200.103 43.811C202.091 45.967 203.085 48.585 203.085 51.665C203.085 52.141 203.029 52.771 202.917 53.555H186.201ZM186.159 49.859H198.507C198.199 48.151 197.485 46.863 196.365 45.995C195.273 45.127 193.985 44.693 192.501 44.693C190.821 44.693 189.421 45.155 188.301 46.079C187.181 47.003 186.467 48.263 186.159 49.859ZM224.736 57.839H227.55V67.751H223.098V62.123H208.692V67.751H204.24V57.839H206.802C208.09 56.019 208.734 53.485 208.734 50.237V41.123H224.736V57.839ZM211.8 57.839H220.284V45.281H213.186V50.237C213.186 53.233 212.724 55.767 211.8 57.839ZM254.167 40.577C256.547 40.577 258.465 41.347 259.921 42.887C261.377 44.427 262.105 46.499 262.105 49.103V62.123H257.569V49.397C257.569 47.941 257.205 46.821 256.477 46.037C255.749 45.225 254.755 44.819 253.495 44.819C252.095 44.819 250.975 45.281 250.135 46.205C249.323 47.129 248.917 48.515 248.917 50.363V62.123H244.381V49.397C244.381 47.941 244.031 46.821 243.331 46.037C242.659 45.225 241.693 44.819 240.433 44.819C239.061 44.819 237.941 45.295 237.073 46.247C236.205 47.171 235.771 48.543 235.771 50.363V62.123H231.235V41.123H235.771V43.643C237.115 41.599 239.117 40.577 241.777 40.577C244.465 40.577 246.453 41.683 247.741 43.895C249.141 41.683 251.283 40.577 254.167 40.577ZM270.906 32.723H275.106V62.123H270.276V37.889L264.354 39.569L263.178 35.453L270.906 32.723Z" fill="#4A5EE5"/>
<circle cx="330.22" cy="48.1244" r="14.5619" fill="white"/>
</svg>
