<svg width="324" height="97" viewBox="0 0 324 97" fill="none" xmlns="http://www.w3.org/2000/svg">
<rect width="323.387" height="96.2478" rx="48.1239" fill="#E55A39"/>
<circle cx="48.1664" cy="48.1244" r="14.5619" fill="white"/>
<path d="M127.557 58.259C124.617 61.199 121.019 62.669 116.763 62.669C112.507 62.669 108.895 61.199 105.927 58.259C102.987 55.291 101.517 51.679 101.517 47.423C101.517 43.167 102.987 39.569 105.927 36.629C108.895 33.661 112.507 32.177 116.763 32.177C121.019 32.177 124.617 33.661 127.557 36.629C130.525 39.569 132.009 43.167 132.009 47.423C132.009 51.679 130.525 55.291 127.557 58.259ZM109.329 54.983C111.345 56.971 113.823 57.965 116.763 57.965C119.703 57.965 122.167 56.971 124.155 54.983C126.171 52.967 127.179 50.447 127.179 47.423C127.179 44.399 126.171 41.893 124.155 39.905C122.167 37.889 119.703 36.881 116.763 36.881C113.823 36.881 111.345 37.889 109.329 39.905C107.341 41.893 106.347 44.399 106.347 47.423C106.347 50.447 107.341 52.967 109.329 54.983ZM152.753 32.723H157.289V62.123H152.753V59.099C151.045 61.479 148.595 62.669 145.403 62.669C142.519 62.669 140.055 61.605 138.011 59.477C135.967 57.321 134.945 54.703 134.945 51.623C134.945 48.515 135.967 45.897 138.011 43.769C140.055 41.641 142.519 40.577 145.403 40.577C148.595 40.577 151.045 41.753 152.753 44.105V32.723ZM141.371 56.453C142.631 57.713 144.213 58.343 146.117 58.343C148.021 58.343 149.603 57.713 150.863 56.453C152.123 55.165 152.753 53.555 152.753 51.623C152.753 49.691 152.123 48.095 150.863 46.835C149.603 45.547 148.021 44.903 146.117 44.903C144.213 44.903 142.631 45.547 141.371 46.835C140.111 48.095 139.481 49.691 139.481 51.623C139.481 53.555 140.111 55.165 141.371 56.453ZM179.208 32.723H183.744V62.123H179.208V59.099C177.5 61.479 175.05 62.669 171.858 62.669C168.974 62.669 166.51 61.605 164.466 59.477C162.422 57.321 161.4 54.703 161.4 51.623C161.4 48.515 162.422 45.897 164.466 43.769C166.51 41.641 168.974 40.577 171.858 40.577C175.05 40.577 177.5 41.753 179.208 44.105V32.723ZM167.826 56.453C169.086 57.713 170.668 58.343 172.572 58.343C174.476 58.343 176.058 57.713 177.318 56.453C178.578 55.165 179.208 53.555 179.208 51.623C179.208 49.691 178.578 48.095 177.318 46.835C176.058 45.547 174.476 44.903 172.572 44.903C170.668 44.903 169.086 45.547 167.826 46.835C166.566 48.095 165.936 49.691 165.936 51.623C165.936 53.555 166.566 55.165 167.826 56.453ZM198.775 62.669C195.555 62.669 192.923 61.633 190.879 59.561C188.863 57.461 187.855 54.787 187.855 51.539C187.855 47.983 188.387 45.239 189.451 43.307C190.515 41.347 192.671 39.569 195.919 37.973C196.451 37.721 197.235 37.357 198.271 36.881C199.335 36.405 200.063 36.069 200.455 35.873C200.847 35.649 201.337 35.341 201.925 34.949C202.513 34.529 202.947 34.095 203.227 33.647C203.507 33.171 203.731 32.611 203.899 31.967L207.595 34.109C207.483 34.725 207.301 35.299 207.049 35.831C206.797 36.335 206.433 36.811 205.957 37.259C205.481 37.707 205.061 38.071 204.697 38.351C204.361 38.631 203.787 38.967 202.975 39.359C202.163 39.751 201.561 40.031 201.169 40.199C200.805 40.367 200.105 40.661 199.069 41.081C197.221 41.809 195.863 42.565 194.995 43.349C194.155 44.105 193.567 45.057 193.231 46.205C194.911 44.301 197.193 43.349 200.077 43.349C202.541 43.349 204.683 44.231 206.503 45.995C208.351 47.759 209.275 50.041 209.275 52.841C209.275 55.697 208.295 58.049 206.335 59.897C204.403 61.745 201.883 62.669 198.775 62.669ZM198.733 58.427C200.497 58.427 201.939 57.909 203.059 56.873C204.179 55.809 204.739 54.465 204.739 52.841C204.739 51.189 204.179 49.831 203.059 48.767C201.967 47.703 200.539 47.171 198.775 47.171C197.207 47.171 195.793 47.675 194.533 48.683C193.273 49.663 192.643 50.979 192.643 52.631C192.643 54.311 193.231 55.697 194.407 56.789C195.583 57.881 197.025 58.427 198.733 58.427ZM215.987 32.723H220.187V62.123H215.357V37.889L209.435 39.569L208.259 35.453L215.987 32.723Z" fill="#E55A39"/>
<circle cx="275.22" cy="48.1244" r="14.5619" fill="white"/>
</svg>
