<svg width="163" height="53" viewBox="0 0 163 53" fill="none" xmlns="http://www.w3.org/2000/svg">
<circle cx="23.2354" cy="26.499" r="7.04591" fill="white"/>
<path d="M56.6747 36.3574C54.8237 36.3574 53.2476 35.9359 51.9464 35.0928C50.6636 34.2498 49.7656 33.0952 49.2524 31.6291L51.9739 30.0347C52.7436 32.1972 54.3381 33.2785 56.7572 33.2785C57.9484 33.2785 58.8372 33.0494 59.4237 32.5913C60.0285 32.1148 60.3308 31.5008 60.3308 30.7494C60.3308 29.9614 60.0101 29.3658 59.3687 28.9626C58.7273 28.5411 57.591 28.0829 55.96 27.5881C55.0436 27.3132 54.3014 27.0566 53.7333 26.8184C53.1652 26.5801 52.5604 26.2503 51.9189 25.8287C51.2958 25.3889 50.8285 24.8483 50.517 24.2068C50.2054 23.5654 50.0496 22.814 50.0496 21.9527C50.0496 20.2483 50.6544 18.9013 51.864 17.9117C53.0735 16.9037 54.5305 16.3997 56.2349 16.3997C57.7743 16.3997 59.1213 16.7754 60.2759 17.5268C61.4304 18.2782 62.3193 19.3136 62.9424 20.6332L60.2759 22.1726C59.4695 20.3766 58.1225 19.4786 56.2349 19.4786C55.3185 19.4786 54.5855 19.6985 54.0357 20.1383C53.4859 20.5599 53.211 21.1371 53.211 21.8702C53.211 22.5849 53.4859 23.1531 54.0357 23.5746C54.6038 23.9778 55.6209 24.4084 57.087 24.8666C57.8201 25.1048 58.3516 25.2881 58.6815 25.4164C59.0297 25.5264 59.5062 25.7096 60.1109 25.9662C60.734 26.2228 61.2014 26.4793 61.5129 26.7359C61.8245 26.9925 62.1543 27.3132 62.5025 27.6981C62.8691 28.0829 63.1257 28.5228 63.2723 29.0176C63.4189 29.5124 63.4922 30.0713 63.4922 30.6945C63.4922 32.4355 62.8599 33.8191 61.5954 34.8454C60.3492 35.8534 58.7089 36.3574 56.6747 36.3574ZM75.3143 22.2551H78.2832V36H75.3143V34.2406C74.4163 35.6518 72.996 36.3574 71.0534 36.3574C69.4773 36.3574 68.2036 35.8534 67.2323 34.8454C66.261 33.8375 65.7753 32.4538 65.7753 30.6945V22.2551H68.7443V30.3921C68.7443 31.4184 69.0192 32.2064 69.569 32.7562C70.1187 33.306 70.8701 33.5809 71.8231 33.5809C72.8677 33.5809 73.7108 33.2602 74.3522 32.6187C74.9936 31.959 75.3143 30.9602 75.3143 29.6223V22.2551ZM89.5346 21.8977C91.4222 21.8977 93.0349 22.6033 94.3728 24.0144C95.7106 25.4072 96.3795 27.1116 96.3795 29.1275C96.3795 31.1618 95.7106 32.8753 94.3728 34.2681C93.0349 35.661 91.4222 36.3574 89.5346 36.3574C87.4453 36.3574 85.8417 35.5877 84.7238 34.0482V41.498H81.7549V22.2551H84.7238V24.2343C85.8417 22.6766 87.4453 21.8977 89.5346 21.8977ZM85.9609 32.2889C86.7856 33.1136 87.821 33.5259 89.0672 33.5259C90.3134 33.5259 91.3489 33.1136 92.1736 32.2889C92.9983 31.4458 93.4106 30.3921 93.4106 29.1275C93.4106 27.863 92.9983 26.8184 92.1736 25.9937C91.3489 25.1507 90.3134 24.7291 89.0672 24.7291C87.821 24.7291 86.7856 25.1507 85.9609 25.9937C85.1362 26.8184 84.7238 27.863 84.7238 29.1275C84.7238 30.3921 85.1362 31.4458 85.9609 32.2889ZM106.85 21.8977C108.738 21.8977 110.35 22.6033 111.688 24.0144C113.026 25.4072 113.695 27.1116 113.695 29.1275C113.695 31.1618 113.026 32.8753 111.688 34.2681C110.35 35.661 108.738 36.3574 106.85 36.3574C104.761 36.3574 103.157 35.5877 102.039 34.0482V41.498H99.0703V22.2551H102.039V24.2343C103.157 22.6766 104.761 21.8977 106.85 21.8977ZM103.276 32.2889C104.101 33.1136 105.136 33.5259 106.383 33.5259C107.629 33.5259 108.664 33.1136 109.489 32.2889C110.314 31.4458 110.726 30.3921 110.726 29.1275C110.726 27.863 110.314 26.8184 109.489 25.9937C108.664 25.1507 107.629 24.7291 106.383 24.7291C105.136 24.7291 104.101 25.1507 103.276 25.9937C102.452 26.8184 102.039 27.863 102.039 29.1275C102.039 30.3921 102.452 31.4458 103.276 32.2889Z" fill="white"/>
<circle cx="139.765" cy="26.499" r="7.04591" fill="white"/>
</svg>
