<svg width="397" height="97" viewBox="0 0 397 97" fill="none" xmlns="http://www.w3.org/2000/svg">
<rect x="0.529297" y="0.279297" width="396.387" height="96.2478" rx="48.1239" fill="#E55A39"/>
<circle cx="48.6957" cy="48.4037" r="14.5619" fill="white"/>
<path d="M119.855 33.0023H124.727L115.613 54.8423C113.373 60.1903 109.747 62.7103 104.735 62.4023V57.9083C106.387 58.0763 107.717 57.8243 108.725 57.1523C109.761 56.4803 110.587 55.3603 111.203 53.7923L101.417 33.0023H106.289L113.429 48.5003L119.855 33.0023ZM141.047 51.6083C143.119 52.5603 144.155 54.1703 144.155 56.4383C144.155 58.2023 143.553 59.6443 142.349 60.7643C141.173 61.8563 139.479 62.4023 137.267 62.4023H126.515V41.4023H136.427C138.583 41.4023 140.249 41.9483 141.425 43.0403C142.629 44.1043 143.231 45.4903 143.231 47.1983C143.231 49.1863 142.503 50.6563 141.047 51.6083ZM136.091 45.2663H130.841V49.9283H136.091C137.939 49.9283 138.863 49.1443 138.863 47.5763C138.863 46.0363 137.939 45.2663 136.091 45.2663ZM136.847 58.4543C138.751 58.4543 139.703 57.6283 139.703 55.9763C139.703 55.2483 139.451 54.6883 138.947 54.2963C138.443 53.8763 137.743 53.6663 136.847 53.6663H130.841V58.4543H136.847ZM164.475 41.4023H169.011V62.4023H164.475V59.3783C162.767 61.7583 160.317 62.9483 157.125 62.9483C154.241 62.9483 151.777 61.8843 149.733 59.7563C147.689 57.6003 146.667 54.9823 146.667 51.9023C146.667 48.7943 147.689 46.1763 149.733 44.0483C151.777 41.9203 154.241 40.8563 157.125 40.8563C160.317 40.8563 162.767 42.0323 164.475 44.3843V41.4023ZM153.093 56.7323C154.353 57.9923 155.935 58.6223 157.839 58.6223C159.743 58.6223 161.325 57.9923 162.585 56.7323C163.845 55.4443 164.475 53.8343 164.475 51.9023C164.475 49.9703 163.845 48.3743 162.585 47.1143C161.325 45.8263 159.743 45.1823 157.839 45.1823C155.935 45.1823 154.353 45.8263 153.093 47.1143C151.833 48.3743 151.203 49.9703 151.203 51.9023C151.203 53.8343 151.833 55.4443 153.093 56.7323ZM201.346 62.4023H196.18L189.04 52.7003V62.4023H184.588V52.7843L177.448 62.4023H172.282L180.472 51.6923L172.702 41.4023L177.868 41.4023L184.588 50.6003V41.4023H189.04V50.6423L195.76 41.4023H200.926L193.156 51.6923L201.346 62.4023ZM206.497 53.8343C206.833 55.4303 207.603 56.6623 208.807 57.5303C210.011 58.3703 211.481 58.7903 213.217 58.7903C215.625 58.7903 217.431 57.9223 218.635 56.1863L222.373 58.3703C220.301 61.4223 217.235 62.9483 213.175 62.9483C209.759 62.9483 207.001 61.9123 204.901 59.8403C202.801 57.7403 201.751 55.0943 201.751 51.9023C201.751 48.7663 202.787 46.1483 204.859 44.0483C206.931 41.9203 209.591 40.8563 212.839 40.8563C215.919 40.8563 218.439 41.9343 220.399 44.0903C222.387 46.2463 223.381 48.8643 223.381 51.9443C223.381 52.4203 223.325 53.0503 223.213 53.8343H206.497ZM206.455 50.1383H218.803C218.495 48.4303 217.781 47.1423 216.661 46.2743C215.569 45.4063 214.281 44.9723 212.797 44.9723C211.117 44.9723 209.717 45.4343 208.597 46.3583C207.477 47.2823 206.763 48.5423 206.455 50.1383ZM241.527 41.4023H246.063V62.4023H241.527V54.0443H231.909V62.4023H227.373V41.4023H231.909V49.7603H241.527V41.4023ZM266.53 41.4023H270.016V62.4023H265.564V49.0463L254.812 62.4023H251.326V41.4023H255.778V54.7163L266.53 41.4023ZM278.849 53.8343C279.185 55.4303 279.955 56.6623 281.159 57.5303C282.363 58.3703 283.833 58.7903 285.569 58.7903C287.977 58.7903 289.783 57.9223 290.987 56.1863L294.725 58.3703C292.653 61.4223 289.587 62.9483 285.527 62.9483C282.111 62.9483 279.353 61.9123 277.253 59.8403C275.153 57.7403 274.103 55.0943 274.103 51.9023C274.103 48.7663 275.139 46.1483 277.211 44.0483C279.283 41.9203 281.943 40.8563 285.191 40.8563C288.271 40.8563 290.791 41.9343 292.751 44.0903C294.739 46.2463 295.733 48.8643 295.733 51.9443C295.733 52.4203 295.677 53.0503 295.565 53.8343H278.849ZM278.807 50.1383H291.155C290.847 48.4303 290.133 47.1423 289.013 46.2743C287.921 45.4063 286.633 44.9723 285.149 44.9723C283.469 44.9723 282.069 45.4343 280.949 46.3583C279.829 47.2823 279.115 48.5423 278.807 50.1383Z" fill="white"/>
<circle cx="348.749" cy="48.4037" r="14.5619" fill="white"/>
</svg>
