<svg width="477" height="97" viewBox="0 0 477 97" fill="none" xmlns="http://www.w3.org/2000/svg">
<rect x="0.0732422" y="0.287109" width="476.387" height="96.2478" rx="48.1239" fill="#33A363"/>
<circle cx="48.2397" cy="48.4116" r="14.5619" fill="white"/>
<path d="M113.909 44.3502C116.625 44.3502 118.879 45.2042 120.671 46.9122C122.463 48.6202 123.359 50.7762 123.359 53.3802C123.359 55.9842 122.463 58.1402 120.671 59.8482C118.879 61.5562 116.625 62.4102 113.909 62.4102H102.779V33.0102H120.839V37.6302H107.609V44.3502H113.909ZM113.909 57.8742C115.225 57.8742 116.317 57.4682 117.185 56.6562C118.081 55.8162 118.529 54.7242 118.529 53.3802C118.529 52.0362 118.081 50.9582 117.185 50.1462C116.317 49.3062 115.225 48.8862 113.909 48.8862H107.609V57.8742H113.909ZM130.623 53.8422C130.959 55.4382 131.729 56.6702 132.933 57.5382C134.137 58.3782 135.607 58.7982 137.343 58.7982C139.751 58.7982 141.557 57.9302 142.761 56.1942L146.499 58.3782C144.427 61.4302 141.361 62.9562 137.301 62.9562C133.885 62.9562 131.127 61.9202 129.027 59.8482C126.927 57.7482 125.877 55.1022 125.877 51.9102C125.877 48.7742 126.913 46.1562 128.985 44.0562C131.057 41.9282 133.717 40.8642 136.965 40.8642C140.045 40.8642 142.565 41.9422 144.525 44.0982C146.513 46.2542 147.507 48.8722 147.507 51.9522C147.507 52.4282 147.451 53.0582 147.339 53.8422H130.623ZM130.581 50.1462H142.929C142.621 48.4382 141.907 47.1502 140.787 46.2822C139.695 45.4142 138.407 44.9802 136.923 44.9802C135.243 44.9802 133.843 45.4422 132.723 46.3662C131.603 47.2902 130.889 48.5502 130.581 50.1462ZM162.89 51.6582C165.13 52.6662 166.25 54.3322 166.25 56.6562C166.25 58.4482 165.522 59.9462 164.066 61.1502C162.61 62.3542 160.58 62.9562 157.976 62.9562C153.748 62.9562 150.892 61.2762 149.408 57.9162L153.104 55.7322C153.86 57.8322 155.498 58.8822 158.018 58.8822C159.194 58.8822 160.118 58.6442 160.79 58.1682C161.462 57.6642 161.798 57.0062 161.798 56.1942C161.798 55.4662 161.532 54.8922 161 54.4722C160.468 54.0242 159.726 53.8002 158.774 53.8002H155.792V49.8102H158.018C158.942 49.8102 159.656 49.6002 160.16 49.1802C160.692 48.7322 160.958 48.1302 160.958 47.3742C160.958 46.6462 160.664 46.0582 160.076 45.6102C159.488 45.1342 158.704 44.8962 157.724 44.8962C155.624 44.8962 154.168 45.8202 153.356 47.6682L149.66 45.5682C151.228 42.4322 153.888 40.8642 157.64 40.8642C159.992 40.8642 161.854 41.4662 163.226 42.6702C164.626 43.8462 165.326 45.2882 165.326 46.9962C165.326 49.0962 164.514 50.6502 162.89 51.6582ZM179.868 62.9562C176.788 62.9562 174.17 61.8922 172.014 59.7642C169.858 57.6362 168.78 55.0182 168.78 51.9102C168.78 48.8022 169.858 46.1842 172.014 44.0562C174.17 41.9282 176.788 40.8642 179.868 40.8642C182.976 40.8642 185.594 41.9282 187.722 44.0562C189.878 46.1842 190.956 48.8022 190.956 51.9102C190.956 55.0182 189.878 57.6362 187.722 59.7642C185.594 61.8922 182.976 62.9562 179.868 62.9562ZM175.206 56.6562C176.466 57.9162 178.02 58.5462 179.868 58.5462C181.716 58.5462 183.27 57.9162 184.53 56.6562C185.79 55.3962 186.42 53.8142 186.42 51.9102C186.42 50.0062 185.79 48.4242 184.53 47.1642C183.27 45.9042 181.716 45.2742 179.868 45.2742C178.02 45.2742 176.466 45.9042 175.206 47.1642C173.946 48.4242 173.316 50.0062 173.316 51.9102C173.316 53.8142 173.946 55.3962 175.206 56.6562ZM213.747 41.4102V62.4102H209.211V45.6942H199.593V62.4102H195.057V41.4102H213.747ZM235.642 41.4102H240.178V62.4102H235.642V59.3862C233.934 61.7662 231.484 62.9562 228.292 62.9562C225.408 62.9562 222.944 61.8922 220.9 59.7642C218.856 57.6082 217.834 54.9902 217.834 51.9102C217.834 48.8022 218.856 46.1842 220.9 44.0562C222.944 41.9282 225.408 40.8642 228.292 40.8642C231.484 40.8642 233.934 42.0402 235.642 44.3922V41.4102ZM224.26 56.7402C225.52 58.0002 227.102 58.6302 229.006 58.6302C230.91 58.6302 232.492 58.0002 233.752 56.7402C235.012 55.4522 235.642 53.8422 235.642 51.9102C235.642 49.9782 235.012 48.3822 233.752 47.1222C232.492 45.8342 230.91 45.1902 229.006 45.1902C227.102 45.1902 225.52 45.8342 224.26 47.1222C223 48.3822 222.37 49.9782 222.37 51.9102C222.37 53.8422 223 55.4522 224.26 56.7402ZM255.377 62.9562C252.213 62.9562 249.567 61.8922 247.439 59.7642C245.339 57.6362 244.289 55.0182 244.289 51.9102C244.289 48.7742 245.339 46.1562 247.439 44.0562C249.567 41.9282 252.213 40.8642 255.377 40.8642C257.421 40.8642 259.283 41.3542 260.963 42.3342C262.643 43.3142 263.903 44.6302 264.743 46.2822L260.837 48.5502C260.361 47.5422 259.633 46.7582 258.653 46.1982C257.701 45.6102 256.595 45.3162 255.335 45.3162C253.487 45.3162 251.933 45.9462 250.673 47.2062C249.441 48.4662 248.825 50.0342 248.825 51.9102C248.825 53.7862 249.441 55.3542 250.673 56.6142C251.933 57.8742 253.487 58.5042 255.335 58.5042C256.567 58.5042 257.673 58.2102 258.653 57.6222C259.661 57.0342 260.417 56.2502 260.921 55.2702L264.827 57.4962C263.931 59.1762 262.643 60.5062 260.963 61.4862C259.283 62.4662 257.421 62.9562 255.377 62.9562ZM282.383 41.4102H286.919V62.4102H282.383V54.0522H272.765V62.4102H268.229V41.4102H272.765V49.7682H282.383V41.4102ZM302.094 62.9562C299.014 62.9562 296.396 61.8922 294.24 59.7642C292.084 57.6362 291.006 55.0182 291.006 51.9102C291.006 48.8022 292.084 46.1842 294.24 44.0562C296.396 41.9282 299.014 40.8642 302.094 40.8642C305.202 40.8642 307.82 41.9282 309.948 44.0562C312.104 46.1842 313.182 48.8022 313.182 51.9102C313.182 55.0182 312.104 57.6362 309.948 59.7642C307.82 61.8922 305.202 62.9562 302.094 62.9562ZM297.432 56.6562C298.692 57.9162 300.246 58.5462 302.094 58.5462C303.942 58.5462 305.496 57.9162 306.756 56.6562C308.016 55.3962 308.646 53.8142 308.646 51.9102C308.646 50.0062 308.016 48.4242 306.756 47.1642C305.496 45.9042 303.942 45.2742 302.094 45.2742C300.246 45.2742 298.692 45.9042 297.432 47.1642C296.172 48.4242 295.542 50.0062 295.542 51.9102C295.542 53.8142 296.172 55.3962 297.432 56.6562ZM327.196 62.9562C324.032 62.9562 321.386 61.8922 319.258 59.7642C317.158 57.6362 316.108 55.0182 316.108 51.9102C316.108 48.7742 317.158 46.1562 319.258 44.0562C321.386 41.9282 324.032 40.8642 327.196 40.8642C329.24 40.8642 331.102 41.3542 332.782 42.3342C334.462 43.3142 335.722 44.6302 336.562 46.2822L332.656 48.5502C332.18 47.5422 331.452 46.7582 330.472 46.1982C329.52 45.6102 328.414 45.3162 327.154 45.3162C325.306 45.3162 323.752 45.9462 322.492 47.2062C321.26 48.4662 320.644 50.0342 320.644 51.9102C320.644 53.7862 321.26 55.3542 322.492 56.6142C323.752 57.8742 325.306 58.5042 327.154 58.5042C328.386 58.5042 329.492 58.2102 330.472 57.6222C331.48 57.0342 332.236 56.2502 332.74 55.2702L336.646 57.4962C335.75 59.1762 334.462 60.5062 332.782 61.4862C331.102 62.4662 329.24 62.9562 327.196 62.9562ZM355.763 41.4102V45.7782H348.917V62.4102H344.381V45.7782H337.493V41.4102H355.763ZM367.989 48.5502C370.229 48.5502 372.063 49.1942 373.491 50.4822C374.919 51.7422 375.633 53.4082 375.633 55.4802C375.633 57.5242 374.919 59.1902 373.491 60.4782C372.063 61.7662 370.229 62.4102 367.989 62.4102H358.833V41.4102H363.369V48.5502H367.989ZM368.031 58.3362C368.927 58.3362 369.669 58.0702 370.257 57.5382C370.873 57.0062 371.181 56.3202 371.181 55.4802C371.181 54.6122 370.873 53.9262 370.257 53.4222C369.669 52.8902 368.927 52.6242 368.031 52.6242H363.369V58.3362H368.031Z" fill="white"/>
<circle cx="428.293" cy="48.4116" r="14.5619" fill="white"/>
</svg>
