<svg width="424" height="97" viewBox="0 0 424 97" fill="none" xmlns="http://www.w3.org/2000/svg">
<rect x="0.609375" y="0.337891" width="423.387" height="96.2478" rx="48.1239" fill="#4A5EE5"/>
<circle cx="48.7758" cy="48.4623" r="14.5619" fill="white"/>
<path d="M125.023 33.0609V62.4609H120.193V37.6809H108.223V62.4609H103.393V33.0609H125.023ZM140.533 63.0069C137.453 63.0069 134.835 61.9429 132.679 59.8149C130.523 57.6869 129.445 55.0689 129.445 51.9609C129.445 48.8529 130.523 46.2349 132.679 44.1069C134.835 41.9789 137.453 40.9149 140.533 40.9149C143.641 40.9149 146.259 41.9789 148.387 44.1069C150.543 46.2349 151.621 48.8529 151.621 51.9609C151.621 55.0689 150.543 57.6869 148.387 59.8149C146.259 61.9429 143.641 63.0069 140.533 63.0069ZM135.871 56.7069C137.131 57.9669 138.685 58.5969 140.533 58.5969C142.381 58.5969 143.935 57.9669 145.195 56.7069C146.455 55.4469 147.085 53.8649 147.085 51.9609C147.085 50.0569 146.455 48.4749 145.195 47.2149C143.935 45.9549 142.381 45.3249 140.533 45.3249C138.685 45.3249 137.131 45.9549 135.871 47.2149C134.611 48.4749 133.981 50.0569 133.981 51.9609C133.981 53.8649 134.611 55.4469 135.871 56.7069ZM173.382 58.1769H176.196V68.0889H171.744V62.4609H157.338V68.0889H152.886V58.1769H155.448C156.736 56.3569 157.38 53.8229 157.38 50.5749V41.4609H173.382V58.1769ZM160.446 58.1769H168.93V45.6189H161.832V50.5749C161.832 53.5709 161.37 56.1049 160.446 58.1769ZM198.565 58.1769H201.379V68.0889H196.927V62.4609H182.521V68.0889H178.069V58.1769H180.631C181.919 56.3569 182.563 53.8229 182.563 50.5749V41.4609H198.565V58.1769ZM185.629 58.1769H194.113V45.6189H187.015V50.5749C187.015 53.5709 186.553 56.1049 185.629 58.1769ZM207.814 53.8929C208.15 55.4889 208.92 56.7209 210.124 57.5889C211.328 58.4289 212.798 58.8489 214.534 58.8489C216.942 58.8489 218.748 57.9809 219.952 56.2449L223.69 58.4289C221.618 61.4809 218.552 63.0069 214.492 63.0069C211.076 63.0069 208.318 61.9709 206.218 59.8989C204.118 57.7989 203.068 55.1529 203.068 51.9609C203.068 48.8249 204.104 46.2069 206.176 44.1069C208.248 41.9789 210.908 40.9149 214.156 40.9149C217.236 40.9149 219.756 41.9929 221.716 44.1489C223.704 46.3049 224.698 48.9229 224.698 52.0029C224.698 52.4789 224.642 53.1089 224.53 53.8929H207.814ZM207.772 50.1969H220.12C219.812 48.4889 219.098 47.2009 217.978 46.3329C216.886 45.4649 215.598 45.0309 214.114 45.0309C212.434 45.0309 211.034 45.4929 209.914 46.4169C208.794 47.3409 208.08 48.6009 207.772 50.1969ZM240.575 40.9149C243.459 40.9149 245.923 41.9929 247.967 44.1489C250.011 46.2769 251.033 48.8809 251.033 51.9609C251.033 55.0689 250.011 57.6869 247.967 59.8149C245.923 61.9429 243.459 63.0069 240.575 63.0069C237.383 63.0069 234.933 61.8309 233.225 59.4789V70.8609H228.689V41.4609H233.225V44.4849C234.933 42.1049 237.383 40.9149 240.575 40.9149ZM235.115 56.7909C236.375 58.0509 237.957 58.6809 239.861 58.6809C241.765 58.6809 243.347 58.0509 244.607 56.7909C245.867 55.5029 246.497 53.8929 246.497 51.9609C246.497 50.0289 245.867 48.4329 244.607 47.1729C243.347 45.8849 241.765 45.2409 239.861 45.2409C237.957 45.2409 236.375 45.8849 235.115 47.1729C233.855 48.4329 233.225 50.0289 233.225 51.9609C233.225 53.8929 233.855 55.5029 235.115 56.7909ZM280.51 62.4609H275.344L268.204 52.7589V62.4609H263.752V52.8429L256.612 62.4609H251.446L259.636 51.7509L251.866 41.4609H257.032L263.752 50.6589V41.4609H268.204V50.7009L274.924 41.4609H280.09L272.32 51.7509L280.51 62.4609ZM302.337 62.4609H296.919L288.309 52.7589V62.4609H283.773V41.4609L288.309 41.4609V50.7429L296.457 41.4609H302.001L292.761 51.7509L302.337 62.4609ZM319.132 41.4609H323.962L315.898 63.1329C314.918 65.7929 313.546 67.7809 311.782 69.0969C310.018 70.4129 307.974 71.0009 305.65 70.8609V66.6189C307.078 66.7029 308.226 66.4089 309.094 65.7369C309.99 65.0929 310.704 64.0429 311.236 62.5869L311.362 62.2929L302.542 41.4609H307.372L313.756 56.7489L319.132 41.4609Z" fill="white"/>
<circle cx="375.83" cy="48.4623" r="14.5619" fill="white"/>
</svg>
