<svg width="112" height="38" viewBox="0 0 112 38" fill="none" xmlns="http://www.w3.org/2000/svg">
<rect x="0.132812" y="0.851562" width="111.289" height="36.226" rx="18.113" fill="#FF6D3F"/>
<circle cx="16.0311" cy="18.9647" r="4.80649" fill="white"/>
<path d="M38.8427 25.7086C37.5801 25.7086 36.5049 25.4211 35.6173 24.846C34.7421 24.2709 34.1296 23.4833 33.7795 22.4832L35.636 21.3955C36.1611 22.8707 37.2488 23.6083 38.899 23.6083C39.7116 23.6083 40.318 23.4521 40.718 23.1395C41.1306 22.8145 41.3369 22.3957 41.3369 21.8831C41.3369 21.3455 41.1181 20.9392 40.6805 20.6642C40.2429 20.3766 39.4678 20.0641 38.3552 19.7265C37.7301 19.539 37.2238 19.364 36.8362 19.2014C36.4486 19.0389 36.0361 18.8139 35.5985 18.5263C35.1735 18.2263 34.8547 17.8575 34.6421 17.4199C34.4296 16.9824 34.3233 16.4698 34.3233 15.8822C34.3233 14.7195 34.7359 13.8007 35.561 13.1256C36.3861 12.438 37.38 12.0942 38.5427 12.0942C39.5928 12.0942 40.5117 12.3504 41.2993 12.863C42.087 13.3756 42.6933 14.0819 43.1184 14.9821L41.2993 16.0322C40.7493 14.8071 39.8304 14.1945 38.5427 14.1945C37.9176 14.1945 37.4175 14.3445 37.0425 14.6445C36.6674 14.9321 36.4799 15.3259 36.4799 15.826C36.4799 16.3135 36.6674 16.7011 37.0425 16.9886C37.43 17.2637 38.1239 17.5575 39.124 17.87C39.6241 18.0325 39.9867 18.1575 40.2117 18.2451C40.4492 18.3201 40.7743 18.4451 41.1868 18.6201C41.6119 18.7951 41.9307 18.9702 42.1432 19.1452C42.3557 19.3202 42.5808 19.539 42.8183 19.8015C43.0684 20.0641 43.2434 20.3641 43.3434 20.7017C43.4434 21.0392 43.4934 21.4205 43.4934 21.8456C43.4934 23.0332 43.0621 23.9771 42.1995 24.6772C41.3494 25.3648 40.2304 25.7086 38.8427 25.7086ZM51.5581 16.0885H53.5834V25.4648H51.5581V24.2647C50.9455 25.2273 49.9766 25.7086 48.6514 25.7086C47.5763 25.7086 46.7074 25.3648 46.0448 24.6772C45.3822 23.9896 45.0509 23.0457 45.0509 21.8456V16.0885H47.0762V21.6393C47.0762 22.3394 47.2637 22.877 47.6388 23.252C48.0138 23.6271 48.5264 23.8146 49.1765 23.8146C49.8891 23.8146 50.4642 23.5958 50.9018 23.1583C51.3393 22.7082 51.5581 22.0268 51.5581 21.1142V16.0885ZM61.2587 15.8447C62.5464 15.8447 63.6465 16.326 64.5591 17.2887C65.4718 18.2388 65.9281 19.4015 65.9281 20.7767C65.9281 22.1644 65.4718 23.3333 64.5591 24.2834C63.6465 25.2336 62.5464 25.7086 61.2587 25.7086C59.8335 25.7086 58.7396 25.1836 57.9769 24.1334V29.2154H55.9517V16.0885H57.9769V17.4387C58.7396 16.376 59.8335 15.8447 61.2587 15.8447ZM58.8208 22.9332C59.3834 23.4958 60.0898 23.7771 60.9399 23.7771C61.79 23.7771 62.4964 23.4958 63.0589 22.9332C63.6215 22.3581 63.9028 21.6393 63.9028 20.7767C63.9028 19.914 63.6215 19.2014 63.0589 18.6389C62.4964 18.0638 61.79 17.7762 60.9399 17.7762C60.0898 17.7762 59.3834 18.0638 58.8208 18.6389C58.2582 19.2014 57.9769 19.914 57.9769 20.7767C57.9769 21.6393 58.2582 22.3581 58.8208 22.9332ZM73.0707 15.8447C74.3584 15.8447 75.4585 16.326 76.3712 17.2887C77.2838 18.2388 77.7401 19.4015 77.7401 20.7767C77.7401 22.1644 77.2838 23.3333 76.3712 24.2834C75.4585 25.2336 74.3584 25.7086 73.0707 25.7086C71.6455 25.7086 70.5516 25.1836 69.789 24.1334V29.2154H67.7637V16.0885H69.789V17.4387C70.5516 16.376 71.6455 15.8447 73.0707 15.8447ZM70.6328 22.9332C71.1954 23.4958 71.9018 23.7771 72.7519 23.7771C73.602 23.7771 74.3084 23.4958 74.8709 22.9332C75.4335 22.3581 75.7148 21.6393 75.7148 20.7767C75.7148 19.914 75.4335 19.2014 74.8709 18.6389C74.3084 18.0638 73.602 17.7762 72.7519 17.7762C71.9018 17.7762 71.1954 18.0638 70.6328 18.6389C70.0702 19.2014 69.789 19.914 69.789 20.7767C69.789 21.6393 70.0702 22.3581 70.6328 22.9332Z" fill="white"/>
<circle cx="95.5233" cy="18.9647" r="4.80649" fill="white"/>
</svg>
