<svg width="569" height="97" viewBox="0 0 569 97" fill="none" xmlns="http://www.w3.org/2000/svg">
<rect x="0.0292969" y="0.728516" width="568.387" height="96.2478" rx="48.1239" fill="#FCBD16"/>
<circle cx="48.1957" cy="48.853" r="14.5619" fill="white"/>
<path d="M120.019 47.6056C121.307 48.2776 122.315 49.2016 123.043 50.3776C123.771 51.5536 124.135 52.9116 124.135 54.4516C124.135 56.8596 123.281 58.8616 121.573 60.4576C119.865 62.0536 117.779 62.8516 115.315 62.8516H102.715V33.4516H114.391C116.799 33.4516 118.829 34.2356 120.481 35.8036C122.161 37.3436 123.001 39.2756 123.001 41.5996C123.001 44.1476 122.007 46.1496 120.019 47.6056ZM114.391 37.9876H107.545V45.7156H114.391C115.455 45.7156 116.351 45.3516 117.079 44.6236C117.807 43.8676 118.171 42.9436 118.171 41.8516C118.171 40.7596 117.807 39.8496 117.079 39.1216C116.351 38.3656 115.455 37.9876 114.391 37.9876ZM115.315 58.3156C116.435 58.3156 117.373 57.9236 118.129 57.1396C118.913 56.3276 119.305 55.3476 119.305 54.1996C119.305 53.0516 118.913 52.0856 118.129 51.3016C117.373 50.4896 116.435 50.0836 115.315 50.0836H107.545V58.3156H115.315ZM139.653 52.0996C141.893 53.1076 143.013 54.7736 143.013 57.0976C143.013 58.8896 142.285 60.3876 140.829 61.5916C139.373 62.7956 137.343 63.3976 134.739 63.3976C130.511 63.3976 127.655 61.7176 126.171 58.3576L129.867 56.1736C130.623 58.2736 132.261 59.3236 134.781 59.3236C135.957 59.3236 136.881 59.0856 137.553 58.6096C138.225 58.1056 138.561 57.4476 138.561 56.6356C138.561 55.9076 138.295 55.3336 137.763 54.9136C137.231 54.4656 136.489 54.2416 135.537 54.2416H132.555V50.2516H134.781C135.705 50.2516 136.419 50.0416 136.923 49.6216C137.455 49.1736 137.721 48.5716 137.721 47.8156C137.721 47.0876 137.427 46.4996 136.839 46.0516C136.251 45.5756 135.467 45.3376 134.487 45.3376C132.387 45.3376 130.931 46.2616 130.119 48.1096L126.423 46.0096C127.991 42.8736 130.651 41.3056 134.403 41.3056C136.755 41.3056 138.617 41.9076 139.989 43.1116C141.389 44.2876 142.089 45.7296 142.089 47.4376C142.089 49.5376 141.277 51.0916 139.653 52.0996ZM163.35 41.8516H167.886V62.8516H163.35V59.8276C161.642 62.2076 159.192 63.3976 156 63.3976C153.116 63.3976 150.652 62.3336 148.608 60.2056C146.564 58.0496 145.542 55.4316 145.542 52.3516C145.542 49.2436 146.564 46.6256 148.608 44.4976C150.652 42.3696 153.116 41.3056 156 41.3056C159.192 41.3056 161.642 42.4816 163.35 44.8336V41.8516ZM151.968 57.1816C153.228 58.4416 154.81 59.0716 156.714 59.0716C158.618 59.0716 160.2 58.4416 161.46 57.1816C162.72 55.8936 163.35 54.2836 163.35 52.3516C163.35 50.4196 162.72 48.8236 161.46 47.5636C160.2 46.2756 158.618 45.6316 156.714 45.6316C154.81 45.6316 153.228 46.2756 151.968 47.5636C150.708 48.8236 150.078 50.4196 150.078 52.3516C150.078 54.2836 150.708 55.8936 151.968 57.1816ZM188.377 41.8516H191.863V62.8516H187.411V49.4956L176.659 62.8516H173.173V41.8516H177.625V55.1656L188.377 41.8516ZM218.546 41.8516V62.8516H214.136V49.0336L208.088 58.6516H207.542L201.536 49.0756V62.8516H197.126V41.8516H201.746L207.836 51.5536L213.926 41.8516H218.546ZM233.699 63.3976C230.619 63.3976 228.001 62.3336 225.845 60.2056C223.689 58.0776 222.611 55.4596 222.611 52.3516C222.611 49.2436 223.689 46.6256 225.845 44.4976C228.001 42.3696 230.619 41.3056 233.699 41.3056C236.807 41.3056 239.425 42.3696 241.553 44.4976C243.709 46.6256 244.787 49.2436 244.787 52.3516C244.787 55.4596 243.709 58.0776 241.553 60.2056C239.425 62.3336 236.807 63.3976 233.699 63.3976ZM229.037 57.0976C230.297 58.3576 231.851 58.9876 233.699 58.9876C235.547 58.9876 237.101 58.3576 238.361 57.0976C239.621 55.8376 240.251 54.2556 240.251 52.3516C240.251 50.4476 239.621 48.8656 238.361 47.6056C237.101 46.3456 235.547 45.7156 233.699 45.7156C231.851 45.7156 230.297 46.3456 229.037 47.6056C227.777 48.8656 227.147 50.4476 227.147 52.3516C227.147 54.2556 227.777 55.8376 229.037 57.0976ZM267.578 41.8516V62.8516H263.042V46.1356H253.424V62.8516H248.888V41.8516H267.578ZM282.753 63.3976C279.673 63.3976 277.055 62.3336 274.899 60.2056C272.743 58.0776 271.665 55.4596 271.665 52.3516C271.665 49.2436 272.743 46.6256 274.899 44.4976C277.055 42.3696 279.673 41.3056 282.753 41.3056C285.861 41.3056 288.479 42.3696 290.607 44.4976C292.763 46.6256 293.841 49.2436 293.841 52.3516C293.841 55.4596 292.763 58.0776 290.607 60.2056C288.479 62.3336 285.861 63.3976 282.753 63.3976ZM278.091 57.0976C279.351 58.3576 280.905 58.9876 282.753 58.9876C284.601 58.9876 286.155 58.3576 287.415 57.0976C288.675 55.8376 289.305 54.2556 289.305 52.3516C289.305 50.4476 288.675 48.8656 287.415 47.6056C286.155 46.3456 284.601 45.7156 282.753 45.7156C280.905 45.7156 279.351 46.3456 278.091 47.6056C276.831 48.8656 276.201 50.4476 276.201 52.3516C276.201 54.2556 276.831 55.8376 278.091 57.0976ZM312.097 41.8516H316.633V62.8516H312.097V54.4936H302.479V62.8516H297.943V41.8516H302.479V50.2096H312.097V41.8516ZM337.1 41.8516H340.586V62.8516H336.134V49.4956L325.382 62.8516H321.896V41.8516H326.348V55.1656L337.1 41.8516ZM367.269 41.8516V62.8516H362.859V49.0336L356.811 58.6516H356.265L350.259 49.0756V62.8516H345.849V41.8516H350.469L356.559 51.5536L362.649 41.8516H367.269ZM389.141 41.8516H393.677V62.8516H389.141V59.8276C387.433 62.2076 384.983 63.3976 381.791 63.3976C378.907 63.3976 376.443 62.3336 374.399 60.2056C372.355 58.0496 371.333 55.4316 371.333 52.3516C371.333 49.2436 372.355 46.6256 374.399 44.4976C376.443 42.3696 378.907 41.3056 381.791 41.3056C384.983 41.3056 387.433 42.4816 389.141 44.8336V41.8516ZM377.759 57.1816C379.019 58.4416 380.601 59.0716 382.505 59.0716C384.409 59.0716 385.991 58.4416 387.251 57.1816C388.511 55.8936 389.141 54.2836 389.141 52.3516C389.141 50.4196 388.511 48.8236 387.251 47.5636C385.991 46.2756 384.409 45.6316 382.505 45.6316C380.601 45.6316 379.019 46.2756 377.759 47.5636C376.499 48.8236 375.869 50.4196 375.869 52.3516C375.869 54.2836 376.499 55.8936 377.759 57.1816ZM413.118 41.8516H417.654V62.8516H413.118V54.4936H403.5V62.8516H398.964V41.8516H403.5V50.2096H413.118V41.8516ZM438.121 41.8516H441.607V62.8516H437.155V49.4956L426.403 62.8516H422.917V41.8516H427.369V55.1656L438.121 41.8516ZM450.441 54.2836C450.777 55.8796 451.547 57.1116 452.751 57.9796C453.955 58.8196 455.425 59.2396 457.161 59.2396C459.569 59.2396 461.375 58.3716 462.579 56.6356L466.317 58.8196C464.245 61.8716 461.179 63.3976 457.119 63.3976C453.703 63.3976 450.945 62.3616 448.845 60.2896C446.745 58.1896 445.695 55.5436 445.695 52.3516C445.695 49.2156 446.731 46.5976 448.803 44.4976C450.875 42.3696 453.535 41.3056 456.783 41.3056C459.863 41.3056 462.383 42.3836 464.343 44.5396C466.331 46.6956 467.325 49.3136 467.325 52.3936C467.325 52.8696 467.269 53.4996 467.157 54.2836H450.441ZM450.399 50.5876H462.747C462.439 48.8796 461.725 47.5916 460.605 46.7236C459.513 45.8556 458.225 45.4216 456.741 45.4216C455.061 45.4216 453.661 45.8836 452.541 46.8076C451.421 47.7316 450.707 48.9916 450.399 50.5876Z" fill="#333232"/>
<circle cx="520.249" cy="48.853" r="14.5619" fill="white"/>
</svg>
