<svg width="475" height="97" viewBox="0 0 475 97" fill="none" xmlns="http://www.w3.org/2000/svg">
<rect x="0.712891" y="0.429688" width="473.387" height="96.2478" rx="48.1239" fill="#E55A39"/>
<circle cx="48.8793" cy="48.5541" r="14.5619" fill="white"/>
<path d="M128.334 58.6887C125.394 61.6287 121.796 63.0987 117.54 63.0987C113.284 63.0987 109.672 61.6287 106.704 58.6887C103.764 55.7207 102.294 52.1087 102.294 47.8527C102.294 43.5967 103.764 39.9987 106.704 37.0587C109.672 34.0907 113.284 32.6067 117.54 32.6067C121.796 32.6067 125.394 34.0907 128.334 37.0587C131.302 39.9987 132.786 43.5967 132.786 47.8527C132.786 52.1087 131.302 55.7207 128.334 58.6887ZM110.106 55.4127C112.122 57.4007 114.6 58.3947 117.54 58.3947C120.48 58.3947 122.944 57.4007 124.932 55.4127C126.948 53.3967 127.956 50.8767 127.956 47.8527C127.956 44.8287 126.948 42.3227 124.932 40.3347C122.944 38.3187 120.48 37.3107 117.54 37.3107C114.6 37.3107 112.122 38.3187 110.106 40.3347C108.118 42.3227 107.124 44.8287 107.124 47.8527C107.124 50.8767 108.118 53.3967 110.106 55.4127ZM146.642 63.0987C143.422 63.0987 140.79 62.0627 138.746 59.9907C136.73 57.8907 135.722 55.2167 135.722 51.9687C135.722 48.4127 136.254 45.6687 137.318 43.7367C138.382 41.7767 140.538 39.9987 143.786 38.4027C144.318 38.1507 145.102 37.7867 146.138 37.3107C147.202 36.8347 147.93 36.4987 148.322 36.3027C148.714 36.0787 149.204 35.7707 149.792 35.3787C150.38 34.9587 150.814 34.5247 151.094 34.0767C151.374 33.6007 151.598 33.0407 151.766 32.3967L155.462 34.5387C155.35 35.1547 155.168 35.7287 154.916 36.2607C154.664 36.7647 154.3 37.2407 153.824 37.6887C153.348 38.1367 152.928 38.5007 152.564 38.7807C152.228 39.0607 151.654 39.3967 150.842 39.7887C150.03 40.1807 149.428 40.4607 149.036 40.6287C148.672 40.7967 147.972 41.0907 146.936 41.5107C145.088 42.2387 143.73 42.9947 142.862 43.7787C142.022 44.5347 141.434 45.4867 141.098 46.6347C142.778 44.7307 145.06 43.7787 147.944 43.7787C150.408 43.7787 152.55 44.6607 154.37 46.4247C156.218 48.1887 157.142 50.4707 157.142 53.2707C157.142 56.1267 156.162 58.4787 154.202 60.3267C152.27 62.1747 149.75 63.0987 146.642 63.0987ZM146.6 58.8567C148.364 58.8567 149.806 58.3387 150.926 57.3027C152.046 56.2387 152.606 54.8947 152.606 53.2707C152.606 51.6187 152.046 50.2607 150.926 49.1967C149.834 48.1327 148.406 47.6007 146.642 47.6007C145.074 47.6007 143.66 48.1047 142.4 49.1127C141.14 50.0927 140.51 51.4087 140.51 53.0607C140.51 54.7407 141.098 56.1267 142.274 57.2187C143.45 58.3107 144.892 58.8567 146.6 58.8567ZM172.214 48.6927C174.454 48.6927 176.288 49.3367 177.716 50.6247C179.144 51.8847 179.858 53.5507 179.858 55.6227C179.858 57.6667 179.144 59.3327 177.716 60.6207C176.288 61.9087 174.454 62.5527 172.214 62.5527H163.058V45.9207H157.262V41.5527H167.594V48.6927H172.214ZM172.256 58.4787C173.152 58.4787 173.894 58.2127 174.482 57.6807C175.098 57.1487 175.406 56.4627 175.406 55.6227C175.406 54.7547 175.098 54.0687 174.482 53.5647C173.894 53.0327 173.152 52.7667 172.256 52.7667H167.594V58.4787H172.256ZM186.898 53.9847C187.234 55.5807 188.004 56.8127 189.208 57.6807C190.412 58.5207 191.882 58.9407 193.618 58.9407C196.026 58.9407 197.832 58.0727 199.036 56.3367L202.774 58.5207C200.702 61.5727 197.636 63.0987 193.576 63.0987C190.16 63.0987 187.402 62.0627 185.302 59.9907C183.202 57.8907 182.152 55.2447 182.152 52.0527C182.152 48.9167 183.188 46.2987 185.26 44.1987C187.332 42.0707 189.992 41.0067 193.24 41.0067C196.32 41.0067 198.84 42.0847 200.8 44.2407C202.788 46.3967 203.782 49.0147 203.782 52.0947C203.782 52.5707 203.726 53.2007 203.614 53.9847H186.898ZM186.856 50.2887H199.204C198.896 48.5807 198.182 47.2927 197.062 46.4247C195.97 45.5567 194.682 45.1227 193.198 45.1227C191.518 45.1227 190.118 45.5847 188.998 46.5087C187.878 47.4327 187.164 48.6927 186.856 50.2887ZM225.433 58.2687H228.247V68.1807H223.795V62.5527H209.389V68.1807H204.937V58.2687H207.499C208.787 56.4487 209.431 53.9147 209.431 50.6667V41.5527H225.433V58.2687ZM212.497 58.2687H220.981V45.7107H213.883V50.6667C213.883 53.6627 213.421 56.1967 212.497 58.2687ZM247.135 41.5527H250.621V62.5527L246.169 62.5527V49.1967L235.417 62.5527H231.931V41.5527H236.383V54.8667L247.135 41.5527ZM270.038 41.5527H274.574V62.5527H270.038V54.1947H260.42V62.5527H255.884V41.5527H260.42V49.9107H270.038V41.5527ZM283.407 53.9847C283.743 55.5807 284.513 56.8127 285.717 57.6807C286.921 58.5207 288.391 58.9407 290.127 58.9407C292.535 58.9407 294.341 58.0727 295.545 56.3367L299.283 58.5207C297.211 61.5727 294.145 63.0987 290.085 63.0987C286.669 63.0987 283.911 62.0627 281.811 59.9907C279.711 57.8907 278.661 55.2447 278.661 52.0527C278.661 48.9167 279.697 46.2987 281.769 44.1987C283.841 42.0707 286.501 41.0067 289.749 41.0067C292.829 41.0067 295.349 42.0847 297.309 44.2407C299.297 46.3967 300.291 49.0147 300.291 52.0947C300.291 52.5707 300.235 53.2007 300.123 53.9847H283.407ZM283.365 50.2887H295.713C295.405 48.5807 294.691 47.2927 293.571 46.4247C292.479 45.5567 291.191 45.1227 289.707 45.1227C288.027 45.1227 286.627 45.5847 285.507 46.5087C284.387 47.4327 283.673 48.6927 283.365 50.2887ZM318.437 41.5527H322.973V62.5527H318.437V54.1947H308.819V62.5527H304.283V41.5527H308.819V49.9107H318.437V41.5527ZM343.44 41.5527H346.926V62.5527H342.474V49.1967L331.722 62.5527H328.236V41.5527H332.688V54.8667L343.44 41.5527ZM355.759 53.9847C356.095 55.5807 356.865 56.8127 358.069 57.6807C359.273 58.5207 360.743 58.9407 362.479 58.9407C364.887 58.9407 366.693 58.0727 367.897 56.3367L371.635 58.5207C369.563 61.5727 366.497 63.0987 362.437 63.0987C359.021 63.0987 356.263 62.0627 354.163 59.9907C352.063 57.8907 351.013 55.2447 351.013 52.0527C351.013 48.9167 352.049 46.2987 354.121 44.1987C356.193 42.0707 358.853 41.0067 362.101 41.0067C365.181 41.0067 367.701 42.0847 369.661 44.2407C371.649 46.3967 372.643 49.0147 372.643 52.0947C372.643 52.5707 372.587 53.2007 372.475 53.9847H355.759ZM355.717 50.2887H368.065C367.757 48.5807 367.043 47.2927 365.923 46.4247C364.831 45.5567 363.543 45.1227 362.059 45.1227C360.379 45.1227 358.979 45.5847 357.859 46.5087C356.739 47.4327 356.025 48.6927 355.717 50.2887Z" fill="white"/>
<circle cx="425.933" cy="48.5541" r="14.5619" fill="white"/>
</svg>
