<svg width="120" height="32" viewBox="0 0 120 32" fill="none" xmlns="http://www.w3.org/2000/svg">
<path d="M26.5569 27.259C23.6169 30.199 20.0189 31.669 15.7629 31.669C11.5069 31.669 7.89488 30.199 4.92688 27.259C1.98688 24.291 0.516875 20.679 0.516875 16.423C0.516875 12.167 1.98688 8.56905 4.92688 5.62904C7.89488 2.66104 11.5069 1.17704 15.7629 1.17704C20.0189 1.17704 23.6169 2.66104 26.5569 5.62904C29.5249 8.56905 31.0089 12.167 31.0089 16.423C31.0089 20.679 29.5249 24.291 26.5569 27.259ZM8.32888 23.983C10.3449 25.971 12.8229 26.965 15.7629 26.965C18.7029 26.965 21.1669 25.971 23.1549 23.983C25.1709 21.967 26.1789 19.447 26.1789 16.423C26.1789 13.399 25.1709 10.893 23.1549 8.90505C21.1669 6.88905 18.7029 5.88105 15.7629 5.88105C12.8229 5.88105 10.3449 6.88905 8.32888 8.90505C6.34088 10.893 5.34688 13.399 5.34688 16.423C5.34688 19.447 6.34088 21.967 8.32888 23.983ZM51.7526 1.72304L56.2886 1.72304V31.123H51.7526V28.099C50.0446 30.479 47.5946 31.669 44.4026 31.669C41.5186 31.669 39.0546 30.605 37.0106 28.477C34.9666 26.321 33.9446 23.703 33.9446 20.623C33.9446 17.515 34.9666 14.897 37.0106 12.769C39.0546 10.641 41.5186 9.57705 44.4026 9.57705C47.5946 9.57705 50.0446 10.753 51.7526 13.105V1.72304ZM40.3706 25.453C41.6306 26.713 43.2126 27.343 45.1166 27.343C47.0206 27.343 48.6026 26.713 49.8626 25.453C51.1226 24.165 51.7526 22.555 51.7526 20.623C51.7526 18.691 51.1226 17.095 49.8626 15.835C48.6026 14.547 47.0206 13.903 45.1166 13.903C43.2126 13.903 41.6306 14.547 40.3706 15.835C39.1106 17.095 38.4806 18.691 38.4806 20.623C38.4806 22.555 39.1106 24.165 40.3706 25.453ZM78.2077 1.72304H82.7437V31.123H78.2077V28.099C76.4997 30.479 74.0497 31.669 70.8577 31.669C67.9737 31.669 65.5097 30.605 63.4657 28.477C61.4217 26.321 60.3997 23.703 60.3997 20.623C60.3997 17.515 61.4217 14.897 63.4657 12.769C65.5097 10.641 67.9737 9.57705 70.8577 9.57705C74.0497 9.57705 76.4997 10.753 78.2077 13.105V1.72304ZM66.8257 25.453C68.0857 26.713 69.6677 27.343 71.5717 27.343C73.4757 27.343 75.0577 26.713 76.3177 25.453C77.5777 24.165 78.2077 22.555 78.2077 20.623C78.2077 18.691 77.5777 17.095 76.3177 15.835C75.0577 14.547 73.4757 13.903 71.5717 13.903C69.6677 13.903 68.0857 14.547 66.8257 15.835C65.5657 17.095 64.9357 18.691 64.9357 20.623C64.9357 22.555 65.5657 24.165 66.8257 25.453ZM97.7748 31.669C94.5548 31.669 91.9228 30.633 89.8788 28.561C87.8628 26.461 86.8548 23.787 86.8548 20.539C86.8548 16.983 87.3868 14.239 88.4508 12.307C89.5148 10.347 91.6708 8.56905 94.9188 6.97304C95.4508 6.72104 96.2348 6.35705 97.2708 5.88105C98.3348 5.40505 99.0628 5.06905 99.4548 4.87305C99.8468 4.64905 100.337 4.34105 100.925 3.94905C101.513 3.52904 101.947 3.09504 102.227 2.64705C102.507 2.17104 102.731 1.61104 102.899 0.967045L106.595 3.10904C106.483 3.72504 106.301 4.29905 106.049 4.83104C105.797 5.33505 105.433 5.81105 104.957 6.25905C104.481 6.70705 104.061 7.07105 103.697 7.35105C103.361 7.63104 102.787 7.96704 101.975 8.35904C101.163 8.75105 100.561 9.03105 100.169 9.19905C99.8048 9.36705 99.1048 9.66105 98.0688 10.081C96.2208 10.809 94.8628 11.565 93.9948 12.349C93.1548 13.105 92.5668 14.057 92.2308 15.205C93.9108 13.301 96.1928 12.349 99.0768 12.349C101.541 12.349 103.683 13.231 105.503 14.995C107.351 16.759 108.275 19.041 108.275 21.841C108.275 24.697 107.295 27.049 105.335 28.897C103.403 30.745 100.883 31.669 97.7748 31.669ZM97.7328 27.427C99.4968 27.427 100.939 26.909 102.059 25.873C103.179 24.809 103.739 23.465 103.739 21.841C103.739 20.189 103.179 18.831 102.059 17.767C100.967 16.703 99.5388 16.171 97.7748 16.171C96.2068 16.171 94.7928 16.675 93.5328 17.683C92.2728 18.663 91.6428 19.979 91.6428 21.631C91.6428 23.311 92.2308 24.697 93.4068 25.789C94.5828 26.881 96.0248 27.427 97.7328 27.427ZM114.987 1.72304H119.187V31.123H114.357V6.88905L108.435 8.56905L107.259 4.45304L114.987 1.72304Z" fill="#E55A39"/>
</svg>
