<svg width="234" height="37" viewBox="0 0 234 37" fill="none" xmlns="http://www.w3.org/2000/svg">
<path d="M26.259 27.2219C23.319 30.1619 19.721 31.6319 15.465 31.6319C11.209 31.6319 7.59702 30.1619 4.62902 27.2219C1.68902 24.2539 0.219023 20.6419 0.219023 16.3859C0.219023 12.1299 1.68902 8.53194 4.62902 5.59193C7.59702 2.62393 11.209 1.13993 15.465 1.13993C19.721 1.13993 23.319 2.62393 26.259 5.59193C29.227 8.53194 30.711 12.1299 30.711 16.3859C30.711 20.6419 29.227 24.2539 26.259 27.2219ZM8.03102 23.9459C10.047 25.9339 12.525 26.9279 15.465 26.9279C18.405 26.9279 20.869 25.9339 22.857 23.9459C24.873 21.9299 25.881 19.4099 25.881 16.3859C25.881 13.3619 24.873 10.8559 22.857 8.86794C20.869 6.85194 18.405 5.84394 15.465 5.84394C12.525 5.84394 10.047 6.85194 8.03102 8.86794C6.04302 10.8559 5.04902 13.3619 5.04902 16.3859C5.04902 19.4099 6.04302 21.9299 8.03102 23.9459ZM44.5668 31.6319C41.3468 31.6319 38.7148 30.5959 36.6708 28.5239C34.6548 26.4239 33.6468 23.7499 33.6468 20.5019C33.6468 16.9459 34.1788 14.2019 35.2428 12.2699C36.3068 10.3099 38.4628 8.53194 41.7108 6.93593C42.2428 6.68393 43.0268 6.31994 44.0628 5.84394C45.1268 5.36794 45.8548 5.03194 46.2468 4.83594C46.6388 4.61194 47.1288 4.30394 47.7168 3.91194C48.3048 3.49194 48.7388 3.05794 49.0188 2.60994C49.2988 2.13394 49.5228 1.57394 49.6908 0.929935L53.3868 3.07193C53.2748 3.68794 53.0928 4.26194 52.8408 4.79394C52.5888 5.29794 52.2248 5.77394 51.7488 6.22194C51.2728 6.66994 50.8528 7.03394 50.4888 7.31394C50.1528 7.59393 49.5788 7.92993 48.7668 8.32193C47.9548 8.71394 47.3528 8.99394 46.9608 9.16194C46.5968 9.32994 45.8968 9.62394 44.8608 10.0439C43.0128 10.7719 41.6548 11.5279 40.7868 12.3119C39.9468 13.0679 39.3588 14.0199 39.0228 15.1679C40.7028 13.2639 42.9848 12.3119 45.8688 12.3119C48.3328 12.3119 50.4748 13.1939 52.2948 14.9579C54.1428 16.7219 55.0668 19.0039 55.0668 21.8039C55.0668 24.6599 54.0868 27.0119 52.1268 28.8599C50.1948 30.7079 47.6748 31.6319 44.5668 31.6319ZM44.5248 27.3899C46.2888 27.3899 47.7308 26.8719 48.8508 25.8359C49.9708 24.7719 50.5308 23.4279 50.5308 21.8039C50.5308 20.1519 49.9708 18.7939 48.8508 17.7299C47.7588 16.6659 46.3308 16.1339 44.5668 16.1339C42.9988 16.1339 41.5848 16.6379 40.3248 17.6459C39.0648 18.6259 38.4348 19.9419 38.4348 21.5939C38.4348 23.2739 39.0228 24.6599 40.1988 25.7519C41.3748 26.8439 42.8168 27.3899 44.5248 27.3899ZM70.1385 17.2259C72.3785 17.2259 74.2125 17.8699 75.6405 19.1579C77.0685 20.4179 77.7825 22.0839 77.7825 24.1559C77.7825 26.1999 77.0685 27.8659 75.6405 29.1539C74.2125 30.4419 72.3785 31.0859 70.1385 31.0859H60.9825V14.4539H55.1865V10.0859H65.5185V17.2259H70.1385ZM70.1805 27.0119C71.0765 27.0119 71.8185 26.7459 72.4065 26.2139C73.0225 25.6819 73.3305 24.9959 73.3305 24.1559C73.3305 23.2879 73.0225 22.6019 72.4065 22.0979C71.8185 21.5659 71.0765 21.2999 70.1805 21.2999H65.5185V27.0119H70.1805ZM84.8224 22.5179C85.1584 24.1139 85.9284 25.3459 87.1324 26.2139C88.3364 27.0539 89.8064 27.4739 91.5424 27.4739C93.9504 27.4739 95.7564 26.6059 96.9604 24.8699L100.698 27.0539C98.6264 30.1059 95.5604 31.6319 91.5004 31.6319C88.0844 31.6319 85.3264 30.5959 83.2264 28.5239C81.1264 26.4239 80.0764 23.7779 80.0764 20.5859C80.0764 17.4499 81.1124 14.8319 83.1844 12.7319C85.2564 10.6039 87.9164 9.53994 91.1644 9.53994C94.2444 9.53994 96.7644 10.6179 98.7244 12.7739C100.712 14.9299 101.706 17.5479 101.706 20.6279C101.706 21.1039 101.65 21.7339 101.538 22.5179H84.8224ZM84.7804 18.8219H97.1284C96.8204 17.1139 96.1064 15.8259 94.9864 14.9579C93.8944 14.0899 92.6064 13.6559 91.1224 13.6559C89.4424 13.6559 88.0424 14.1179 86.9224 15.0419C85.8024 15.9659 85.0884 17.2259 84.7804 18.8219ZM123.357 26.8019H126.171V36.7139H121.719V31.0859H107.313V36.7139H102.861V26.8019H105.423C106.711 24.9819 107.355 22.4479 107.355 19.1999V10.0859H123.357V26.8019ZM110.421 26.8019H118.905V14.2439H111.807V19.1999C111.807 22.1959 111.345 24.7299 110.421 26.8019ZM145.06 10.0859H148.546V31.0859H144.094V17.7299L133.342 31.0859H129.856V10.0859H134.308V23.3999L145.06 10.0859ZM167.963 10.0859H172.499V31.0859H167.963V22.7279H158.345V31.0859H153.809V10.0859H158.345V18.4439H167.963V10.0859ZM181.332 22.5179C181.668 24.1139 182.438 25.3459 183.642 26.2139C184.846 27.0539 186.316 27.4739 188.052 27.4739C190.46 27.4739 192.266 26.6059 193.47 24.8699L197.208 27.0539C195.136 30.1059 192.07 31.6319 188.01 31.6319C184.594 31.6319 181.836 30.5959 179.736 28.5239C177.636 26.4239 176.586 23.7779 176.586 20.5859C176.586 17.4499 177.622 14.8319 179.694 12.7319C181.766 10.6039 184.426 9.53994 187.674 9.53994C190.754 9.53994 193.274 10.6179 195.234 12.7739C197.222 14.9299 198.216 17.5479 198.216 20.6279C198.216 21.1039 198.16 21.7339 198.048 22.5179H181.332ZM181.29 18.8219H193.638C193.33 17.1139 192.616 15.8259 191.496 14.9579C190.404 14.0899 189.116 13.6559 187.632 13.6559C185.952 13.6559 184.552 14.1179 183.432 15.0419C182.312 15.9659 181.598 17.2259 181.29 18.8219ZM225.14 9.53994C227.52 9.53994 229.438 10.3099 230.894 11.8499C232.35 13.3899 233.078 15.4619 233.078 18.0659V31.0859H228.542V18.3599C228.542 16.9039 228.178 15.7839 227.45 14.9999C226.722 14.1879 225.728 13.7819 224.468 13.7819C223.068 13.7819 221.948 14.2439 221.108 15.1679C220.296 16.0919 219.89 17.4779 219.89 19.3259V31.0859H215.354V18.3599C215.354 16.9039 215.004 15.7839 214.304 14.9999C213.632 14.1879 212.666 13.7819 211.406 13.7819C210.034 13.7819 208.914 14.2579 208.046 15.2099C207.178 16.1339 206.744 17.5059 206.744 19.3259V31.0859H202.208V10.0859H206.744V12.6059C208.088 10.5619 210.09 9.53994 212.75 9.53994C215.438 9.53994 217.426 10.6459 218.714 12.8579C220.114 10.6459 222.256 9.53994 225.14 9.53994Z" fill="#33A363"/>
</svg>
