<svg width="175" height="37" viewBox="0 0 175 37" fill="none" xmlns="http://www.w3.org/2000/svg">
<path d="M26.6379 27.259C23.6979 30.199 20.0999 31.669 15.8439 31.669C11.5879 31.669 7.97593 30.199 5.00793 27.259C2.06793 24.291 0.59793 20.679 0.59793 16.423C0.59793 12.167 2.06793 8.56905 5.00793 5.62904C7.97593 2.66104 11.5879 1.17704 15.8439 1.17704C20.0999 1.17704 23.6979 2.66104 26.6379 5.62904C29.6059 8.56905 31.0899 12.167 31.0899 16.423C31.0899 20.679 29.6059 24.291 26.6379 27.259ZM8.40993 23.983C10.4259 25.971 12.9039 26.965 15.8439 26.965C18.7839 26.965 21.2479 25.971 23.2359 23.983C25.2519 21.967 26.2599 19.447 26.2599 16.423C26.2599 13.399 25.2519 10.893 23.2359 8.90505C21.2479 6.88905 18.7839 5.88105 15.8439 5.88105C12.9039 5.88105 10.4259 6.88905 8.40993 8.90505C6.42193 10.893 5.42793 13.399 5.42793 16.423C5.42793 19.447 6.42193 21.967 8.40993 23.983ZM44.9457 31.669C41.7257 31.669 39.0937 30.633 37.0497 28.561C35.0337 26.461 34.0257 23.787 34.0257 20.539C34.0257 16.983 34.5577 14.239 35.6217 12.307C36.6857 10.347 38.8417 8.56905 42.0897 6.97304C42.6217 6.72104 43.4057 6.35705 44.4417 5.88105C45.5057 5.40505 46.2337 5.06905 46.6257 4.87305C47.0177 4.64905 47.5077 4.34105 48.0957 3.94905C48.6837 3.52904 49.1177 3.09504 49.3977 2.64705C49.6777 2.17104 49.9017 1.61104 50.0697 0.967045L53.7657 3.10904C53.6537 3.72504 53.4717 4.29905 53.2197 4.83104C52.9677 5.33505 52.6037 5.81105 52.1277 6.25905C51.6517 6.70705 51.2317 7.07105 50.8677 7.35105C50.5317 7.63104 49.9577 7.96704 49.1457 8.35904C48.3337 8.75105 47.7317 9.03105 47.3397 9.19905C46.9757 9.36705 46.2757 9.66105 45.2397 10.081C43.3917 10.809 42.0337 11.565 41.1657 12.349C40.3257 13.105 39.7377 14.057 39.4017 15.205C41.0817 13.301 43.3637 12.349 46.2477 12.349C48.7117 12.349 50.8537 13.231 52.6737 14.995C54.5217 16.759 55.4457 19.041 55.4457 21.841C55.4457 24.697 54.4657 27.049 52.5057 28.897C50.5737 30.745 48.0537 31.669 44.9457 31.669ZM44.9037 27.427C46.6677 27.427 48.1097 26.909 49.2297 25.873C50.3497 24.809 50.9097 23.465 50.9097 21.841C50.9097 20.189 50.3497 18.831 49.2297 17.767C48.1377 16.703 46.7097 16.171 44.9457 16.171C43.3777 16.171 41.9637 16.675 40.7037 17.683C39.4437 18.663 38.8137 19.979 38.8137 21.631C38.8137 23.311 39.4017 24.697 40.5777 25.789C41.7537 26.881 43.1957 27.427 44.9037 27.427ZM70.5174 17.263C72.7574 17.263 74.5914 17.907 76.0194 19.195C77.4474 20.455 78.1614 22.121 78.1614 24.193C78.1614 26.237 77.4474 27.903 76.0194 29.191C74.5914 30.479 72.7574 31.123 70.5174 31.123H61.3614L61.3614 14.491H55.5654V10.123H65.8974V17.263H70.5174ZM70.5594 27.049C71.4554 27.049 72.1974 26.783 72.7854 26.251C73.4014 25.719 73.7094 25.033 73.7094 24.193C73.7094 23.325 73.4014 22.639 72.7854 22.135C72.1974 21.603 71.4554 21.337 70.5594 21.337H65.8974V27.049H70.5594ZM85.2014 22.555C85.5374 24.151 86.3074 25.383 87.5114 26.251C88.7154 27.091 90.1854 27.511 91.9214 27.511C94.3294 27.511 96.1354 26.643 97.3394 24.907L101.077 27.091C99.0054 30.143 95.9394 31.669 91.8794 31.669C88.4634 31.669 85.7054 30.633 83.6054 28.561C81.5054 26.461 80.4554 23.815 80.4554 20.623C80.4554 17.487 81.4914 14.869 83.5634 12.769C85.6354 10.641 88.2954 9.57705 91.5434 9.57705C94.6234 9.57705 97.1434 10.655 99.1034 12.811C101.091 14.967 102.085 17.585 102.085 20.665C102.085 21.141 102.029 21.771 101.917 22.555H85.2014ZM85.1594 18.859H97.5074C97.1994 17.151 96.4854 15.863 95.3654 14.995C94.2734 14.127 92.9854 13.693 91.5014 13.693C89.8214 13.693 88.4214 14.155 87.3014 15.079C86.1814 16.003 85.4674 17.263 85.1594 18.859ZM123.736 26.839H126.55V36.751H122.098V31.123H107.692V36.751H103.24V26.839H105.802C107.09 25.019 107.734 22.485 107.734 19.237V10.123L123.736 10.123V26.839ZM110.8 26.839H119.284V14.281H112.186V19.237C112.186 22.233 111.724 24.767 110.8 26.839ZM153.167 9.57705C155.547 9.57705 157.465 10.347 158.921 11.887C160.377 13.427 161.105 15.499 161.105 18.103V31.123H156.569V18.397C156.569 16.941 156.205 15.821 155.477 15.037C154.749 14.225 153.755 13.819 152.495 13.819C151.095 13.819 149.975 14.281 149.135 15.205C148.323 16.129 147.917 17.515 147.917 19.363V31.123H143.381V18.397C143.381 16.941 143.031 15.821 142.331 15.037C141.659 14.225 140.693 13.819 139.433 13.819C138.061 13.819 136.941 14.295 136.073 15.247C135.205 16.171 134.771 17.543 134.771 19.363V31.123H130.235V10.123H134.771V12.643C136.115 10.599 138.117 9.57705 140.777 9.57705C143.465 9.57705 145.453 10.683 146.741 12.895C148.141 10.683 150.283 9.57705 153.167 9.57705ZM169.906 1.72304L174.106 1.72304V31.123H169.276V6.88905L163.354 8.56905L162.178 4.45304L169.906 1.72304Z" fill="#4A5EE5"/>
</svg>
