<svg width="92" height="32" viewBox="0 0 92 32" fill="none" xmlns="http://www.w3.org/2000/svg">
<path d="M26.5842 27.259C23.6442 30.199 20.0462 31.669 15.7902 31.669C11.5342 31.669 7.92222 30.199 4.95422 27.259C2.01422 24.291 0.544219 20.679 0.544219 16.423C0.544219 12.167 2.01422 8.56905 4.95422 5.62904C7.92222 2.66104 11.5342 1.17704 15.7902 1.17704C20.0462 1.17704 23.6442 2.66104 26.5842 5.62904C29.5522 8.56905 31.0362 12.167 31.0362 16.423C31.0362 20.679 29.5522 24.291 26.5842 27.259ZM8.35622 23.983C10.3722 25.971 12.8502 26.965 15.7902 26.965C18.7302 26.965 21.1942 25.971 23.1822 23.983C25.1982 21.967 26.2062 19.447 26.2062 16.423C26.2062 13.399 25.1982 10.893 23.1822 8.90505C21.1942 6.88905 18.7302 5.88105 15.7902 5.88105C12.8502 5.88105 10.3722 6.88905 8.35622 8.90505C6.36822 10.893 5.37422 13.399 5.37422 16.423C5.37422 19.447 6.36822 21.967 8.35622 23.983ZM44.892 31.669C41.672 31.669 39.04 30.633 36.996 28.561C34.98 26.461 33.972 23.787 33.972 20.539C33.972 16.983 34.504 14.239 35.568 12.307C36.632 10.347 38.788 8.56905 42.036 6.97304C42.568 6.72104 43.352 6.35705 44.388 5.88105C45.452 5.40505 46.18 5.06905 46.572 4.87305C46.964 4.64905 47.454 4.34105 48.042 3.94905C48.63 3.52904 49.064 3.09504 49.344 2.64705C49.624 2.17104 49.848 1.61104 50.016 0.967045L53.712 3.10904C53.6 3.72504 53.418 4.29905 53.166 4.83104C52.914 5.33505 52.55 5.81105 52.074 6.25905C51.598 6.70705 51.178 7.07105 50.814 7.35105C50.478 7.63104 49.904 7.96704 49.092 8.35904C48.28 8.75105 47.678 9.03105 47.286 9.19905C46.922 9.36705 46.222 9.66105 45.186 10.081C43.338 10.809 41.98 11.565 41.112 12.349C40.272 13.105 39.684 14.057 39.348 15.205C41.028 13.301 43.31 12.349 46.194 12.349C48.658 12.349 50.8 13.231 52.62 14.995C54.468 16.759 55.392 19.041 55.392 21.841C55.392 24.697 54.412 27.049 52.452 28.897C50.52 30.745 48 31.669 44.892 31.669ZM44.85 27.427C46.614 27.427 48.056 26.909 49.176 25.873C50.296 24.809 50.856 23.465 50.856 21.841C50.856 20.189 50.296 18.831 49.176 17.767C48.084 16.703 46.656 16.171 44.892 16.171C43.324 16.171 41.91 16.675 40.65 17.683C39.39 18.663 38.76 19.979 38.76 21.631C38.76 23.311 39.348 24.697 40.524 25.789C41.7 26.881 43.142 27.427 44.85 27.427ZM68.89 31.669C65.726 31.669 63.08 30.605 60.952 28.477C58.852 26.349 57.802 23.731 57.802 20.623C57.802 17.487 58.852 14.869 60.952 12.769C63.08 10.641 65.726 9.57705 68.89 9.57705C70.934 9.57705 72.796 10.067 74.476 11.047C76.156 12.027 77.416 13.343 78.256 14.995L74.35 17.263C73.874 16.255 73.146 15.471 72.166 14.911C71.214 14.323 70.108 14.029 68.848 14.029C67 14.029 65.446 14.659 64.186 15.919C62.954 17.179 62.338 18.747 62.338 20.623C62.338 22.499 62.954 24.067 64.186 25.327C65.446 26.587 67 27.217 68.848 27.217C70.08 27.217 71.186 26.923 72.166 26.335C73.174 25.747 73.93 24.963 74.434 23.983L78.34 26.209C77.444 27.889 76.156 29.219 74.476 30.199C72.796 31.179 70.934 31.669 68.89 31.669ZM86.9595 1.72304H91.1595V31.123H86.3295V6.88905L80.4075 8.56905L79.2315 4.45304L86.9595 1.72304Z" fill="#33A363"/>
</svg>
