<svg width="354" height="37" viewBox="0 0 354 37" fill="none" xmlns="http://www.w3.org/2000/svg">
<path d="M26.4983 27.259C23.5583 30.199 19.9603 31.669 15.7043 31.669C11.4483 31.669 7.83628 30.199 4.86828 27.259C1.92828 24.291 0.458281 20.679 0.458281 16.423C0.458281 12.167 1.92828 8.56904 4.86828 5.62904C7.83628 2.66104 11.4483 1.17704 15.7043 1.17704C19.9603 1.17704 23.5583 2.66104 26.4983 5.62904C29.4663 8.56904 30.9503 12.167 30.9503 16.423C30.9503 20.679 29.4663 24.291 26.4983 27.259ZM8.27028 23.983C10.2863 25.971 12.7643 26.965 15.7043 26.965C18.6443 26.965 21.1083 25.971 23.0963 23.983C25.1123 21.967 26.1203 19.447 26.1203 16.423C26.1203 13.399 25.1123 10.893 23.0963 8.90504C21.1083 6.88905 18.6443 5.88105 15.7043 5.88105C12.7643 5.88105 10.2863 6.88905 8.27028 8.90504C6.28228 10.893 5.28828 13.399 5.28828 16.423C5.28828 19.447 6.28228 21.967 8.27028 23.983ZM44.806 31.669C41.586 31.669 38.954 30.633 36.91 28.561C34.894 26.461 33.886 23.787 33.886 20.539C33.886 16.983 34.418 14.239 35.482 12.307C36.546 10.347 38.702 8.56905 41.95 6.97304C42.482 6.72104 43.266 6.35704 44.302 5.88105C45.366 5.40505 46.094 5.06905 46.486 4.87305C46.878 4.64905 47.368 4.34105 47.956 3.94905C48.544 3.52904 48.978 3.09504 49.258 2.64705C49.538 2.17104 49.762 1.61104 49.93 0.967044L53.626 3.10904C53.514 3.72504 53.332 4.29904 53.08 4.83104C52.828 5.33504 52.464 5.81105 51.988 6.25905C51.512 6.70705 51.092 7.07104 50.728 7.35104C50.392 7.63104 49.818 7.96704 49.006 8.35904C48.194 8.75105 47.592 9.03105 47.2 9.19905C46.836 9.36705 46.136 9.66104 45.1 10.081C43.252 10.809 41.894 11.565 41.026 12.349C40.186 13.105 39.598 14.057 39.262 15.205C40.942 13.301 43.224 12.349 46.108 12.349C48.572 12.349 50.714 13.231 52.534 14.995C54.382 16.759 55.306 19.041 55.306 21.841C55.306 24.697 54.326 27.049 52.366 28.897C50.434 30.745 47.914 31.669 44.806 31.669ZM44.764 27.427C46.528 27.427 47.97 26.909 49.09 25.873C50.21 24.809 50.77 23.465 50.77 21.841C50.77 20.189 50.21 18.831 49.09 17.767C47.998 16.703 46.57 16.171 44.806 16.171C43.238 16.171 41.824 16.675 40.564 17.683C39.304 18.663 38.674 19.979 38.674 21.631C38.674 23.311 39.262 24.697 40.438 25.789C41.614 26.881 43.056 27.427 44.764 27.427ZM70.3778 17.263C72.6178 17.263 74.4518 17.907 75.8798 19.195C77.3078 20.455 78.0218 22.121 78.0218 24.193C78.0218 26.237 77.3078 27.903 75.8798 29.191C74.4518 30.479 72.6178 31.123 70.3778 31.123H61.2218V14.491H55.4258V10.123H65.7578V17.263H70.3778ZM70.4198 27.049C71.3158 27.049 72.0578 26.783 72.6458 26.251C73.2618 25.719 73.5698 25.033 73.5698 24.193C73.5698 23.325 73.2618 22.639 72.6458 22.135C72.0578 21.603 71.3158 21.337 70.4198 21.337H65.7578V27.049H70.4198ZM85.0617 22.555C85.3977 24.151 86.1677 25.383 87.3717 26.251C88.5757 27.091 90.0457 27.511 91.7817 27.511C94.1897 27.511 95.9957 26.643 97.1997 24.907L100.938 27.091C98.8657 30.143 95.7997 31.669 91.7397 31.669C88.3237 31.669 85.5657 30.633 83.4657 28.561C81.3657 26.461 80.3157 23.815 80.3157 20.623C80.3157 17.487 81.3517 14.869 83.4237 12.769C85.4957 10.641 88.1557 9.57705 91.4037 9.57705C94.4837 9.57705 97.0037 10.655 98.9637 12.811C100.952 14.967 101.946 17.585 101.946 20.665C101.946 21.141 101.89 21.771 101.778 22.555H85.0617ZM85.0197 18.859H97.3677C97.0597 17.151 96.3457 15.863 95.2257 14.995C94.1337 14.127 92.8457 13.693 91.3617 13.693C89.6817 13.693 88.2817 14.155 87.1617 15.079C86.0417 16.003 85.3277 17.263 85.0197 18.859ZM122.446 1.72304H126.982V31.123H122.446V28.099C120.738 30.479 118.288 31.669 115.096 31.669C112.212 31.669 109.748 30.605 107.704 28.477C105.66 26.321 104.638 23.703 104.638 20.623C104.638 17.515 105.66 14.897 107.704 12.769C109.748 10.641 112.212 9.57705 115.096 9.57705C118.288 9.57705 120.738 10.753 122.446 13.105V1.72304ZM111.064 25.453C112.324 26.713 113.906 27.343 115.81 27.343C117.714 27.343 119.296 26.713 120.556 25.453C121.816 24.165 122.446 22.555 122.446 20.623C122.446 18.691 121.816 17.095 120.556 15.835C119.296 14.547 117.714 13.903 115.81 13.903C113.906 13.903 112.324 14.547 111.064 15.835C109.804 17.095 109.174 18.691 109.174 20.623C109.174 22.555 109.804 24.165 111.064 25.453ZM137.897 1.72304H142.097V31.123H137.267V6.88905L131.345 8.56905L130.169 4.45304L137.897 1.72304ZM170.828 9.57705C173.208 9.57705 175.126 10.347 176.582 11.887C178.038 13.427 178.766 15.499 178.766 18.103V31.123H174.23V18.397C174.23 16.941 173.866 15.821 173.138 15.037C172.41 14.225 171.416 13.819 170.156 13.819C168.756 13.819 167.636 14.281 166.796 15.205C165.984 16.129 165.578 17.515 165.578 19.363V31.123H161.042V18.397C161.042 16.941 160.692 15.821 159.992 15.037C159.32 14.225 158.354 13.819 157.094 13.819C155.722 13.819 154.602 14.295 153.734 15.247C152.866 16.171 152.432 17.543 152.432 19.363V31.123H147.896V10.123H152.432V12.643C153.776 10.599 155.778 9.57705 158.438 9.57705C161.126 9.57705 163.114 10.683 164.402 12.895C165.802 10.683 167.944 9.57705 170.828 9.57705ZM202.185 31.123H196.767L188.157 21.421V31.123H183.621V1.72304H188.157V19.405L196.305 10.123H201.849L192.609 20.413L202.185 31.123ZM223.8 31.123H218.382L209.772 21.421V31.123H205.236V1.72304H209.772V19.405L217.92 10.123L223.464 10.123L214.224 20.413L223.8 31.123ZM249.783 9.57705C252.163 9.57705 254.081 10.347 255.537 11.887C256.993 13.427 257.721 15.499 257.721 18.103V31.123H253.185V18.397C253.185 16.941 252.821 15.821 252.093 15.037C251.365 14.225 250.371 13.819 249.111 13.819C247.711 13.819 246.591 14.281 245.751 15.205C244.939 16.129 244.533 17.515 244.533 19.363V31.123H239.997V18.397C239.997 16.941 239.647 15.821 238.947 15.037C238.275 14.225 237.309 13.819 236.049 13.819C234.677 13.819 233.557 14.295 232.689 15.247C231.821 16.171 231.387 17.543 231.387 19.363V31.123H226.851V10.123H231.387V12.643C232.731 10.599 234.733 9.57705 237.393 9.57705C240.081 9.57705 242.069 10.683 243.357 12.895C244.757 10.683 246.899 9.57705 249.783 9.57705ZM281.14 31.123H275.722L267.112 21.421V31.123H262.576V1.72304H267.112V19.405L275.26 10.123H280.804L271.564 20.413L281.14 31.123ZM302.876 26.839H305.69V36.751H301.238V31.123H286.832V36.751H282.38V26.839H284.942C286.23 25.019 286.874 22.485 286.874 19.237V10.123H302.876V26.839ZM289.94 26.839H298.424V14.281H291.326V19.237C291.326 22.233 290.864 24.767 289.94 26.839ZM332.306 9.57705C334.686 9.57705 336.604 10.347 338.06 11.887C339.516 13.427 340.244 15.499 340.244 18.103V31.123H335.708V18.397C335.708 16.941 335.344 15.821 334.616 15.037C333.888 14.225 332.894 13.819 331.634 13.819C330.234 13.819 329.114 14.281 328.274 15.205C327.462 16.129 327.056 17.515 327.056 19.363V31.123H322.52V18.397C322.52 16.941 322.17 15.821 321.47 15.037C320.798 14.225 319.832 13.819 318.572 13.819C317.2 13.819 316.08 14.295 315.212 15.247C314.344 16.171 313.91 17.543 313.91 19.363V31.123H309.374V10.123H313.91V12.643C315.254 10.599 317.256 9.57705 319.916 9.57705C322.604 9.57705 324.592 10.683 325.88 12.895C327.28 10.683 329.422 9.57705 332.306 9.57705ZM349.045 1.72304H353.245V31.123H348.415V6.88905L342.493 8.56905L341.317 4.45304L349.045 1.72304Z" fill="#FCBD16"/>
</svg>
